<?xml version="1.0" encoding="utf-8"?>
<!-- Generator: Adobe Illustrator 19.2.1, SVG Export Plug-In . SVG Version: 6.00 Build 0)  -->
<svg version="1.1" id="Layer_1" xmlns="http://www.w3.org/2000/svg" xmlns:xlink="http://www.w3.org/1999/xlink" x="0px" y="0px"
	 viewBox="0 0 95 29" style="enable-background:new 0 0 95 29;" xml:space="preserve">
<style type="text/css">
	.st0{fill:none;}
	.st1{fill:#FFFFFF;}
	.st2{fill:#1C75BC;}
	.st3{font-family:'ArialMT';}
	.st4{font-size:4.3592px;}
	.st5{font-size:6.1134px;}
</style>
<rect x="0.5" y="0.9" class="st0" width="89.3" height="27.2"/>
<path class="st1" d="M1.2,1.6h3.3v6.7C4.7,8.1,5,7.9,5.4,7.7c0.3-0.2,0.7-0.4,1.1-0.5C6.9,7,7.3,6.9,7.7,6.8S8.5,6.7,9,6.7
	c1.1,0,2.1,0.2,3,0.6s1.8,1,2.4,1.6c0.7,0.7,1.2,1.5,1.6,2.4c0.4,0.9,0.6,1.9,0.6,3s-0.2,2.1-0.6,3s-1,1.8-1.6,2.4
	c-0.7,0.7-1.5,1.2-2.4,1.6s-1.9,0.6-3,0.6s-2.1-0.2-3-0.6s-1.8-0.9-2.5-1.6s-1.3-1.5-1.6-2.4c-0.4-0.9-0.6-2-0.6-3.1L1.2,1.6
	L1.2,1.6z M4.5,14.4c0,0.6,0.1,1.2,0.4,1.7c0.2,0.5,0.6,1,1,1.4s0.9,0.7,1.4,1c0.5,0.2,1.1,0.4,1.7,0.4c0.6,0,1.2-0.1,1.7-0.4
	c0.5-0.2,1-0.6,1.4-1s0.7-0.9,1-1.4c0.2-0.5,0.4-1.1,0.4-1.7c0-0.6-0.1-1.2-0.4-1.7c-0.2-0.5-0.6-1-1-1.4s-0.9-0.7-1.4-1
	C10.1,10.1,9.5,10,8.9,10s-1.2,0.1-1.7,0.4c-0.5,0.2-1,0.6-1.4,1s-0.7,0.9-1,1.4C4.6,13.2,4.5,13.8,4.5,14.4"/>
<path class="st1" d="M17.3,14.4c0-1.1,0.2-2.1,0.6-3s1-1.8,1.7-2.4c0.7-0.7,1.5-1.2,2.5-1.6C23,7,24,6.8,25.1,6.8s2.1,0.2,3,0.6
	s1.8,1,2.4,1.6c0.7,0.7,1.2,1.5,1.6,2.4c0.4,0.9,0.6,1.9,0.6,3s-0.2,2.1-0.6,3c-0.4,0.9-1,1.8-1.6,2.4c-0.7,0.7-1.5,1.2-2.4,1.6
	s-1.9,0.6-3,0.6s-2.1-0.2-3-0.6s-1.8-1-2.5-1.6c-0.7-0.7-1.3-1.5-1.7-2.4C17.5,16.5,17.3,15.5,17.3,14.4 M20.6,14.4
	c0,0.6,0.1,1.2,0.4,1.7c0.2,0.5,0.6,1,1,1.4s0.9,0.7,1.4,1c0.5,0.2,1.1,0.4,1.7,0.4s1.2-0.1,1.7-0.4c0.5-0.2,1-0.6,1.4-1
	s0.7-0.9,1-1.4c0.2-0.5,0.4-1.1,0.4-1.7c0-0.6-0.1-1.2-0.4-1.7c-0.2-0.5-0.6-1-1-1.4s-0.9-0.7-1.4-1c-0.5-0.2-1.1-0.4-1.7-0.4
	s-1.2,0.1-1.7,0.4c-0.5,0.2-1,0.6-1.4,1s-0.7,0.9-1,1.4C20.7,13.2,20.6,13.8,20.6,14.4"/>
<rect x="33.5" y="1.6" class="st1" width="3.3" height="19.9"/>
<path class="st1" d="M53.3,14.4c0,1.1-0.2,2.1-0.6,3.1c-0.4,0.9-0.9,1.8-1.6,2.4c-0.7,0.7-1.5,1.2-2.5,1.6c-0.9,0.4-1.9,0.6-3,0.6
	s-2.1-0.2-3-0.6s-1.8-1-2.4-1.6c-0.7-0.7-1.2-1.5-1.6-2.4c-0.4-0.9-0.6-1.9-0.6-3s0.2-2.1,0.6-3c0.4-0.9,1-1.8,1.6-2.4
	c0.7-0.7,1.5-1.2,2.4-1.6s1.9-0.6,3-0.6c0.4,0,0.8,0,1.3,0.1c0.3-0.1,0.7,0,1.1,0.2s0.8,0.3,1.1,0.5s0.6,0.4,0.9,0.6V1.6h3.3V14.4z
	 M50,14.4c0-0.6-0.1-1.2-0.4-1.7c-0.2-0.5-0.6-1-1-1.4s-0.9-0.7-1.4-1c-0.5-0.2-1.1-0.4-1.7-0.4c-0.6,0-1.2,0.1-1.7,0.4
	c-0.5,0.2-1,0.6-1.4,1s-0.7,0.9-1,1.4c-0.2,0.5-0.4,1.1-0.4,1.7c0,0.6,0.1,1.2,0.4,1.7c0.2,0.5,0.6,1,1,1.4s0.9,0.7,1.4,1
	c0.5,0.2,1.1,0.4,1.7,0.4c0.6,0,1.2-0.1,1.7-0.4c0.5-0.2,1-0.6,1.4-1s0.7-0.9,1-1.4C49.9,15.6,50,15,50,14.4"/>
<path class="st2" d="M61.2,17.6c0-0.6-0.2-1-0.6-1.2c-0.4-0.2-1-0.5-1.8-0.7c-0.5-0.1-1.1-0.3-1.6-0.5s-1-0.4-1.4-0.8
	c-0.4-0.3-0.8-0.7-1.1-1.2s-0.5-1-0.5-1.7c-0.1-0.7,0-1.3,0.3-1.9c0.2-0.6,0.6-1.1,1.1-1.5c0.5-0.4,1-0.8,1.7-1
	c0.6-0.3,1.3-0.4,2-0.4c0.6,0,1.2,0.1,1.7,0.3c0.5,0.2,1,0.5,1.4,0.8c0.4,0.3,0.8,0.7,1,1.1c0.3,0.4,0.4,0.8,0.5,1.2h-3.3
	c-0.2-0.4-0.7-0.5-1.5-0.5c-0.5,0-0.9,0.1-1.3,0.4c-0.4,0.3-0.5,0.7-0.4,1.2c0.1,0.3,0.4,0.6,0.8,0.8c0.5,0.2,1.2,0.4,2.2,0.8
	c0.6,0.2,1.1,0.4,1.6,0.7s0.9,0.6,1.3,1c0.4,0.4,0.7,0.8,0.9,1.4c0.2,0.5,0.3,1.1,0.3,1.8c0,0.7-0.1,1.4-0.4,1.9
	c-0.3,0.6-0.7,1-1.2,1.4s-1.1,0.7-1.7,0.9c-0.6,0.2-1.3,0.3-2,0.3c-0.6,0-1.3-0.1-1.9-0.4c-0.6-0.2-1.2-0.6-1.7-1s-0.9-0.9-1.2-1.6
	c-0.3-0.6-0.5-1.3-0.5-2h3.3c0,0.5,0.2,1,0.6,1.4c0.4,0.4,0.9,0.6,1.5,0.6s1-0.2,1.4-0.5C61,18.3,61.2,17.9,61.2,17.6"/>
<path class="st2" d="M76.4,21.5h-4.2l-3.7-4.9c0,0.8,0,1.7,0,2.5c0,0.9,0,1.6,0,2.3h-3.3V1.5h3.3v9l3.7-3.3h4.3l-6.4,6L76.4,21.5z"
	/>
<path class="st2" d="M86.1,7.3h3.3v7.9c0,0.7-0.1,1.4-0.3,2.1c-0.2,0.7-0.5,1.3-0.9,1.9s-0.9,1.1-1.5,1.5s-1.3,0.7-2.1,0.9v5.6h-3.3
	v-5.6c-1.4-0.5-2.6-1.3-3.5-2.4s-1.3-2.4-1.4-3.9v-8h3.3v7.9c0,0.4,0.1,0.8,0.2,1.2c0.2,0.4,0.4,0.7,0.7,1c0.3,0.3,0.6,0.5,1,0.7
	s0.8,0.3,1.2,0.3c0.4,0,0.8-0.1,1.2-0.2c0.4-0.2,0.7-0.4,1-0.7c0.3-0.3,0.5-0.6,0.7-1s0.3-0.8,0.3-1.2v-8H86.1z"/>
<text transform="matrix(1 0 0 1 0.9253 27.8233)" class="st1 st3 st4">L</text>
<text transform="matrix(1 0 0 1 5.9653 27.8233)" class="st1 st3 st4">I</text>
<text transform="matrix(1 0 0 1 9.792 27.8233)" class="st1 st3 st4">M</text>
<text transform="matrix(1 0 0 1 16.0386 27.8233)" class="st1 st3 st4">I</text>
<text transform="matrix(1 0 0 1 19.8652 27.8233)" class="st1 st3 st4">T</text>
<text transform="matrix(1 0 0 1 25.1436 27.8233)" class="st1 st3 st4">L</text>
<text transform="matrix(1 0 0 1 30.1836 27.8233)" class="st1 st3 st4">E</text>
<text transform="matrix(1 0 0 1 35.7065 27.8233)" class="st1 st3 st4">S</text>
<text transform="matrix(1 0 0 1 41.2295 27.8233)" class="st1 st3 st4">S</text>
<text transform="matrix(1 0 0 1 46.7524 27.8233)" class="st3 st4"> </text>
<text transform="matrix(1 0 0 1 50.5791 27.8233)" class="st1 st3 st4">L</text>
<text transform="matrix(1 0 0 1 55.6191 27.8233)" class="st1 st3 st4">I</text>
<text transform="matrix(1 0 0 1 59.4458 27.8233)" class="st1 st3 st4">V</text>
<text transform="matrix(1 0 0 1 64.9688 27.8233)" class="st1 st3 st4">I</text>
<text transform="matrix(1 0 0 1 68.7954 27.8233)" class="st1 st3 st4">N</text>
<text transform="matrix(1 0 0 1 74.5591 27.8233)" class="st1 st3 st4">G</text>
<text transform="matrix(1 0 0 1 89.9883 7.4547)" class="st1 st3 st5">®</text>
</svg>
