<?xml version="1.0" encoding="utf-8"?>
<!-- Generator: Adobe Illustrator 24.1.1, SVG Export Plug-In . SVG Version: 6.00 Build 0)  -->
<svg version="1.1" id="Layer_1" xmlns="http://www.w3.org/2000/svg" xmlns:xlink="http://www.w3.org/1999/xlink" x="0px" y="0px"
	 viewBox="0 0 484.7 126" style="enable-background:new 0 0 484.7 126;" xml:space="preserve">
<style type="text/css">
	.st0{fill:#FFFFFF;}
</style>
<g>
	<g>
		<path class="st0" d="M77.8,90.2c12.5-7.9,26-15.8,39.5-24.3c0,10.9,0,20.3,0,30.8c-13,8-39.5,24.4-39.5,24.4S77.8,103.5,77.8,90.2
			z"/>
		<path class="st0" d="M77.8,90.2c0,10.6,0,20.5,0,30.9c-12.5-8.1-26.1-16.2-38.8-24.5c0-9.7,0-19.4,0-29.9
			C52.8,74.8,64.8,82.5,77.8,90.2z"/>
	</g>
	<g>
		<path class="st0" d="M156.5,75.8h-14.6v-9.6c0-2.8-0.2-4.5-0.5-5.2c-0.3-0.7-1-1-2.1-1c-1.2,0-2,0.4-2.3,1.3
			c-0.3,0.8-0.5,2.7-0.5,5.4v25.6c0,2.7,0.2,4.4,0.5,5.2c0.3,0.8,1.1,1.2,2.2,1.2c1.1,0,1.8-0.4,2.1-1.2c0.3-0.8,0.5-2.7,0.5-5.8
			v-6.9h14.6V87c0,5.7-0.4,9.7-1.2,12.1c-0.8,2.4-2.6,4.5-5.4,6.3c-2.8,1.8-6.3,2.7-10.4,2.7c-4.3,0-7.8-0.8-10.6-2.3
			c-2.8-1.5-4.6-3.6-5.5-6.3c-0.9-2.7-1.4-6.7-1.4-12.1V71.3c0-4,0.1-6.9,0.4-8.9c0.3-2,1.1-3.9,2.5-5.7c1.4-1.8,3.3-3.3,5.7-4.3
			c2.4-1.1,5.2-1.6,8.4-1.6c4.3,0,7.9,0.8,10.7,2.4c2.8,1.6,4.6,3.7,5.5,6.1c0.9,2.4,1.3,6.2,1.3,11.4V75.8z"/>
		<path class="st0" d="M186.6,51.8l8.4,55.1H180l-0.8-9.9H174l-0.9,9.9H158l7.5-55.1H186.6z M178.8,87.2c-0.7-6.2-1.5-13.9-2.2-23.1
			c-1.5,10.5-2.4,18.3-2.8,23.1H178.8z"/>
		<path class="st0" d="M197,51.8h10.3c6.9,0,11.6,0.3,14,0.8c2.4,0.5,4.4,1.9,6,4c1.5,2.1,2.3,5.6,2.3,10.3c0,4.3-0.5,7.2-1.6,8.6
			c-1.1,1.5-3.2,2.4-6.4,2.7c2.9,0.7,4.8,1.6,5.8,2.8c1,1.2,1.6,2.3,1.9,3.2c0.2,1,0.4,3.7,0.4,8.1v14.5H216V88.6
			c0-2.9-0.2-4.8-0.7-5.5c-0.5-0.7-1.7-1.1-3.7-1.1v24.8H197V51.8z M211.6,61.3v12.2c1.6,0,2.8-0.2,3.5-0.7c0.7-0.4,1-1.9,1-4.3v-3
			c0-1.7-0.3-2.9-1-3.4C214.5,61.5,213.3,61.3,211.6,61.3z"/>
		<path class="st0" d="M234.8,51.8h24.4v11h-9.8v10.4h9.1v10.5h-9.1v12.1h10.7v11h-25.3V51.8z"/>
		<path class="st0" d="M263.9,51.8h24.4v11h-9.8v10.4h9.1v10.5h-9.1v12.1h10.7v11h-25.3V51.8z"/>
		<path class="st0" d="M293.1,51.8h10.3c6.9,0,11.6,0.3,14,0.8c2.4,0.5,4.4,1.9,6,4c1.5,2.1,2.3,5.6,2.3,10.3c0,4.3-0.5,7.2-1.6,8.6
			c-1.1,1.5-3.2,2.4-6.4,2.7c2.9,0.7,4.8,1.6,5.8,2.8c1,1.2,1.6,2.3,1.9,3.2c0.2,1,0.4,3.7,0.4,8.1v14.5h-13.6V88.6
			c0-2.9-0.2-4.8-0.7-5.5c-0.5-0.7-1.7-1.1-3.7-1.1v24.8h-14.6V51.8z M307.7,61.3v12.2c1.6,0,2.8-0.2,3.5-0.7c0.7-0.4,1-1.9,1-4.3
			v-3c0-1.7-0.3-2.9-1-3.4C310.5,61.5,309.3,61.3,307.7,61.3z"/>
		<path class="st0" d="M345.5,51.8v55.1h-14.6V51.8H345.5z"/>
		<path class="st0" d="M383.6,51.8v55.1h-12.8l-7.6-25v25h-12.2V51.8h12.2l8.2,24.8V51.8H383.6z"/>
		<path class="st0" d="M389,51.8h10.9c7.1,0,11.8,0.3,14.3,1c2.5,0.6,4.4,1.7,5.7,3.1c1.3,1.5,2.1,3.1,2.4,4.8
			c0.3,1.8,0.5,5.3,0.5,10.5v19.3c0,4.9-0.2,8.2-0.7,9.9c-0.5,1.7-1.3,3-2.5,3.9c-1.2,0.9-2.6,1.6-4.4,2c-1.7,0.4-4.3,0.6-7.8,0.6
			H389V51.8z M403.6,61.3v36.2c2.1,0,3.4-0.4,3.9-1.2c0.5-0.8,0.7-3.1,0.7-6.8V68.1c0-2.5-0.1-4.1-0.2-4.8c-0.2-0.7-0.5-1.2-1.1-1.5
			C406.3,61.4,405.2,61.3,403.6,61.3z"/>
		<path class="st0" d="M442.5,51.8v55.1h-14.6V51.8H442.5z"/>
		<path class="st0" d="M473.2,51.8l8.4,55.1h-14.9l-0.8-9.9h-5.2l-0.9,9.9h-15.1l7.5-55.1H473.2z M465.4,87.2
			c-0.7-6.2-1.5-13.9-2.2-23.1c-1.5,10.5-2.4,18.3-2.8,23.1H465.4z"/>
	</g>
	<path class="st0" d="M78.8-5.8"/>
	<path class="st0" d="M79,78.9c24.7-13.8,49.2-27.5,74.5-41.6C134.8,29.6,80.6,4.1,80.6,4.1C80,4.1,5.7,36.4,5.7,36.4l13.7,8.5
		c0,0,0.1,25.8,0.1,39.2c-4,1.4-6.2,4.9-6.2,9.1c0,5.4,4.4,9.8,9.8,9.8s9.8-4.4,9.8-9.8c0-3.8-2.5-7.1-5.6-8.7
		c-0.2-0.2-0.8-0.4-0.8-0.5c0-11.9-0.1-23.4-0.1-35.6C44.4,58.8,61.7,69,79,78.9z"/>
</g>
<g>
	<path class="st0" d="M464.3,26.7c1.6,0,3.2,0.4,4.8,1.3c1.6,0.8,2.8,2,3.6,3.6c0.9,1.6,1.3,3.2,1.3,4.9c0,1.7-0.4,3.3-1.3,4.8
		c-0.9,1.5-2.1,2.8-3.6,3.6c-1.5,0.9-3.2,1.3-4.8,1.3s-3.3-0.4-4.8-1.3c-1.5-0.9-2.7-2.1-3.6-3.6c-0.9-1.5-1.3-3.2-1.3-4.8
		c0-1.7,0.4-3.3,1.3-4.9c0.9-1.6,2.1-2.8,3.6-3.6C461.1,27.1,462.7,26.7,464.3,26.7z M464.3,28.3c-1.4,0-2.7,0.4-4,1.1
		c-1.3,0.7-2.3,1.7-3,3c-0.7,1.3-1.1,2.7-1.1,4.1c0,1.4,0.4,2.7,1.1,4c0.7,1.3,1.7,2.3,3,3c1.3,0.7,2.6,1.1,4,1.1s2.7-0.4,4-1.1
		c1.3-0.7,2.3-1.7,3-3c0.7-1.3,1.1-2.6,1.1-4c0-1.4-0.4-2.8-1.1-4.1c-0.7-1.3-1.7-2.3-3-3C467,28.6,465.7,28.3,464.3,28.3z
		 M460.1,41.8V31.3h3.6c1.2,0,2.1,0.1,2.7,0.3c0.6,0.2,1,0.5,1.3,1c0.3,0.5,0.5,1,0.5,1.5c0,0.8-0.3,1.4-0.8,2
		c-0.5,0.6-1.3,0.9-2.2,1c0.4,0.2,0.7,0.3,0.9,0.6c0.4,0.4,0.9,1.1,1.5,2.1l1.3,2.1h-2.1l-0.9-1.7c-0.7-1.3-1.3-2.1-1.8-2.4
		c-0.3-0.2-0.8-0.4-1.4-0.4h-1v4.5H460.1z M461.8,35.9h2.1c1,0,1.7-0.1,2-0.4c0.4-0.3,0.5-0.7,0.5-1.2c0-0.3-0.1-0.6-0.3-0.8
		c-0.2-0.2-0.4-0.4-0.7-0.5c-0.3-0.1-0.9-0.2-1.7-0.2h-1.9V35.9z"/>
</g>
</svg>
