<?xml version="1.0" encoding="utf-8"?>
<!-- Generator: Adobe Illustrator 24.1.1, SVG Export Plug-In . SVG Version: 6.00 Build 0)  -->
<svg version="1.1" id="Layer_1" xmlns="http://www.w3.org/2000/svg" xmlns:xlink="http://www.w3.org/1999/xlink" x="0px" y="0px"
	 viewBox="0 0 1274 437" style="enable-background:new 0 0 1274 437;" xml:space="preserve">
<style type="text/css">
	.st0{fill:#FFFFFF;}
	.st1{fill:#FAA700;}
	.st2{fill:#EA4904;}
	.st3{fill:#77C830;}
	.st4{fill:#14B0D0;}
	.st5{fill:none;}
</style>
<path class="st0" d="M675,372.2c-4.2-1.8-6.5-4-6.1-8.9c0.4-4.5,0-9,0.1-13.5c0.1-5.7,2-7,7.5-5.1c4.2,1.5,8.5,2.9,13,3.2
	c13.8,0.9,20.1-4.2,22.8-18c1.4-7.2,0.5-14.5,0.9-22.7c-8.4,6.6-17.1,9.9-26.9,9.6c-15.9-0.4-26.2-10-27.2-25.9
	c-1.2-18.3-0.3-36.6-0.4-54.9c-0.1-14.5,0-29,0-43.5c0-7.1,0.9-7.9,8.1-8c5.7,0,11.3,0,17,0c7.1,0,8.2,1,8.2,8c0,29.5,0,58.9,0,88.4
	c0,4.1,0.1,8.1,4.7,10c3.3,1.3,13.9-0.2,15.8-2.4c1.2-1.4,0.6-3.2,0.6-4.8c0-30.3,0-60.6,0-90.9c0-7.3,1-8.3,8.4-8.3
	c6.2,0,12.3,0,18.5,0c4.1,0,6.1,1.7,6.1,6c-0.1,44.9,0,89.9-0.3,134.8c0,7.5-1.7,14.8-4.2,21.9c-6,16.5-17.9,26-35.2,27.5
	C694,376,678.9,373.8,675,372.2"/>
<path class="st1" d="M136.5,264.2c6.4-17.2,19.3-26.2,36-31.1c14.6-4.2,29.6-3.3,44.5-3.1c2.6,0,3.9,1.3,4,3.9
	c0.3,17.7,1,35.4-5.9,52.4c-10.3,25.4-33,34.7-56.2,27.8c-13.2-4-22-12.2-24-22.2c-0.1-0.6-1-4-0.9-6C134.1,281,134,271,136.5,264.2
	"/>
<path class="st2" d="M135.6,149.2c5.8-20.3,25.3-29,44.8-25.6c21,3.7,34.1,18.9,38.8,42.6c2.5,12.7,1.9,25.5,1.9,38.3
	c0,2.9-0.8,4.6-4.6,4.7c-14.8,0.3-29.6,1.1-44-3.1c-19-5.5-33.4-18.1-37.3-36.5C133.9,163.7,135.3,150.2,135.6,149.2"/>
<path class="st0" d="M766.9,121.1c9,0,18.1,0,27.1,0c3.6,1,3,3.9,3,6.5c0,20.1,0,40.3,0,60.4c0,1.6-0.5,3.3,0.7,5.2
	c5-3.6,9.8-7.5,15.8-8.9c18.2-4.3,37.4,0.9,38.1,28.2c0.8,32.1,0.2,64.3,0.3,96.4c0,4.2-2.1,6-6.2,6c-6.2,0-12.3,0-18.5,0
	c-7.8,0-8.8-1-8.8-9c0-15.2,0-30.3,0-45.5c0-14,0-28,0-42c0-9-3.9-12-12.7-10.1c-1.5,0.3-2.8,0.9-4.3,1.2c-3.5,0.7-4.6,2.6-4.6,6.2
	c0.2,30.3,0.1,60.6,0.1,90.9c0,7.1-1,8.1-8,8.1c-6.2,0-12.3-0.1-18.5,0c-4.5,0.1-6.7-1.9-6.7-6.5c0-60.4,0-120.9,0-181.3
	C763.9,124.6,763.7,122,766.9,121.1"/>
<path class="st0" d="M956.9,241.2c0,16.1,0,32.3,0,48.4c0,3.9,0,7.8,4.8,9.2c1.3,0.4,1.2,1.4,1.2,2.4c0.1,5.3-1.5,9.8-6.4,12.6
	c-8.5,4.7-25.6,4.8-30.5-6.1c-1.3-2.9-2.5-0.8-3.6,0.1c-9.9,8-21.2,10.7-33.6,7.9c-11.7-2.6-19.5-12.8-19.7-27.2
	c-0.4-32.6-0.2-65.3-0.3-97.9c0-4.2,2-6.1,6.1-6c6.5,0.1,13,0,19.5,0c6.6,0,7.6,0.9,7.6,7.5c0,29.1,0,58.3,0,87.4
	c0,4.4-0.3,9.1,4.5,11.3c5.5,2.6,10.8,0.2,15.8-2c2.1-0.9,1.2-3.3,1.2-5c0-30,0-59.9,0-89.9c0-8.7,0.6-9.3,9.4-9.3
	c5.8,0,11.7,0.1,17.5,0c4.6-0.1,6.6,2,6.6,6.6C956.9,207.9,956.9,224.6,956.9,241.2"/>
<path class="st0" d="M974.9,249.9c0-19.1,0-38.3,0-57.4c0-6.4,1.2-7.5,7.6-7.6c4.2,0,8.3-0.1,12.5,0.1c4.5,0.2,8.6,1.8,10.8,6
	c1.5,2.8,2.6,1.9,4.3,0.4c8.1-6.7,17.5-9.2,27.8-8.3c13.1,1.1,22,9.8,23.8,23.3c0.6,4.8,1.1,9.6,1.1,14.4c-0.1,28.6,0,57.3-0.1,85.9
	c0,6.9-1.3,8.2-8.1,8.2c-5.3,0-10.7,0-16,0c-8.3,0-8.9-0.6-8.9-8.7c0-28.6,0-57.3,0-85.9c0-4.3,0.7-9.1-4.2-11.3
	c-5.7-2.6-11.1-0.3-16.2,2.1c-2.2,1-1.3,3.2-1.3,4.9c0,30.1,0,60.3,0,90.4c0,8.5-0.1,8.6-8.8,8.6c-5.3,0-10.7,0-16,0
	c-7.8,0-8.3-0.6-8.4-8.2C974.9,287.9,974.9,268.9,974.9,249.9"/>
<path class="st0" d="M1139.1,292.7c0,3.9,0,7.7,0,11.6c-0.1,3.1-1.7,5.2-4.3,6.8c-10.8,6.7-22.5,7.6-34.5,4.6
	c-9.1-2.3-14.3-10.8-14.3-22.6c-0.1-26.6-0.2-53.3,0.1-79.9c0.1-5.2-1.4-6.4-6.3-6.1c-7.1,0.4-7.9-0.8-8-8c0-0.7,0-1.3,0-2
	c0-11.1,0-11.2,11.2-12.2c2.6-0.2,2.9-1.3,2.9-3.5c-0.1-7.2-0.1-14.3,0-21.5c0-5.6,1.3-6.8,6.8-6.8c6.7,0,13.3,0.2,20-0.1
	c4.8-0.2,6.6,2.1,6.6,6.5c0,7.2,0.1,14.3,0,21.5c-0.1,2.8,0.8,4,3.7,3.8c3.2-0.2,6.3-0.1,9.5,0c1.3,0,3.1,0,3.8,0.7
	c2.8,3.6,2.5,11.3,2.2,17.1c-0.2,4.2-4,4.6-7.6,4.6c-11.5,0.1-11.5,0.1-11.5,11.7c0,21,0,41.9,0,62.9c0,1.3-0.1,2.7,0,4
	c0.5,6.6,3.5,8.7,10.1,7c1.8-0.5,3.4-1.3,5.2-1.6C1136.3,290.7,1138.3,290.1,1139.1,292.7"/>
<path class="st0" d="M611,121.1c9,0,18.1,0,27.1,0c3.3,0.9,3,3.5,3,6c0,15.3,0,30.6,0,46c0,44.6,0,89.3,0,133.9c0,7.3-0.7,8-8,8
	c-6.3,0-12.7,0-19,0c-4.1,0-6.2-1.9-6.2-6c0-3,0-6,0-9c0-57.1,0-114.2,0-171.4C607.9,125.8,607,122.4,611,121.1"/>
<path class="st3" d="M260.5,209c-4.7,0-9.3-0.1-14,0c-2.7,0.1-3.7-0.8-4-3.6c-1.4-19.4-1.1-38.5,7.4-56.6
	c10-21.2,32.6-30.9,54.6-23.5c16.5,5.5,26.3,22.5,24.1,39.7c-3.1,23.5-19.1,36.5-41.4,41.9C278.5,209,269.5,209.6,260.5,209"/>
<path class="st4" d="M260.4,230.2c15.4-0.4,30.4,1.6,44.4,8.9c22.9,12,29,39.2,20.4,56.6c-6.1,12.4-16.3,19.1-29.9,20.3
	c-24.1,2-41.6-10.6-49.1-34.8c-4.6-14.8-4.6-30.1-4-45.4c0.2-4.2,2.2-5.7,6.2-5.6C252.5,230.3,256.4,230.2,260.4,230.2"/>
<path class="st0" d="M590.1,250c0,19.3,0,38.6,0,57.9c0,6-1,7-7,7c-6.5,0.1-13-0.1-19.5,0c-4.5,0.1-6.8-1.9-6.8-6.5
	c0-39.3,0-78.5,0-117.8c0-4.2,2-6.1,6.1-6c6.8,0.1,13.7,0,20.5,0c5.4,0.1,6.6,1.3,6.6,6.9C590.1,211.1,590.1,230.5,590.1,250"/>
<path class="st0" d="M556.6,146.8c0.3-9.7,8.3-17,18-16.6c9.4,0.4,16.6,8.2,16.4,17.7c-0.3,9.6-8.2,16.9-18,16.6
	C563.5,164.1,556.3,156.3,556.6,146.8"/>
<path class="st0" d="M448.1,301.8c-0.1-1.1,0.3-2.4-1.2-2.9c-4.7-1.6-4.7-5.5-4.7-9.4c0-13.5,0-27,0-40.5c0-40.1,0-80.3,0-120.4
	c0-2.8,0.9-6.2-3-7.5c-9,0-18.1,0-27.1,0c-3.5,1-3,3.9-3,6.5c0,19.6,0,39.3-0.1,59c0,1.4,0.6,2.9-0.5,4.2
	c-9.5-9.5-23.2-8.5-31.8-4.8c-11.2,4.9-15.6,14.9-18.4,25.7c-5.2,20.6-5,41.5-2.7,62.4c1.1,10.2,3.3,20.3,9.1,29.1
	c9.8,15,31.4,17.4,44.1,5c0.9-0.9,1.5-2,2.6-0.3c5.9,9.6,15.2,8.9,24.4,7.9C443.7,315,448.6,309.1,448.1,301.8 M405.2,291.2
	c-6,1.2-10.3,0.3-12.8-3.8c-2.7-4.4-3.5-9.3-3.9-14.3c-1.5-18.4-2.3-36.9,1.5-55.1c1.8-8.4,5.7-10.9,13.8-10.1
	c3.4,0.4,5.3,1.5,5.2,5.6c-0.3,12.1-0.1,24.3-0.1,36.5c0,11.2,0.1,22.3,0,33.5C408.9,286.5,410.4,290.2,405.2,291.2"/>
<path class="st0" d="M545.1,301.2c-0.1-0.8,0.2-1.8-0.9-2.1c-5.7-1.9-5.1-6.7-5.1-11.2c-0.1-24,0.2-47.9-0.3-71.9
	c-0.3-16.7-9.4-27.3-25.6-31.1c-7.2-1.7-14.4-1.8-21.7-1c-19.7,2.1-32.6,16.9-31.7,36.6c0.2,4.1,2.2,6.1,6.1,6.4
	c3.5,0.2,7,0.1,10.5,0.1c10.6,0,10.6,0,11.7-10.2c0-0.3,0.1-0.7,0.1-1c1-5.6,5.1-9,10.4-8.7c5.5,0.3,9,3.7,9.3,9.7
	c0.3,6.8,0.1,13.6,0.2,20.5c0,2.3-0.7,2.8-2.9,2.3c-6.2-1.2-12.5-1.3-18.9-0.8c-14.2,1.2-24,9-28.3,22.7c-3.2,10.1-3,20.4-0.8,30.5
	c2.5,11.4,8,21.1,20.5,23.8c11.8,2.6,23.2,1.9,31.8-8.9c1.8,3.4,3.5,7,7.3,8.4c8.1,2.9,16.1,2.3,23.3-2.5
	C544.2,310.3,545.5,306,545.1,301.2 M504.6,293.7c-8.7,4.3-16.2,0.4-17.7-9.1c-1-6.1-1-12.2,0.7-18.2c2.4-8.3,10.3-12.4,18.4-9.9
	c2,0.6,1.9,1.9,1.9,3.4c0,4.8,0,9.6,0,14.5c0,4.7-0.2,9.3,0.1,14C508.1,291.2,506.9,292.6,504.6,293.7"/>
<rect class="st5" width="1274" height="437"/>
</svg>
