<?xml version="1.0" encoding="utf-8"?>
<!-- Generator: Adobe Illustrator 19.2.1, SVG Export Plug-In . SVG Version: 6.00 Build 0)  -->
<svg version="1.2" baseProfile="tiny" xmlns="http://www.w3.org/2000/svg" xmlns:xlink="http://www.w3.org/1999/xlink" x="0px"
	 y="0px" viewBox="0 0 219.2 39.8" xml:space="preserve">
<g id="Layer_1">
	<g>
		<path fill="#FFFFFF" d="M14.8,3.5H4.5l-1,6.2h7.3l0,0h1.7c4.7,0,7.6,2.8,6.8,7.9c-0.9,5.5-5,7.9-9.3,7.9H9.2v0H1l-1,6.2h10.4
			c7.8,0,15.3-6.2,16.5-14.1C28.1,9.7,22.7,3.5,14.8,3.5"/>
		<path fill="#FFFFFF" d="M37.2,15.6L37.2,15.6c1.8-2.4,4.2-3.4,6.8-3.4h1.3l-1,6.5c-0.9-0.5-1.7-0.6-2.8-0.6
			c-3.8,0-5.1,2.5-5.6,5.8l-1.2,7.7h-6.8l3-19.1h6.8L37.2,15.6z"/>
		<path fill="#FFFFFF" d="M51.6,31.7h-6.8l3-19.1h6.8L51.6,31.7z M56.2,5.2C55.9,7.3,53.9,9,51.8,9c-2.1,0-3.5-1.7-3.2-3.8
			c0.3-2.1,2.3-3.8,4.4-3.8C55.1,1.4,56.5,3.1,56.2,5.2"/>
		<polygon fill="#FFFFFF" points="66.9,22.3 73.1,12.5 80.7,12.5 67.6,31.7 63.3,31.7 56.3,12.5 63.9,12.5 		"/>
		<path fill="#FFFFFF" d="M100.3,23.2H86c-0.4,2.8,0.8,4.3,3.6,4.3c1.5,0,2.6-0.5,3.5-1.8h6.5c-1.8,4.5-6.4,6.6-10.8,6.6
			c-6.3,0-10.5-3.6-9.5-10.2c1-6.4,6-10.2,12.2-10.2c6.6,0,9.8,4.1,8.8,10.6L100.3,23.2z M94.6,19.3c0-1.8-1.5-3-3.4-3
			c-2,0-3.8,1-4.5,3H94.6z"/>
		<path fill="#EA2728" d="M121,10.8c-1.2-1.1-2.8-1.9-4.6-1.9c-1.3,0-3.3,0.8-3.5,2.4c-0.3,1.6,1.6,2.3,2.8,2.7l1.8,0.6
			c3.7,1.2,6.4,3.1,5.7,7.7c-0.4,2.8-1.6,5.7-4.1,7.6c-2.5,1.9-5.6,2.6-8.4,2.6c-3.5,0-6.8-1.2-9.4-3.2l4.1-5.9
			c1.6,1.6,3.5,2.9,6,2.9c1.7,0,3.7-0.9,4-2.8c0.3-2.1-2.4-2.8-3.9-3.2c-4.4-1.3-7.2-2.5-6.4-7.9c0.9-5.7,5.6-9.4,11.2-9.4
			c2.8,0,6.2,0.9,8.4,2.3L121,10.8z"/>
		<path fill="#EA2728" d="M134.3,14.7L134.3,14.7c1.6-1.9,4.1-2.8,6.3-2.8c5.7,0,8.9,4.8,8,10.3c-0.9,5.5-5.5,10.1-11.2,10.1
			c-2.2,0-4.4-0.8-5.5-2.5l-1.8,11.4h-6.8l4.5-28.7h6.8L134.3,14.7z M132.9,22.1c-0.4,2.4,0.9,4.3,3.7,4.3c2.8,0,4.7-1.9,5-4.3
			c0.4-2.4-0.9-4.3-3.7-4.3C135.2,17.8,133.3,19.8,132.9,22.1"/>
		<path fill="#EA2728" d="M171.4,31.7h-6.8l0.3-2.1h-0.1c-1.5,1.9-4,2.8-6.2,2.8c-5.7,0-8.9-4.7-8-10.2c0.9-5.5,5.5-10.2,11.2-10.2
			c2.2,0,4.4,0.8,5.5,2.5l0.3-1.9h6.8L171.4,31.7z M157.6,22.1c-0.4,2.4,0.9,4.3,3.7,4.3c2.8,0,4.7-1.9,5-4.3
			c0.4-2.4-0.9-4.3-3.7-4.3C159.9,17.8,158,19.8,157.6,22.1"/>
		<path fill="#EA2728" d="M185.3,15.6L185.3,15.6c1.8-2.4,4.2-3.4,6.8-3.4h1.3l-1,6.5c-0.9-0.5-1.7-0.6-2.8-0.6
			c-3.8,0-5.1,2.5-5.6,5.8l-1.2,7.7h-6.8l3-19.1h6.8L185.3,15.6z"/>
		<polygon fill="#EA2728" points="201.6,19.4 209.7,12.5 219,12.5 208,21.4 216.6,31.7 207.1,31.7 200.9,23.9 199.6,31.7 
			192.8,31.7 197.7,0.7 204.5,0.7 		"/>
		<path fill="#EA2728" d="M5.6,15.8c-1.2,1.2-1,3.5,0.7,4.3c2.2,1,3.9,1.8,6.5,3c-1.2-2.6-2-4.3-3-6.5C9.1,14.9,6.9,14.5,5.6,15.8"
			/>
	</g>
	<rect x="-69.5" y="-53.7" fill="none" width="450" height="186"/>
</g>
<g id="Layer_2" display="none">
	<text transform="matrix(1 0 0 1 3.9653 -0.8581)" display="inline" font-family="'MyriadPro-Regular'" font-size="30px">H</text>
	<text transform="matrix(1 0 0 1 23.8247 -0.8581)" display="inline" font-family="'MyriadPro-Regular'" font-size="30px">i</text>
	<text transform="matrix(1 0 0 1 30.8447 -0.8581)" display="inline" font-family="'MyriadPro-Regular'" font-size="30px">n</text>
	<text transform="matrix(1 0 0 1 47.4946 -0.8581)" display="inline" font-family="'MyriadPro-Regular'" font-size="30px">d</text>
	<text transform="matrix(1 0 0 1 64.4145 -0.8581)" display="inline" font-family="'MyriadPro-Regular'" font-size="30px">i</text>
</g>
<g id="Layer_2_copy">
</g>
<g id="Layer_2_copy_2" display="none">
	<text transform="matrix(1 0 0 1 3.9653 -0.8581)" display="inline" font-family="'MyriadPro-Regular'" font-size="30px">M</text>
	<text transform="matrix(1 0 0 1 28.2646 -0.8581)" display="inline" font-family="'MyriadPro-Regular'" font-size="30px">a</text>
	<text transform="matrix(1 0 0 1 42.7246 -0.8581)" display="inline" font-family="'MyriadPro-Regular'" font-size="30px">l</text>
	<text transform="matrix(1 0 0 1 49.8042 -0.8581)" display="inline" font-family="'MyriadPro-Regular'" font-size="30px">a</text>
	<text transform="matrix(1 0 0 1 64.0244 -0.8581)" display="inline" font-family="'MyriadPro-Regular'" font-size="30px">y</text>
	<text transform="matrix(1 0 0 1 78.0346 -0.8581)" display="inline" font-family="'MyriadPro-Regular'" font-size="30px">a</text>
	<text transform="matrix(1 0 0 1 92.4946 -0.8581)" display="inline" font-family="'MyriadPro-Regular'" font-size="30px">l</text>
	<text transform="matrix(1 0 0 1 99.5742 -0.8581)" display="inline" font-family="'MyriadPro-Regular'" font-size="30px">a</text>
	<text transform="matrix(1 0 0 1 114.0342 -0.8581)" display="inline" font-family="'MyriadPro-Regular'" font-size="30px">m</text>
</g>
<g id="Layer_2_copy_3" display="none">
	<text transform="matrix(1 0 0 1 3.9653 -0.8581)" display="inline" font-family="'MyriadPro-Regular'" font-size="30px">T</text>
	<text transform="matrix(1 0 0 1 16.9551 -0.8581)" display="inline" font-family="'MyriadPro-Regular'" font-size="30px">a</text>
	<text transform="matrix(1 0 0 1 31.415 -0.8581)" display="inline" font-family="'MyriadPro-Regular'" font-size="30px">m</text>
	<text transform="matrix(1 0 0 1 56.435 -0.8581)" display="inline" font-family="'MyriadPro-Regular'" font-size="30px">i</text>
	<text transform="matrix(1 0 0 1 63.4551 -0.8581)" display="inline" font-family="'MyriadPro-Regular'" font-size="30px">l</text>
</g>
<g id="Layer_2_copy_4" display="none">
	<text transform="matrix(1 0 0 1 3.9653 -0.8581)" display="inline" font-family="'MyriadPro-Regular'" font-size="30px">T</text>
	<text transform="matrix(1 0 0 1 16.7451 -0.8581)" display="inline" font-family="'MyriadPro-Regular'" font-size="30px">e</text>
	<text transform="matrix(1 0 0 1 31.7749 -0.8581)" display="inline" font-family="'MyriadPro-Regular'" font-size="30px">l</text>
	<text transform="matrix(1 0 0 1 38.8545 -0.8581)" display="inline" font-family="'MyriadPro-Regular'" font-size="30px">u</text>
	<text transform="matrix(1 0 0 1 55.3843 -0.8581)" display="inline" font-family="'MyriadPro-Regular'" font-size="30px">g</text>
	<text transform="matrix(1 0 0 1 72.1538 -0.8581)" display="inline" font-family="'MyriadPro-Regular'" font-size="30px">u</text>
</g>
</svg>
