<?xml version="1.0" encoding="utf-8"?>
<!-- Generator: Adobe Illustrator 22.0.0, SVG Export Plug-In . SVG Version: 6.00 Build 0)  -->
<svg version="1.1" xmlns="http://www.w3.org/2000/svg" xmlns:xlink="http://www.w3.org/1999/xlink" x="0px" y="0px"
	 viewBox="0 0 320.5 84" style="enable-background:new 0 0 320.5 84;" xml:space="preserve">
<style type="text/css">
	.st0{display:none;}
	.st1{display:inline;}
	.st2{font-family:'MyriadPro-Regular';}
	.st3{font-size:30px;}
	.st4{fill:#EA2728;}
	.st5{fill:none;}
</style>
<g id="Layer_1">
</g>
<g id="Layer_2" class="st0">
	<text transform="matrix(1 0 0 1 8.9248 2.3086)" class="st1 st2 st3">Hindi</text>
</g>
<g id="Layer_2_copy">
</g>
<g id="Layer_2_copy_2" class="st0">
	<text transform="matrix(1 0 0 1 8.9248 2.3086)" class="st1 st2 st3">Malayalam</text>
</g>
<g id="Layer_2_copy_3" class="st0">
	<text transform="matrix(1 0 0 1 8.9248 2.3086)" class="st1 st2 st3">Tamil</text>
</g>
<g id="Layer_2_copy_4">
	<g>
		<path d="M26.1,7.9H11.3l-1.4,8.8h10.4l0,0h2.4c6.7,0,10.8,4,9.7,11.2c-1.2,7.8-7.1,11.2-13.3,11.2H18v0H6.4L5,48h14.8
			c11.1,0,21.8-8.8,23.6-20.1C45.1,16.7,37.3,7.9,26.1,7.9"/>
		<path d="M58.1,25.2h0.1c2.4-3.4,5.8-4.8,9.6-4.8h1.9l-1.5,9.3c-1.2-0.7-2.5-0.9-4-0.9c-5.4,0-7.3,3.6-8,8.2l-1.7,11h-9.7l4.3-27.3
			h9.7L58.1,25.2z"/>
		<path d="M78.5,48h-9.7l4.3-27.3h9.7L78.5,48z M85.1,10.2c-0.5,3-3.3,5.4-6.3,5.4c-3,0-5-2.4-4.6-5.4c0.5-3,3.3-5.4,6.3-5.4
			C83.5,4.8,85.6,7.3,85.1,10.2"/>
		<polygon points="100.4,34.7 109.2,20.7 120,20.7 101.4,48 95.3,48 85.3,20.7 96.1,20.7 		"/>
		<path d="M148,36h-20.4c-0.6,3.9,1.1,6.1,5.1,6.1c2.1,0,3.7-0.7,5-2.5h9.3c-2.6,6.4-9.1,9.4-15.4,9.4c-9,0-15-5.1-13.5-14.5
			c1.4-9.1,8.5-14.6,17.4-14.6c9.5,0,14,5.9,12.5,15.2L148,36z M139.9,30.4c-0.1-2.6-2.2-4.3-4.8-4.3c-2.8,0-5.4,1.5-6.4,4.3H139.9z
			"/>
		<path class="st4" d="M177.5,18.2c-1.7-1.6-3.9-2.7-6.5-2.7c-1.9,0-4.6,1.1-5,3.4c-0.4,2.3,2.3,3.2,4,3.8l2.5,0.8
			c5.3,1.7,9.2,4.5,8.2,11c-0.6,4-2.2,8.1-5.9,10.8c-3.6,2.7-7.9,3.8-12,3.8c-5.1,0-9.7-1.7-13.4-4.6l5.8-8.4c2.2,2.3,5,4.1,8.6,4.1
			c2.4,0,5.2-1.2,5.7-4c0.5-2.9-3.5-3.9-5.6-4.6c-6.2-1.9-10.3-3.6-9.1-11.3c1.3-8.1,7.9-13.5,16-13.5c4,0,8.8,1.3,12,3.3
			L177.5,18.2z"/>
		<path class="st4" d="M196.5,23.8h0.1c2.2-2.7,5.7-4,8.9-4c8.1,0,12.7,6.8,11.5,14.6c-1.2,7.9-7.9,14.5-16,14.5
			c-3.1,0-6.2-1.1-7.9-3.5l-2.6,16.2h-9.7l6.5-40.9h9.7L196.5,23.8z M194.5,34.4c-0.5,3.5,1.3,6.1,5.3,6.1c3.9,0,6.6-2.7,7.2-6.1
			c0.5-3.4-1.3-6.2-5.2-6.2C197.8,28.2,195.1,31,194.5,34.4"/>
		<path class="st4" d="M249.5,48h-9.7l0.5-3h-0.1c-2.1,2.7-5.7,3.9-8.9,3.9c-8.1,0-12.7-6.8-11.5-14.6c1.2-7.8,7.9-14.5,16-14.5
			c3.1,0,6.3,1.2,7.9,3.6l0.4-2.7h9.7L249.5,48z M229.8,34.4c-0.5,3.5,1.3,6.1,5.3,6.1c3.9,0,6.6-2.7,7.2-6.1
			c0.5-3.4-1.3-6.2-5.2-6.2C233.1,28.2,230.3,31,229.8,34.4"/>
		<path class="st4" d="M269.2,25.2h0.1c2.4-3.4,5.8-4.8,9.6-4.8h1.9l-1.5,9.3c-1.2-0.7-2.5-0.9-4-0.9c-5.4,0-7.3,3.6-8,8.2l-1.7,11
			h-9.7l4.3-27.3h9.7L269.2,25.2z"/>
		<polygon class="st4" points="292.5,30.6 304.1,20.7 317.3,20.7 301.6,33.3 313.8,48 300.3,48 291.5,36.9 289.7,48 280,48 287,3.9 
			296.7,3.9 		"/>
		<path class="st4" d="M12.9,25.4c-1.7,1.7-1.4,5,1,6.1c3.2,1.4,5.6,2.5,9.3,4.2c-1.7-3.8-2.8-6.2-4.2-9.3
			C18,24.2,14.8,23.5,12.9,25.4"/>
		<rect x="6" y="68.9" width="1.2" height="8.6"/>
		<path d="M18.8,71.5c0.2,0.1,0.4,0.3,0.6,0.6v-0.8h1V77c0,0.8-0.1,1.4-0.4,1.9c-0.4,0.9-1.3,1.3-2.5,1.3c-0.7,0-1.2-0.2-1.7-0.5
			c-0.5-0.3-0.7-0.8-0.8-1.4h1.1c0,0.3,0.2,0.5,0.3,0.7c0.2,0.2,0.6,0.4,1.1,0.4c0.8,0,1.3-0.3,1.6-0.9c0.1-0.3,0.2-0.9,0.2-1.8
			c-0.2,0.3-0.5,0.6-0.8,0.7c-0.3,0.2-0.7,0.2-1.2,0.2c-0.7,0-1.3-0.2-1.8-0.7c-0.5-0.5-0.8-1.3-0.8-2.4c0-1.1,0.3-1.9,0.8-2.5
			c0.5-0.6,1.1-0.9,1.9-0.9C18,71.1,18.4,71.2,18.8,71.5 M18.9,72.6c-0.3-0.4-0.7-0.6-1.2-0.6c-0.7,0-1.2,0.3-1.5,1
			C16,73.5,16,73.9,16,74.5c0,0.7,0.1,1.2,0.4,1.6c0.3,0.4,0.7,0.6,1.2,0.6c0.8,0,1.3-0.3,1.6-1c0.2-0.4,0.3-0.8,0.3-1.4
			C19.4,73.6,19.2,73,18.9,72.6"/>
		<path d="M28.3,71.2h1v0.9c0.3-0.4,0.6-0.6,0.9-0.8c0.3-0.2,0.7-0.2,1.1-0.2c0.9,0,1.5,0.3,1.8,0.9c0.2,0.3,0.3,0.8,0.3,1.5v4h-1.1
			v-4c0-0.4-0.1-0.7-0.2-0.9c-0.2-0.4-0.5-0.6-1-0.6c-0.3,0-0.5,0-0.6,0.1c-0.3,0.1-0.5,0.3-0.8,0.5c-0.2,0.2-0.3,0.4-0.3,0.6
			c-0.1,0.2-0.1,0.5-0.1,0.9v3.3h-1.1V71.2z"/>
		<path d="M41.4,68.9h1.1v1.2h-1.1V68.9z M41.4,71.3h1.1v6.2h-1.1V71.3z"/>
		<path d="M50.6,69.5h1.1v1.8h1v0.9h-1v4.1c0,0.2,0.1,0.4,0.2,0.4c0.1,0,0.2,0.1,0.4,0.1c0.1,0,0.1,0,0.2,0c0.1,0,0.1,0,0.2,0v0.8
			c-0.1,0-0.2,0.1-0.4,0.1c-0.1,0-0.3,0-0.4,0c-0.5,0-0.8-0.1-1-0.4c-0.2-0.3-0.3-0.6-0.3-1v-4.2h-0.9v-0.9h0.9V69.5z"/>
		<path d="M64,71.4c0.4,0.2,0.7,0.5,0.9,0.8c0.2,0.3,0.4,0.7,0.4,1.1c0.1,0.3,0.1,0.8,0.1,1.4h-4.6c0,0.6,0.2,1.2,0.4,1.5
			c0.3,0.4,0.7,0.6,1.3,0.6c0.5,0,1-0.2,1.3-0.5c0.2-0.2,0.3-0.5,0.4-0.7h1c0,0.2-0.1,0.5-0.3,0.8c-0.2,0.3-0.3,0.5-0.5,0.7
			c-0.3,0.3-0.7,0.5-1.2,0.6c-0.3,0.1-0.5,0.1-0.9,0.1c-0.8,0-1.4-0.3-2-0.9c-0.5-0.6-0.8-1.4-0.8-2.4c0-1,0.3-1.8,0.8-2.5
			c0.5-0.6,1.3-0.9,2.1-0.9C63.1,71.1,63.5,71.2,64,71.4 M64.3,73.9c0-0.5-0.1-0.8-0.3-1.1c-0.3-0.5-0.8-0.8-1.4-0.8
			c-0.5,0-0.9,0.2-1.2,0.5c-0.3,0.3-0.5,0.8-0.5,1.3H64.3z"/>
		<polygon points="82.1,68.9 83.4,68.9 85.9,73 88.4,68.9 89.8,68.9 86.5,74 86.5,77.5 85.3,77.5 85.3,74 		"/>
		<path d="M100.4,71.9c0.6,0.5,0.8,1.3,0.8,2.4c0,1-0.2,1.8-0.7,2.5c-0.5,0.7-1.2,1-2.3,1c-0.9,0-1.5-0.3-2-0.9
			c-0.5-0.6-0.8-1.4-0.8-2.3c0-1.1,0.3-1.9,0.8-2.5c0.5-0.6,1.2-0.9,2.1-0.9C99.2,71,99.9,71.3,100.4,71.9 M99.8,76
			c0.3-0.5,0.4-1.1,0.4-1.8c0-0.6-0.1-1.1-0.3-1.4c-0.3-0.6-0.8-0.9-1.5-0.9c-0.6,0-1.1,0.2-1.4,0.7c-0.3,0.5-0.4,1.1-0.4,1.8
			c0,0.7,0.1,1.2,0.4,1.7c0.3,0.4,0.7,0.7,1.4,0.7C99,76.8,99.5,76.5,99.8,76"/>
		<path d="M110,71.2v4.2c0,0.3,0,0.6,0.1,0.8c0.2,0.4,0.5,0.6,1,0.6c0.7,0,1.2-0.3,1.5-1c0.1-0.4,0.2-0.8,0.2-1.4v-3.1h1.1v6.3h-1
			l0-0.9c-0.1,0.2-0.3,0.4-0.5,0.6c-0.4,0.3-0.9,0.5-1.4,0.5c-0.9,0-1.5-0.3-1.8-0.9c-0.2-0.3-0.3-0.7-0.3-1.3v-4.3H110z"/>
		<path d="M122,71.2h1v1.1c0.1-0.2,0.3-0.5,0.6-0.8c0.3-0.3,0.7-0.5,1.1-0.5c0,0,0.1,0,0.1,0c0,0,0.1,0,0.2,0v1.1
			c-0.1,0-0.1,0-0.2,0c-0.1,0-0.1,0-0.2,0c-0.5,0-0.9,0.2-1.2,0.5c-0.3,0.3-0.4,0.7-0.4,1.2v3.6H122V71.2z"/>
		<path d="M142.2,68.9h3.4c1.2,0,2.1,0.4,2.7,1.3c0.6,0.8,0.9,1.7,0.9,2.9c0,0.9-0.2,1.7-0.5,2.5c-0.6,1.3-1.6,2-3.1,2h-3.4V68.9z
			 M145.4,76.5c0.4,0,0.7,0,1-0.1c0.4-0.2,0.8-0.4,1.1-0.9c0.2-0.3,0.4-0.8,0.5-1.3c0.1-0.3,0.1-0.6,0.1-0.9c0-1.1-0.2-1.9-0.6-2.5
			c-0.4-0.6-1.1-0.9-2-0.9h-2v6.6H145.4z"/>
		<path d="M157,71.2h1v1.1c0.1-0.2,0.3-0.5,0.6-0.8c0.3-0.3,0.7-0.5,1.1-0.5c0,0,0.1,0,0.1,0c0,0,0.1,0,0.2,0v1.1
			c-0.1,0-0.1,0-0.2,0c-0.1,0-0.1,0-0.2,0c-0.5,0-0.9,0.2-1.2,0.5c-0.3,0.3-0.4,0.7-0.4,1.2v3.6H157V71.2z"/>
		<path d="M167.4,68.9h1.1v1.2h-1.1V68.9z M167.4,71.3h1.1v6.2h-1.1V71.3z"/>
		<polygon points="176.9,71.2 178.6,76.3 180.3,71.2 181.5,71.2 179.1,77.5 178,77.5 175.7,71.2 		"/>
		<path d="M188.8,68.9h1.1v1.2h-1.1V68.9z M188.8,71.3h1.1v6.2h-1.1V71.3z"/>
		<path d="M197.8,71.2h1v0.9c0.3-0.4,0.6-0.6,0.9-0.8c0.3-0.2,0.7-0.2,1.1-0.2c0.9,0,1.5,0.3,1.8,0.9c0.2,0.3,0.3,0.8,0.3,1.5v4
			h-1.1v-4c0-0.4-0.1-0.7-0.2-0.9c-0.2-0.4-0.5-0.6-1-0.6c-0.3,0-0.5,0-0.6,0.1c-0.3,0.1-0.5,0.3-0.8,0.5c-0.2,0.2-0.3,0.4-0.3,0.6
			c-0.1,0.2-0.1,0.5-0.1,0.9v3.3h-1.1V71.2z"/>
		<path d="M214.3,71.5c0.2,0.1,0.4,0.3,0.6,0.6v-0.8h1V77c0,0.8-0.1,1.4-0.3,1.9c-0.4,0.9-1.3,1.3-2.5,1.3c-0.7,0-1.2-0.2-1.7-0.5
			c-0.5-0.3-0.7-0.8-0.8-1.4h1.1c0.1,0.3,0.2,0.5,0.3,0.7c0.2,0.2,0.6,0.4,1.1,0.4c0.8,0,1.3-0.3,1.6-0.9c0.1-0.3,0.2-0.9,0.2-1.8
			c-0.2,0.3-0.5,0.6-0.8,0.7c-0.3,0.2-0.7,0.2-1.2,0.2c-0.7,0-1.3-0.2-1.8-0.7c-0.5-0.5-0.8-1.3-0.8-2.4c0-1.1,0.3-1.9,0.8-2.5
			c0.5-0.6,1.1-0.9,1.9-0.9C213.5,71.1,213.9,71.2,214.3,71.5 M214.4,72.6c-0.3-0.4-0.7-0.6-1.2-0.6c-0.7,0-1.2,0.3-1.5,1
			c-0.1,0.4-0.2,0.9-0.2,1.5c0,0.7,0.1,1.2,0.4,1.6c0.3,0.4,0.7,0.6,1.2,0.6c0.8,0,1.3-0.3,1.6-1c0.2-0.4,0.3-0.8,0.3-1.4
			C214.9,73.6,214.8,73,214.4,72.6"/>
		<path d="M233.8,68.9h3.9c0.8,0,1.4,0.2,1.8,0.6c0.5,0.4,0.7,1,0.7,1.8c0,0.7-0.2,1.3-0.6,1.8c-0.4,0.5-1.1,0.7-1.9,0.7H235v3.6
			h-1.2V68.9z M238.3,70.1c-0.3-0.1-0.6-0.2-1.1-0.2H235v3h2.3c0.5,0,0.9-0.1,1.3-0.3c0.3-0.2,0.5-0.6,0.5-1.2
			C239,70.7,238.8,70.3,238.3,70.1"/>
		<path d="M251.3,73.7c0.2,0,0.4-0.1,0.5-0.3c0-0.1,0.1-0.2,0.1-0.4c0-0.4-0.1-0.6-0.4-0.8c-0.3-0.2-0.6-0.2-1.1-0.2
			c-0.6,0-0.9,0.2-1.2,0.4c-0.1,0.2-0.2,0.4-0.3,0.7h-1c0-0.8,0.3-1.3,0.8-1.6c0.5-0.3,1-0.5,1.7-0.5c0.7,0,1.3,0.1,1.8,0.4
			c0.5,0.3,0.7,0.7,0.7,1.3v3.6c0,0.1,0,0.2,0.1,0.3c0,0.1,0.1,0.1,0.3,0.1c0,0,0.1,0,0.2,0c0.1,0,0.1,0,0.2,0v0.8
			c-0.2,0-0.3,0.1-0.4,0.1c-0.1,0-0.2,0-0.4,0c-0.4,0-0.6-0.1-0.8-0.4c-0.1-0.1-0.1-0.3-0.2-0.6c-0.2,0.3-0.5,0.5-0.9,0.7
			c-0.4,0.2-0.8,0.3-1.3,0.3c-0.6,0-1.1-0.2-1.4-0.5c-0.4-0.4-0.6-0.8-0.6-1.3c0-0.6,0.2-1,0.5-1.4c0.4-0.3,0.8-0.5,1.4-0.6
			L251.3,73.7z M249,76.6c0.2,0.2,0.5,0.3,0.8,0.3c0.4,0,0.7-0.1,1.1-0.3c0.6-0.3,0.9-0.8,0.9-1.4v-0.8c-0.1,0.1-0.3,0.2-0.5,0.2
			c-0.2,0.1-0.4,0.1-0.6,0.1l-0.6,0.1c-0.4,0.1-0.7,0.1-0.9,0.2c-0.3,0.2-0.5,0.5-0.5,0.9C248.7,76.1,248.8,76.4,249,76.6"/>
		<path d="M261.6,75.5c0,0.4,0.1,0.6,0.3,0.8c0.3,0.3,0.7,0.5,1.4,0.5c0.4,0,0.7-0.1,1.1-0.3c0.3-0.2,0.5-0.4,0.5-0.8
			c0-0.3-0.1-0.5-0.4-0.6c-0.2-0.1-0.5-0.2-0.9-0.3l-0.9-0.2c-0.5-0.1-0.9-0.3-1.2-0.4c-0.5-0.3-0.7-0.7-0.7-1.2
			c0-0.6,0.2-1.1,0.7-1.4c0.4-0.4,1-0.6,1.8-0.6c1,0,1.6,0.3,2.1,0.8c0.3,0.4,0.4,0.7,0.4,1.1h-1c0-0.2-0.1-0.5-0.3-0.6
			c-0.2-0.3-0.7-0.4-1.3-0.4c-0.4,0-0.7,0.1-0.9,0.2c-0.2,0.2-0.3,0.4-0.3,0.6c0,0.3,0.1,0.5,0.4,0.7c0.2,0.1,0.4,0.2,0.7,0.3
			l0.7,0.2c0.8,0.2,1.3,0.4,1.6,0.5c0.4,0.3,0.6,0.7,0.6,1.3c0,0.6-0.2,1-0.6,1.4c-0.4,0.4-1.1,0.6-2,0.6c-0.9,0-1.6-0.2-2-0.6
			c-0.4-0.4-0.6-0.9-0.6-1.6H261.6z"/>
		<path d="M273.9,75.5c0,0.4,0.1,0.6,0.3,0.8c0.3,0.3,0.7,0.5,1.4,0.5c0.4,0,0.7-0.1,1.1-0.3c0.3-0.2,0.5-0.4,0.5-0.8
			c0-0.3-0.1-0.5-0.4-0.6c-0.2-0.1-0.5-0.2-0.9-0.3l-0.9-0.2c-0.5-0.1-0.9-0.3-1.2-0.4c-0.5-0.3-0.7-0.7-0.7-1.2
			c0-0.6,0.2-1.1,0.7-1.4c0.4-0.4,1-0.6,1.8-0.6c1,0,1.6,0.3,2.1,0.8c0.3,0.4,0.4,0.7,0.4,1.1h-1c0-0.2-0.1-0.5-0.3-0.6
			c-0.2-0.3-0.7-0.4-1.3-0.4c-0.4,0-0.7,0.1-0.9,0.2c-0.2,0.2-0.3,0.4-0.3,0.6c0,0.3,0.1,0.5,0.4,0.7c0.2,0.1,0.4,0.2,0.7,0.3
			l0.7,0.2c0.8,0.2,1.3,0.4,1.6,0.5c0.4,0.3,0.6,0.7,0.6,1.3c0,0.6-0.2,1-0.6,1.4c-0.4,0.4-1.1,0.6-2,0.6c-0.9,0-1.6-0.2-2-0.6
			c-0.4-0.4-0.6-0.9-0.6-1.6H273.9z"/>
		<path d="M285.7,68.9h1.1v1.2h-1.1V68.9z M285.7,71.3h1.1v6.2h-1.1V71.3z"/>
		<path d="M299.2,71.9c0.6,0.5,0.8,1.3,0.8,2.4c0,1-0.2,1.8-0.7,2.5c-0.5,0.7-1.2,1-2.3,1c-0.9,0-1.5-0.3-2-0.9
			c-0.5-0.6-0.8-1.4-0.8-2.3c0-1.1,0.3-1.9,0.8-2.5c0.5-0.6,1.2-0.9,2.1-0.9C298,71,298.7,71.3,299.2,71.9 M298.6,76
			c0.3-0.5,0.4-1.1,0.4-1.8c0-0.6-0.1-1.1-0.3-1.4c-0.3-0.6-0.8-0.9-1.5-0.9c-0.6,0-1.1,0.2-1.4,0.7c-0.3,0.5-0.4,1.1-0.4,1.8
			c0,0.7,0.1,1.2,0.4,1.7c0.3,0.4,0.7,0.7,1.4,0.7C297.8,76.8,298.3,76.5,298.6,76"/>
		<path d="M307.7,71.2h1v0.9c0.3-0.4,0.6-0.6,0.9-0.8c0.3-0.2,0.7-0.2,1.1-0.2c0.9,0,1.5,0.3,1.8,0.9c0.2,0.3,0.3,0.8,0.3,1.5v4
			h-1.1v-4c0-0.4-0.1-0.7-0.2-0.9c-0.2-0.4-0.5-0.6-1-0.6c-0.3,0-0.5,0-0.6,0.1c-0.3,0.1-0.5,0.3-0.8,0.5c-0.2,0.2-0.3,0.4-0.3,0.6
			c-0.1,0.2-0.1,0.5-0.1,0.9v3.3h-1.1V71.2z"/>
		<rect class="st5" width="320.5" height="84"/>
		<g>
			<path d="M312.8,0.9c1.3,0,2.6,0.3,3.8,1c1.2,0.7,2.2,1.6,2.9,2.9c0.7,1.2,1,2.5,1,3.9c0,1.3-0.3,2.6-1,3.9
				c-0.7,1.2-1.6,2.2-2.9,2.9c-1.2,0.7-2.5,1-3.9,1c-1.3,0-2.6-0.3-3.9-1c-1.2-0.7-2.2-1.6-2.9-2.9s-1-2.5-1-3.9
				c0-1.3,0.3-2.6,1-3.9c0.7-1.2,1.7-2.2,2.9-2.9C310.2,1.2,311.5,0.9,312.8,0.9z M312.8,2.2c-1.1,0-2.1,0.3-3.2,0.8
				c-1,0.6-1.8,1.4-2.4,2.4c-0.6,1-0.9,2.1-0.9,3.2c0,1.1,0.3,2.2,0.9,3.2c0.6,1,1.4,1.8,2.4,2.4c1,0.6,2.1,0.9,3.2,0.9
				s2.2-0.3,3.2-0.9c1-0.6,1.8-1.4,2.4-2.4c0.6-1,0.9-2.1,0.9-3.2c0-1.1-0.3-2.2-0.9-3.2c-0.6-1-1.4-1.8-2.4-2.4
				S313.8,2.2,312.8,2.2z M309.4,12.9V4.6h2.9c1,0,1.7,0.1,2.1,0.2c0.4,0.2,0.8,0.4,1,0.8c0.3,0.4,0.4,0.8,0.4,1.2
				c0,0.6-0.2,1.1-0.7,1.6c-0.4,0.5-1,0.7-1.7,0.8c0.3,0.1,0.5,0.3,0.7,0.4c0.3,0.3,0.7,0.9,1.2,1.7l1,1.6h-1.6l-0.7-1.3
				c-0.6-1-1.1-1.7-1.4-1.9c-0.2-0.2-0.6-0.3-1.1-0.3h-0.8v3.5H309.4z M310.7,8.2h1.6c0.8,0,1.3-0.1,1.6-0.3
				c0.3-0.2,0.4-0.5,0.4-0.9c0-0.2-0.1-0.5-0.2-0.7c-0.1-0.2-0.3-0.3-0.6-0.4c-0.2-0.1-0.7-0.1-1.4-0.1h-1.5V8.2z"/>
		</g>
	</g>
</g>
</svg>
