<?xml version="1.0" encoding="utf-8"?>
<!-- Generator: Adobe Illustrator 22.0.0, SVG Export Plug-In . SVG Version: 6.00 Build 0)  -->
<svg version="1.1" id="Layer_1" xmlns="http://www.w3.org/2000/svg" xmlns:xlink="http://www.w3.org/1999/xlink" x="0px" y="0px"
	 viewBox="0 0 283.7 64.3" style="enable-background:new 0 0 283.7 64.3;" xml:space="preserve">
<style type="text/css">
	.st0{fill:url(#SVGID_1_);}
	.st1{fill:#FDBF20;}
	.st2{fill:url(#SVGID_2_);}
	.st3{fill:url(#SVGID_3_);}
	.st4{fill:url(#SVGID_4_);}
	.st5{fill:url(#SVGID_5_);}
	.st6{fill:url(#SVGID_6_);}
	.st7{fill:#FFFFFF;}
	.st8{fill:#E91240;}
	.st9{fill:#231F20;}
</style>
<g>
	
		<linearGradient id="SVGID_1_" gradientUnits="userSpaceOnUse" x1="1134.0364" y1="694.3207" x2="1167.5426" y2="694.3207" gradientTransform="matrix(-0.9452 0.3266 -0.3266 -0.9452 1352.1078 313.3971)">
		<stop  offset="0" style="stop-color:#D195C2"/>
		<stop  offset="0.3788" style="stop-color:#BA7EB6"/>
		<stop  offset="1" style="stop-color:#985CA4"/>
	</linearGradient>
	<path class="st0" d="M23.6,43.1L23.6,43.1c0.2-0.2,0.3-0.2,0.4-0.1l0.4,0.4c0.1,0.1,0.1,0.3,0,0.4l-0.1,0.1l3.9,3.5l0.1-0.1
		c0.1-0.1,0.3-0.1,0.4-0.1l0.4,0.4c0.1,0.1,0.1,0.3,0,0.4L29,48l0.3,0.2L51.9,23l-0.3-0.3c0,0,0,0.1-0.1,0.1l-0.2,0.2
		c-0.1,0.1-0.3,0.1-0.4,0.1l-0.4-0.4c-0.1-0.1-0.1-0.3,0-0.4l0.2-0.2c0,0,0.1-0.1,0.1-0.1L47,18.6c0,0,0,0.1-0.1,0.1L46.7,19
		c-0.1,0.1-0.3,0.1-0.4,0.1l-0.4-0.4c-0.1-0.1-0.1-0.3,0-0.4l0.2-0.2c0,0,0.1-0.1,0.1-0.1L46,17.7L23.3,42.9L23.6,43.1z M44.9,19.9
		c-0.1-0.1-0.1-0.3,0-0.4l0.2-0.2c0.1-0.1,0.3-0.1,0.4-0.1l0.4,0.4c0.1,0.1,0.1,0.3,0,0.4l-0.2,0.2c-0.1,0.1-0.3,0.1-0.4,0.1
		L44.9,19.9z M49.5,24c-0.1-0.1-0.1-0.3,0-0.4l0.2-0.2c0.1-0.1,0.3-0.1,0.4-0.1l0.4,0.4c0.1,0.1,0.1,0.3,0,0.4l-0.2,0.2
		c-0.1,0.1-0.3,0.1-0.4,0.1L49.5,24z M43.8,21.1c-0.1-0.1-0.1-0.3,0-0.4l0.2-0.2c0.1-0.1,0.3-0.1,0.4-0.1l0.4,0.4
		c0.1,0.1,0.1,0.3,0,0.4l-0.2,0.2c-0.1,0.1-0.3,0.1-0.4,0.1L43.8,21.1z M48.4,25.2c-0.1-0.1-0.1-0.3,0-0.4l0.2-0.2
		c0.1-0.1,0.3-0.1,0.4-0.1l0.4,0.4c0.1,0.1,0.1,0.3,0,0.4l-0.2,0.2c-0.1,0.1-0.3,0.1-0.4,0.1L48.4,25.2z M42.7,22.2
		c-0.1-0.1-0.1-0.3,0-0.4l0.2-0.2c0.1-0.1,0.3-0.1,0.4-0.1l0.4,0.4c0.1,0.1,0.1,0.3,0,0.4l-0.2,0.2c-0.1,0.1-0.3,0.1-0.4,0.1
		L42.7,22.2z M47.4,26.4c-0.1-0.1-0.1-0.3,0-0.4l0.2-0.2c0.1-0.1,0.3-0.1,0.4-0.1l0.4,0.4c0.1,0.1,0.1,0.3,0,0.4l-0.2,0.2
		c-0.1,0.1-0.3,0.1-0.4,0.1L47.4,26.4z M41.7,23.4c-0.1-0.1-0.1-0.3,0-0.4l0.2-0.2c0.1-0.1,0.3-0.1,0.4-0.1l0.4,0.4
		c0.1,0.1,0.1,0.3,0,0.4l-0.2,0.2c-0.1,0.1-0.3,0.1-0.4,0.1L41.7,23.4z M46.3,27.6c-0.1-0.1-0.1-0.3,0-0.4l0.2-0.2
		c0.1-0.1,0.3-0.1,0.4-0.1l0.4,0.4c0.1,0.1,0.1,0.3,0,0.4l-0.2,0.2c-0.1,0.1-0.3,0.1-0.4,0.1L46.3,27.6z M40.6,24.6
		c-0.1-0.1-0.1-0.3,0-0.4l0.2-0.2c0.1-0.1,0.3-0.1,0.4-0.1l0.4,0.4c0.1,0.1,0.1,0.3,0,0.4l-0.2,0.2c-0.1,0.1-0.3,0.2-0.4,0.1
		L40.6,24.6z M45.2,28.8c-0.1-0.1-0.1-0.3,0-0.4l0.2-0.2c0.1-0.1,0.3-0.1,0.4-0.1l0.4,0.4c0.1,0.1,0.1,0.3,0,0.4L46,29.1
		c-0.1,0.1-0.3,0.1-0.4,0.1L45.2,28.8z M39.5,25.8c-0.1-0.1-0.1-0.3,0-0.4l0.2-0.2c0.1-0.1,0.3-0.1,0.4-0.1l0.4,0.4
		c0.1,0.1,0.1,0.3,0,0.4l-0.2,0.2c-0.1,0.1-0.3,0.1-0.4,0.1L39.5,25.8z M44.1,30c-0.1-0.1-0.1-0.3,0-0.4l0.2-0.2
		c0.1-0.1,0.3-0.1,0.4-0.1l0.4,0.4c0.1,0.1,0.1,0.3,0,0.4l-0.2,0.2c-0.1,0.1-0.3,0.1-0.4,0.1L44.1,30z M38.4,27
		c-0.1-0.1-0.1-0.3,0-0.4l0.2-0.2c0.1-0.1,0.3-0.1,0.4-0.1l0.4,0.4c0.1,0.1,0.1,0.3,0,0.4l-0.2,0.2c-0.1,0.1-0.3,0.1-0.4,0.1
		L38.4,27z M43.1,31.2c-0.1-0.1-0.1-0.3,0-0.4l0.2-0.2c0.1-0.1,0.3-0.1,0.4-0.1l0.4,0.4c0.1,0.1,0.1,0.3,0,0.4l-0.2,0.2
		c-0.1,0.1-0.3,0.1-0.4,0.1L43.1,31.2z M37.4,28.2c-0.1-0.1-0.1-0.3,0-0.4l0.2-0.2c0.1-0.1,0.3-0.1,0.4-0.1l0.4,0.4
		c0.1,0.1,0.1,0.3,0,0.4l-0.2,0.2c-0.1,0.1-0.3,0.1-0.4,0.1L37.4,28.2z M42,32.4c-0.1-0.1-0.1-0.3,0-0.4l0.2-0.2
		c0.1-0.1,0.3-0.1,0.4-0.1l0.4,0.4c0.1,0.1,0.1,0.3,0,0.4l-0.2,0.2c-0.1,0.1-0.3,0.1-0.4,0.1L42,32.4z M36.3,29.4
		c-0.1-0.1-0.1-0.3,0-0.4l0.2-0.2c0.1-0.1,0.3-0.1,0.4-0.1l0.4,0.4c0.1,0.1,0.1,0.3,0,0.4l-0.2,0.2c-0.1,0.1-0.3,0.1-0.4,0.1
		L36.3,29.4z M40.9,33.6c-0.1-0.1-0.1-0.3,0-0.4l0.2-0.2c0.1-0.1,0.3-0.1,0.4-0.1l0.4,0.4c0.1,0.1,0.1,0.3,0,0.4l-0.2,0.2
		c-0.1,0.1-0.3,0.1-0.4,0.1L40.9,33.6z M35.2,30.6c-0.1-0.1-0.1-0.3,0-0.4l0.2-0.2c0.1-0.1,0.3-0.1,0.4-0.1l0.4,0.4
		c0.1,0.1,0.1,0.3,0,0.4L36,30.9c-0.1,0.1-0.3,0.1-0.4,0.1L35.2,30.6z M39.8,34.8c-0.1-0.1-0.1-0.3,0-0.4l0.2-0.2
		c0.1-0.1,0.3-0.1,0.4-0.1l0.4,0.4c0.1,0.1,0.1,0.3,0,0.4l-0.2,0.2c-0.1,0.1-0.3,0.1-0.4,0.1L39.8,34.8z M34.1,31.8
		c-0.1-0.1-0.1-0.3,0-0.4l0.2-0.2c0.1-0.1,0.3-0.1,0.4-0.1l0.4,0.4c0.1,0.1,0.1,0.3,0,0.4l-0.2,0.2c-0.1,0.1-0.3,0.1-0.4,0.1
		L34.1,31.8z M38.8,35.9c-0.1-0.1-0.1-0.3,0-0.4l0.2-0.2c0.1-0.1,0.3-0.1,0.4-0.1l0.4,0.4c0.1,0.1,0.1,0.3,0,0.4l-0.2,0.2
		c-0.1,0.1-0.3,0.1-0.4,0.1L38.8,35.9z M33.1,33c-0.1-0.1-0.1-0.3,0-0.4l0.2-0.2c0.1-0.1,0.3-0.1,0.4-0.1l0.4,0.4
		c0.1,0.1,0.1,0.3,0,0.4l-0.2,0.2c-0.1,0.1-0.3,0.1-0.4,0.1L33.1,33z M37.7,37.1c-0.1-0.1-0.1-0.3,0-0.4l0.2-0.2
		c0.1-0.1,0.3-0.1,0.4-0.1l0.4,0.4c0.1,0.1,0.1,0.3,0,0.4l-0.2,0.2c-0.1,0.1-0.3,0.1-0.4,0.1L37.7,37.1z M32,34.2
		c-0.1-0.1-0.1-0.3,0-0.4l0.2-0.2c0.1-0.1,0.3-0.1,0.4-0.1l0.4,0.4c0.1,0.1,0.1,0.3,0,0.4l-0.2,0.2c-0.1,0.1-0.3,0.1-0.4,0.1
		L32,34.2z M36.6,38.3c-0.1-0.1-0.1-0.3,0-0.4l0.2-0.2c0.1-0.1,0.3-0.1,0.4-0.1l0.4,0.4c0.1,0.1,0.1,0.3,0,0.4l-0.2,0.2
		c-0.1,0.1-0.3,0.1-0.4,0.1L36.6,38.3z M30.9,35.3c-0.1-0.1-0.1-0.3,0-0.4l0.2-0.2c0.1-0.1,0.3-0.1,0.4-0.1l0.4,0.4
		c0.1,0.1,0.1,0.3,0,0.4l-0.2,0.2c-0.1,0.1-0.3,0.1-0.4,0.1L30.9,35.3z M35.6,39.5c-0.1-0.1-0.1-0.3,0-0.4l0.2-0.2
		c0.1-0.1,0.3-0.1,0.4-0.1l0.4,0.4c0.1,0.1,0.1,0.3,0,0.4l-0.2,0.2C36.2,39.9,36,40,36,39.9L35.6,39.5z M29.9,36.5
		c-0.1-0.1-0.1-0.3,0-0.4l0.2-0.2c0.1-0.1,0.3-0.1,0.4-0.1l0.4,0.4c0.1,0.1,0.1,0.3,0,0.4l-0.2,0.2c-0.1,0.1-0.3,0.1-0.4,0.1
		L29.9,36.5z M34.5,40.7c-0.1-0.1-0.1-0.3,0-0.4l0.2-0.2c0.1-0.1,0.3-0.2,0.4-0.1l0.4,0.4c0.1,0.1,0.1,0.3,0,0.4L35.3,41
		c-0.1,0.1-0.3,0.1-0.4,0.1L34.5,40.7z M28.8,37.7c-0.1-0.1-0.1-0.3,0-0.4l0.2-0.2c0.1-0.1,0.3-0.1,0.4-0.1l0.4,0.4
		c0.1,0.1,0.1,0.3,0,0.4L29.6,38c-0.1,0.1-0.3,0.1-0.4,0.1L28.8,37.7z M33.4,41.9c-0.1-0.1-0.1-0.3,0-0.4l0.2-0.2
		c0.1-0.1,0.3-0.1,0.4-0.1l0.4,0.4c0.1,0.1,0.1,0.3,0,0.4l-0.2,0.2c-0.1,0.1-0.3,0.2-0.4,0.1L33.4,41.9z M27.7,38.9
		c-0.1-0.1-0.1-0.3,0-0.4l0.2-0.2c0.1-0.1,0.3-0.1,0.4-0.1l0.4,0.4c0.1,0.1,0.1,0.3,0,0.4l-0.2,0.2c-0.1,0.1-0.3,0.1-0.4,0.1
		L27.7,38.9z M32.3,43.1c-0.1-0.1-0.1-0.3,0-0.4l0.2-0.2c0.1-0.1,0.3-0.1,0.4-0.1l0.4,0.4c0.1,0.1,0.1,0.3,0,0.4l-0.2,0.2
		c-0.1,0.1-0.3,0.1-0.4,0.1L32.3,43.1z M26.6,40.1c-0.1-0.1-0.1-0.3,0-0.4l0.2-0.2c0.1-0.1,0.3-0.1,0.4-0.1l0.4,0.4
		c0.1,0.1,0.1,0.3,0,0.4l-0.2,0.2c-0.1,0.1-0.3,0.1-0.4,0.1L26.6,40.1z M31.3,44.3c-0.1-0.1-0.1-0.3,0-0.4l0.2-0.2
		c0.1-0.1,0.3-0.1,0.4-0.1l0.4,0.4c0.1,0.1,0.1,0.3,0,0.4L32,44.6c-0.1,0.1-0.3,0.1-0.4,0.1L31.3,44.3z M25.6,41.3
		c-0.1-0.1-0.1-0.3,0-0.4l0.2-0.2c0.1-0.1,0.3-0.1,0.4-0.1l0.4,0.4c0.1,0.1,0.1,0.3,0,0.4l-0.2,0.2c-0.1,0.1-0.3,0.1-0.4,0.1
		L25.6,41.3z M30.2,45.5c-0.1-0.1-0.1-0.3,0-0.4l0.2-0.2c0.1-0.1,0.3-0.1,0.4-0.1l0.4,0.4c0.1,0.1,0.1,0.3,0,0.4L31,45.8
		c-0.1,0.1-0.3,0.1-0.4,0.1L30.2,45.5z M24.5,42.5c-0.1-0.1-0.1-0.3,0-0.4l0.2-0.2c0.1-0.1,0.3-0.1,0.4-0.1l0.4,0.4
		c0.1,0.1,0.1,0.3,0,0.4l-0.2,0.2c-0.1,0.1-0.3,0.1-0.4,0.1L24.5,42.5z M29.1,46.7c-0.1-0.1-0.1-0.3,0-0.4l0.2-0.2
		c0.1-0.1,0.3-0.1,0.4-0.1l0.4,0.4c0.1,0.1,0.1,0.3,0,0.4L29.9,47c-0.1,0.1-0.3,0.1-0.4,0.1L29.1,46.7z"/>
	<path class="st1" d="M5.1,30.8L5.1,30.8c0.2-0.2,0.3-0.2,0.4-0.1L5.9,31c0.1,0.1,0.1,0.3,0,0.4l-0.1,0.1L9.7,35l0.1-0.1
		c0.1-0.1,0.3-0.1,0.4-0.1l0.4,0.4c0.1,0.1,0.1,0.3,0,0.4l-0.1,0.1l0.3,0.2l22.7-25.2l-0.3-0.3c0,0,0,0.1-0.1,0.1l-0.2,0.2
		c-0.1,0.1-0.3,0.1-0.4,0.1l-0.4-0.4c-0.1-0.1-0.1-0.3,0-0.4l0.2-0.2c0,0,0.1-0.1,0.1-0.1l-3.9-3.5c0,0,0,0.1-0.1,0.1l-0.2,0.2
		c-0.1,0.1-0.3,0.1-0.4,0.1l-0.4-0.4c-0.1-0.1-0.1-0.3,0-0.4l0.2-0.2c0,0,0.1-0.1,0.1-0.1l-0.3-0.3L4.8,30.5L5.1,30.8z M26.4,7.5
		c-0.1-0.1-0.1-0.3,0-0.4l0.2-0.2c0.1-0.1,0.3-0.1,0.4-0.1l0.4,0.4c0.1,0.1,0.1,0.3,0,0.4l-0.2,0.2C27,7.9,26.9,8,26.8,7.9L26.4,7.5
		z M31,11.7c-0.1-0.1-0.1-0.3,0-0.4l0.2-0.2c0.1-0.1,0.3-0.1,0.4-0.1l0.4,0.4c0.1,0.1,0.1,0.3,0,0.4L31.8,12
		c-0.1,0.1-0.3,0.1-0.4,0.1L31,11.7z M25.3,8.7c-0.1-0.1-0.1-0.3,0-0.4l0.2-0.2C25.6,8,25.8,7.9,25.9,8l0.4,0.4
		c0.1,0.1,0.1,0.3,0,0.4L26.1,9c-0.1,0.1-0.3,0.1-0.4,0.1L25.3,8.7z M29.9,12.9c-0.1-0.1-0.1-0.3,0-0.4l0.2-0.2
		c0.1-0.1,0.3-0.1,0.4-0.1l0.4,0.4c0.1,0.1,0.1,0.3,0,0.4l-0.2,0.2c-0.1,0.1-0.3,0.1-0.4,0.1L29.9,12.9z M24.2,9.9
		c-0.1-0.1-0.1-0.3,0-0.4l0.2-0.2c0.1-0.1,0.3-0.1,0.4-0.1l0.4,0.4c0.1,0.1,0.1,0.3,0,0.4L25,10.2c-0.1,0.1-0.3,0.1-0.4,0.1
		L24.2,9.9z M28.8,14.1c-0.1-0.1-0.1-0.3,0-0.4l0.2-0.2c0.1-0.1,0.3-0.1,0.4-0.1l0.4,0.4c0.1,0.1,0.1,0.3,0,0.4l-0.2,0.2
		c-0.1,0.1-0.3,0.1-0.4,0.1L28.8,14.1z M23.1,11.1c-0.1-0.1-0.1-0.3,0-0.4l0.2-0.2c0.1-0.1,0.3-0.1,0.4-0.1l0.4,0.4
		c0.1,0.1,0.1,0.3,0,0.4l-0.2,0.2c-0.1,0.1-0.3,0.1-0.4,0.1L23.1,11.1z M27.8,15.3c-0.1-0.1-0.1-0.3,0-0.4l0.2-0.2
		c0.1-0.1,0.3-0.1,0.4-0.1l0.4,0.4c0.1,0.1,0.1,0.3,0,0.4l-0.2,0.2c-0.1,0.1-0.3,0.1-0.4,0.1L27.8,15.3z M22.1,12.3
		c-0.1-0.1-0.1-0.3,0-0.4l0.2-0.2c0.1-0.1,0.3-0.1,0.4-0.1l0.4,0.4c0.1,0.1,0.1,0.3,0,0.4l-0.2,0.2c-0.1,0.1-0.3,0.2-0.4,0.1
		L22.1,12.3z M26.7,16.4c-0.1-0.1-0.1-0.3,0-0.4l0.2-0.2c0.1-0.1,0.3-0.1,0.4-0.1l0.4,0.4c0.1,0.1,0.1,0.3,0,0.4l-0.2,0.2
		c-0.1,0.1-0.3,0.1-0.4,0.1L26.7,16.4z M21,13.5c-0.1-0.1-0.1-0.3,0-0.4l0.2-0.2c0.1-0.1,0.3-0.1,0.4-0.1l0.4,0.4
		c0.1,0.1,0.1,0.3,0,0.4l-0.2,0.2c-0.1,0.1-0.3,0.1-0.4,0.1L21,13.5z M25.6,17.6c-0.1-0.1-0.1-0.3,0-0.4l0.2-0.2
		c0.1-0.1,0.3-0.1,0.4-0.1l0.4,0.4c0.1,0.1,0.1,0.3,0,0.4l-0.2,0.2c-0.1,0.1-0.3,0.1-0.4,0.1L25.6,17.6z M19.9,14.7
		c-0.1-0.1-0.1-0.3,0-0.4l0.2-0.2c0.1-0.1,0.3-0.1,0.4-0.1l0.4,0.4c0.1,0.1,0.1,0.3,0,0.4L20.7,15c-0.1,0.1-0.3,0.1-0.4,0.1
		L19.9,14.7z M24.6,18.8c-0.1-0.1-0.1-0.3,0-0.4l0.2-0.2c0.1-0.1,0.3-0.1,0.4-0.1l0.4,0.4c0.1,0.1,0.1,0.3,0,0.4l-0.2,0.2
		c-0.1,0.1-0.3,0.1-0.4,0.1L24.6,18.8z M18.9,15.9c-0.1-0.1-0.1-0.3,0-0.4l0.2-0.2c0.1-0.1,0.3-0.1,0.4-0.1l0.4,0.4
		c0.1,0.1,0.1,0.3,0,0.4l-0.2,0.2c-0.1,0.1-0.3,0.1-0.4,0.1L18.9,15.9z M23.5,20c-0.1-0.1-0.1-0.3,0-0.4l0.2-0.2
		c0.1-0.1,0.3-0.1,0.4-0.1l0.4,0.4c0.1,0.1,0.1,0.3,0,0.4l-0.2,0.2c-0.1,0.1-0.3,0.1-0.4,0.1L23.5,20z M17.8,17
		c-0.1-0.1-0.1-0.3,0-0.4l0.2-0.2c0.1-0.1,0.3-0.1,0.4-0.1l0.4,0.4c0.1,0.1,0.1,0.3,0,0.4l-0.2,0.2c-0.1,0.1-0.3,0.1-0.4,0.1
		L17.8,17z M22.4,21.2c-0.1-0.1-0.1-0.3,0-0.4l0.2-0.2c0.1-0.1,0.3-0.1,0.4-0.1l0.4,0.4c0.1,0.1,0.1,0.3,0,0.4l-0.2,0.2
		c-0.1,0.1-0.3,0.1-0.4,0.1L22.4,21.2z M16.7,18.2c-0.1-0.1-0.1-0.3,0-0.4l0.2-0.2c0.1-0.1,0.3-0.1,0.4-0.1l0.4,0.4
		c0.1,0.1,0.1,0.3,0,0.4l-0.2,0.2c-0.1,0.1-0.3,0.1-0.4,0.1L16.7,18.2z M21.3,22.4c-0.1-0.1-0.1-0.3,0-0.4l0.2-0.2
		c0.1-0.1,0.3-0.1,0.4-0.1l0.4,0.4c0.1,0.1,0.1,0.3,0,0.4l-0.2,0.2c-0.1,0.1-0.3,0.1-0.4,0.1L21.3,22.4z M15.6,19.4
		c-0.1-0.1-0.1-0.3,0-0.4l0.2-0.2c0.1-0.1,0.3-0.1,0.4-0.1l0.4,0.4c0.1,0.1,0.1,0.3,0,0.4l-0.2,0.2c-0.1,0.1-0.3,0.1-0.4,0.1
		L15.6,19.4z M20.3,23.6c-0.1-0.1-0.1-0.3,0-0.4l0.2-0.2c0.1-0.1,0.3-0.1,0.4-0.1l0.4,0.4c0.1,0.1,0.1,0.3,0,0.4L21,23.9
		c-0.1,0.1-0.3,0.1-0.4,0.1L20.3,23.6z M14.6,20.6c-0.1-0.1-0.1-0.3,0-0.4l0.2-0.2c0.1-0.1,0.3-0.1,0.4-0.1l0.4,0.4
		c0.1,0.1,0.1,0.3,0,0.4l-0.2,0.2C15.2,21,15.1,21.1,15,21L14.6,20.6z M19.2,24.8c-0.1-0.1-0.1-0.3,0-0.4l0.2-0.2
		c0.1-0.1,0.3-0.1,0.4-0.1l0.4,0.4c0.1,0.1,0.1,0.3,0,0.4L20,25.1c-0.1,0.1-0.3,0.1-0.4,0.1L19.2,24.8z M13.5,21.8
		c-0.1-0.1-0.1-0.3,0-0.4l0.2-0.2c0.1-0.1,0.3-0.1,0.4-0.1l0.4,0.4c0.1,0.1,0.1,0.3,0,0.4l-0.2,0.2c-0.1,0.1-0.3,0.1-0.4,0.1
		L13.5,21.8z M18.1,26c-0.1-0.1-0.1-0.3,0-0.4l0.2-0.2c0.1-0.1,0.3-0.1,0.4-0.1l0.4,0.4c0.1,0.1,0.1,0.3,0,0.4l-0.2,0.2
		c-0.1,0.1-0.3,0.1-0.4,0.1L18.1,26z M12.4,23c-0.1-0.1-0.1-0.3,0-0.4l0.2-0.2c0.1-0.1,0.3-0.1,0.4-0.1l0.4,0.4
		c0.1,0.1,0.1,0.3,0,0.4l-0.2,0.2c-0.1,0.1-0.3,0.1-0.4,0.1L12.4,23z M17.1,27.2c-0.1-0.1-0.1-0.3,0-0.4l0.2-0.2
		c0.1-0.1,0.3-0.1,0.4-0.1l0.4,0.4c0.1,0.1,0.1,0.3,0,0.4l-0.2,0.2c-0.1,0.1-0.3,0.1-0.4,0.1L17.1,27.2z M11.3,24.2
		c-0.1-0.1-0.1-0.3,0-0.4l0.2-0.2c0.1-0.1,0.3-0.1,0.4-0.1l0.4,0.4c0.1,0.1,0.1,0.3,0,0.4l-0.2,0.2c-0.1,0.1-0.3,0.1-0.4,0.1
		L11.3,24.2z M16,28.4c-0.1-0.1-0.1-0.3,0-0.4l0.2-0.2c0.1-0.1,0.3-0.1,0.4-0.1L17,28c0.1,0.1,0.1,0.3,0,0.4l-0.2,0.2
		c-0.1,0.1-0.3,0.1-0.4,0.1L16,28.4z M10.3,25.4c-0.1-0.1-0.1-0.3,0-0.4l0.2-0.2c0.1-0.1,0.3-0.1,0.4-0.1l0.4,0.4
		c0.1,0.1,0.1,0.3,0,0.4L11,25.7c-0.1,0.1-0.3,0.1-0.4,0.1L10.3,25.4z M14.9,29.5c-0.1-0.1-0.1-0.3,0-0.4l0.2-0.2
		c0.1-0.1,0.3-0.1,0.4-0.1l0.4,0.4c0.1,0.1,0.1,0.3,0,0.4l-0.2,0.2c-0.1,0.1-0.3,0.1-0.4,0.1L14.9,29.5z M9.2,26.6
		c-0.1-0.1-0.1-0.3,0-0.4L9.4,26c0.1-0.1,0.3-0.1,0.4-0.1l0.4,0.4c0.1,0.1,0.1,0.3,0,0.4L10,26.9C9.9,27,9.7,27,9.6,26.9L9.2,26.6z
		 M13.8,30.7c-0.1-0.1-0.1-0.3,0-0.4l0.2-0.2c0.1-0.1,0.3-0.1,0.4-0.1l0.4,0.4c0.1,0.1,0.1,0.3,0,0.4L14.6,31
		c-0.1,0.1-0.3,0.1-0.4,0.1L13.8,30.7z M8.1,27.8c-0.1-0.1-0.1-0.3,0-0.4l0.2-0.2C8.5,27,8.6,27,8.7,27.1l0.4,0.4
		c0.1,0.1,0.1,0.3,0,0.4l-0.2,0.2c-0.1,0.1-0.3,0.1-0.4,0.1L8.1,27.8z M12.8,31.9c-0.1-0.1-0.1-0.3,0-0.4l0.2-0.2
		c0.1-0.1,0.3-0.1,0.4-0.1l0.4,0.4c0.1,0.1,0.1,0.3,0,0.4l-0.2,0.2c-0.1,0.1-0.3,0.1-0.4,0.1L12.8,31.9z M7.1,29
		c-0.1-0.1-0.1-0.3,0-0.4l0.2-0.2c0.1-0.1,0.3-0.1,0.4-0.1l0.4,0.4c0.1,0.1,0.1,0.3,0,0.4l-0.2,0.2c-0.1,0.1-0.3,0.1-0.4,0.1L7.1,29
		z M11.7,33.1c-0.1-0.1-0.1-0.3,0-0.4l0.2-0.2c0.1-0.1,0.3-0.1,0.4-0.1l0.4,0.4c0.1,0.1,0.1,0.3,0,0.4l-0.2,0.2
		c-0.1,0.1-0.3,0.1-0.4,0.1L11.7,33.1z M6,30.1c-0.1-0.1-0.1-0.3,0-0.4l0.2-0.2c0.1-0.1,0.3-0.1,0.4-0.1L7,29.8
		c0.1,0.1,0.1,0.3,0,0.4l-0.2,0.2c-0.1,0.1-0.3,0.1-0.4,0.1L6,30.1z M10.6,34.3c-0.1-0.1-0.1-0.3,0-0.4l0.2-0.2
		c0.1-0.1,0.3-0.1,0.4-0.1l0.4,0.4c0.1,0.1,0.1,0.3,0,0.4l-0.2,0.2c-0.1,0.1-0.3,0.1-0.4,0.1L10.6,34.3z"/>
	<linearGradient id="SVGID_2_" gradientUnits="userSpaceOnUse" x1="22.4439" y1="50.4172" x2="45.2006" y2="50.4172">
		<stop  offset="0" style="stop-color:#9B2270"/>
		<stop  offset="0.2004" style="stop-color:#B02C6F"/>
		<stop  offset="0.4988" style="stop-color:#C8376F"/>
		<stop  offset="0.7735" style="stop-color:#D73F6E"/>
		<stop  offset="1" style="stop-color:#DC416E"/>
	</linearGradient>
	<path class="st2" d="M44.8,43.2C44.8,43.2,44.7,43.2,44.8,43.2L44.5,43L39,38.5L22.4,57l0.3,0.2l0.1-0.1c0.1-0.1,0.3-0.1,0.4-0.1
		l0.4,0.4c0.1,0.1,0.1,0.3,0,0.4l-0.1,0.1l3.9,3.5l0.1-0.1c0.1-0.1,0.3-0.1,0.4-0.1l0.4,0.4c0.1,0.1,0.1,0.3,0,0.4L28.1,62l0.3,0.2
		l16.8-18.7L44.8,43.2z M24.4,56.9C24.3,57,24.1,57,24,56.9l-0.4-0.4c-0.1-0.1-0.1-0.3,0-0.4l0.2-0.2c0.1-0.1,0.3-0.1,0.4-0.1
		l0.4,0.4c0.1,0.1,0.1,0.3,0,0.4L24.4,56.9z M25.5,55.7c-0.1,0.1-0.3,0.1-0.4,0.1l-0.4-0.4c-0.1-0.1-0.1-0.3,0-0.4l0.2-0.2
		c0.1-0.1,0.3-0.1,0.4-0.1l0.4,0.4c0.1,0.1,0.1,0.3,0,0.4L25.5,55.7z M26.5,54.5c-0.1,0.1-0.3,0.1-0.4,0.1l-0.4-0.4
		c-0.1-0.1-0.1-0.3,0-0.4l0.2-0.2c0.1-0.1,0.3-0.1,0.4-0.1l0.4,0.4c0.1,0.1,0.1,0.3,0,0.4L26.5,54.5z M27.6,53.3
		c-0.1,0.1-0.3,0.1-0.4,0.1L26.8,53c-0.1-0.1-0.1-0.3,0-0.4l0.2-0.2c0.1-0.1,0.3-0.1,0.4-0.1l0.4,0.4c0.1,0.1,0.1,0.3,0,0.4
		L27.6,53.3z M28.7,52.1c-0.1,0.1-0.3,0.1-0.4,0.1l-0.4-0.4c-0.1-0.1-0.1-0.3,0-0.4l0.2-0.2c0.1-0.1,0.3-0.1,0.4-0.1l0.4,0.4
		c0.1,0.1,0.1,0.3,0,0.4L28.7,52.1z M29.8,50.9C29.6,51,29.5,51,29.4,51L29,50.6c-0.1-0.1-0.1-0.3,0-0.4l0.2-0.2
		c0.1-0.1,0.3-0.1,0.4-0.1l0.4,0.4c0.1,0.1,0.1,0.3,0,0.4L29.8,50.9z M30.8,49.7c-0.1,0.1-0.3,0.2-0.4,0.1l-0.4-0.4
		c-0.1-0.1-0.1-0.3,0-0.4l0.2-0.2c0.1-0.1,0.3-0.1,0.4-0.1l0.4,0.4c0.1,0.1,0.1,0.3,0,0.4L30.8,49.7z M31.9,48.5
		c-0.1,0.1-0.3,0.1-0.4,0.1l-0.4-0.4c-0.1-0.1-0.1-0.3,0-0.4l0.2-0.2c0.1-0.1,0.3-0.1,0.4-0.1l0.4,0.4c0.1,0.1,0.1,0.3,0,0.4
		L31.9,48.5z M33,47.3c-0.1,0.1-0.3,0.1-0.4,0.1L32.2,47c-0.1-0.1-0.1-0.3,0-0.4l0.2-0.2c0.1-0.1,0.3-0.1,0.4-0.1l0.4,0.4
		c0.1,0.1,0.1,0.3,0,0.4L33,47.3z M34,46.1c-0.1,0.1-0.3,0.1-0.4,0.1l-0.4-0.4c-0.1-0.1-0.1-0.3,0-0.4l0.2-0.2
		c0.1-0.1,0.3-0.1,0.4-0.1l0.4,0.4c0.1,0.1,0.1,0.3,0,0.4L34,46.1z M35.1,44.9c-0.1,0.1-0.3,0.1-0.4,0.1l-0.4-0.4
		c-0.1-0.1-0.1-0.3,0-0.4l0.2-0.2c0.1-0.1,0.3-0.1,0.4-0.1l0.4,0.4c0.1,0.1,0.1,0.3,0,0.4L35.1,44.9z M36.2,43.8
		c-0.1,0.1-0.3,0.1-0.4,0.1l-0.4-0.4c-0.1-0.1-0.1-0.3,0-0.4l0.2-0.2c0.1-0.1,0.3-0.1,0.4-0.1l0.4,0.4c0.1,0.1,0.1,0.3,0,0.4
		L36.2,43.8z M37.3,42.6c-0.1,0.1-0.3,0.1-0.4,0.1l-0.4-0.4c-0.1-0.1-0.1-0.3,0-0.4l0.2-0.2c0.1-0.1,0.3-0.1,0.4-0.1l0.4,0.4
		c0.1,0.1,0.1,0.3,0,0.4L37.3,42.6z M38.3,41.4c-0.1,0.1-0.3,0.1-0.4,0.1l-0.4-0.4c-0.1-0.1-0.1-0.3,0-0.4l0.2-0.2
		c0.1-0.1,0.3-0.1,0.4-0.1l0.4,0.4c0.1,0.1,0.1,0.3,0,0.4L38.3,41.4z M39.4,40.2c-0.1,0.1-0.3,0.1-0.4,0.1l-0.4-0.4
		c-0.1-0.1-0.1-0.3,0-0.4l0.2-0.2c0.1-0.1,0.3-0.1,0.4-0.1l0.4,0.4c0.1,0.1,0.1,0.3,0,0.4L39.4,40.2z M29,61
		c-0.1,0.1-0.3,0.1-0.4,0.1l-0.4-0.4c-0.1-0.1-0.1-0.3,0-0.4l0.2-0.2c0.1-0.1,0.3-0.1,0.4-0.1l0.4,0.4c0.1,0.1,0.1,0.3,0,0.4L29,61z
		 M30.1,59.8C30,60,29.8,60,29.7,59.9l-0.4-0.4c-0.1-0.1-0.1-0.3,0-0.4l0.2-0.2c0.1-0.1,0.3-0.1,0.4-0.1l0.4,0.4
		c0.1,0.1,0.1,0.3,0,0.4L30.1,59.8z M31.2,58.6c-0.1,0.1-0.3,0.1-0.4,0.1l-0.4-0.4c-0.1-0.1-0.1-0.3,0-0.4l0.2-0.2
		c0.1-0.1,0.3-0.1,0.4-0.1l0.4,0.4c0.1,0.1,0.1,0.3,0,0.4L31.2,58.6z M32.2,57.4c-0.1,0.1-0.3,0.1-0.4,0.1l-0.4-0.4
		c-0.1-0.1-0.1-0.3,0-0.4l0.2-0.2c0.1-0.1,0.3-0.1,0.4-0.1l0.4,0.4c0.1,0.1,0.1,0.3,0,0.4L32.2,57.4z M33.3,56.3
		c-0.1,0.1-0.3,0.1-0.4,0.1L32.5,56c-0.1-0.1-0.1-0.3,0-0.4l0.2-0.2c0.1-0.1,0.3-0.1,0.4-0.1l0.4,0.4c0.1,0.1,0.1,0.3,0,0.4
		L33.3,56.3z M34.4,55.1c-0.1,0.1-0.3,0.1-0.4,0.1l-0.4-0.4c-0.1-0.1-0.1-0.3,0-0.4l0.2-0.2c0.1-0.1,0.3-0.1,0.4-0.1l0.4,0.4
		c0.1,0.1,0.1,0.3,0,0.4L34.4,55.1z M35.5,53.9c-0.1,0.1-0.3,0.1-0.4,0.1l-0.4-0.4c-0.1-0.1-0.1-0.3,0-0.4l0.2-0.2
		c0.1-0.1,0.3-0.1,0.4-0.1l0.4,0.4c0.1,0.1,0.1,0.3,0,0.4L35.5,53.9z M36.5,52.7c-0.1,0.1-0.3,0.1-0.4,0.1l-0.4-0.4
		c-0.1-0.1-0.1-0.3,0-0.4l0.2-0.2c0.1-0.1,0.3-0.1,0.4-0.1l0.4,0.4c0.1,0.1,0.1,0.3,0,0.4L36.5,52.7z M37.6,51.5
		c-0.1,0.1-0.3,0.1-0.4,0.1l-0.4-0.4c-0.1-0.1-0.1-0.3,0-0.4l0.2-0.2c0.1-0.1,0.3-0.1,0.4-0.1l0.4,0.4c0.1,0.1,0.1,0.3,0,0.4
		L37.6,51.5z M38.7,50.3c-0.1,0.1-0.3,0.1-0.4,0.1L37.9,50c-0.1-0.1-0.1-0.3,0-0.4l0.2-0.2c0.1-0.1,0.3-0.1,0.4-0.1l0.4,0.4
		c0.1,0.1,0.1,0.3,0,0.4L38.7,50.3z M39.7,49.1c-0.1,0.1-0.3,0.1-0.4,0.1L39,48.8c-0.1-0.1-0.1-0.3,0-0.4l0.2-0.2
		c0.1-0.1,0.3-0.1,0.4-0.1l0.4,0.4c0.1,0.1,0.1,0.3,0,0.4L39.7,49.1z M40.8,47.9c-0.1,0.1-0.3,0.1-0.4,0.1L40,47.6
		c-0.1-0.1-0.1-0.3,0-0.4l0.2-0.2c0.1-0.1,0.3-0.1,0.4-0.1l0.4,0.4c0.1,0.1,0.1,0.3,0,0.4L40.8,47.9z M41.9,46.7
		c-0.1,0.1-0.3,0.1-0.4,0.1l-0.4-0.4c-0.1-0.1-0.1-0.3,0-0.4l0.2-0.2c0.1-0.1,0.3-0.1,0.4-0.1l0.4,0.4c0.1,0.1,0.1,0.3,0,0.4
		L41.9,46.7z M43,45.5c-0.1,0.1-0.3,0.1-0.4,0.1l-0.4-0.4c-0.1-0.1-0.1-0.3,0-0.4l0.2-0.2c0.1-0.1,0.3-0.1,0.4-0.1l0.4,0.4
		c0.1,0.1,0.1,0.3,0,0.4L43,45.5z M43.7,44.4l-0.4-0.4c-0.1-0.1-0.1-0.3,0-0.4l0.2-0.2c0.1-0.1,0.3-0.1,0.4-0.1l0.4,0.4
		c0.1,0.1,0.1,0.3,0,0.4L44,44.3C43.9,44.5,43.8,44.5,43.7,44.4z"/>
	
		<linearGradient id="SVGID_3_" gradientUnits="userSpaceOnUse" x1="196.7285" y1="793.811" x2="220.095" y2="793.811" gradientTransform="matrix(0.3245 0.9459 -0.9459 0.3245 693.254 -422.4931)">
		<stop  offset="0" style="stop-color:#E6F5FC"/>
		<stop  offset="0.3483" style="stop-color:#9FD9F2"/>
		<stop  offset="0.796" style="stop-color:#48B7E5"/>
		<stop  offset="1" style="stop-color:#26A9E0"/>
	</linearGradient>
	<path class="st3" d="M20.3,31.8L16,26.7l0,0c-0.1,0.1-0.3,0.1-0.4,0.1l-0.4-0.4c-0.1-0.1-0.1-0.3,0-0.4l0.1-0.1l-0.2-0.3L2.3,39.9
		l0.3,0.2l0.1-0.1C2.7,39.9,2.9,39.9,3,40l0.4,0.4c0.1,0.1,0.1,0.3,0,0.4l-0.1,0.1l3.9,3.5l0.1-0.1c0.1-0.1,0.3-0.1,0.4-0.1L8,44.5
		c0.1,0.1,0.1,0.3,0,0.4L7.9,45l0.3,0.2L20.3,31.8z M14.2,27.2l0.2-0.2c0.1-0.1,0.3-0.1,0.4-0.1l0.4,0.4c0.1,0.1,0.1,0.3,0,0.4
		l-0.2,0.2C14.8,28,14.7,28,14.6,28l-0.4-0.4C14.1,27.5,14.1,27.3,14.2,27.2z M13.1,28.4l0.2-0.2c0.1-0.1,0.3-0.1,0.4-0.1l0.4,0.4
		c0.1,0.1,0.1,0.3,0,0.4l-0.2,0.2c-0.1,0.1-0.3,0.1-0.4,0.1l-0.4-0.4C13,28.7,13,28.5,13.1,28.4z M12,29.6l0.2-0.2
		c0.1-0.1,0.3-0.1,0.4-0.1l0.4,0.4c0.1,0.1,0.1,0.3,0,0.4l-0.2,0.2c-0.1,0.1-0.3,0.1-0.4,0.1L12,30C11.9,29.9,11.9,29.7,12,29.6z
		 M11,30.8l0.2-0.2c0.1-0.1,0.3-0.1,0.4-0.1l0.4,0.4c0.1,0.1,0.1,0.3,0,0.4l-0.2,0.2c-0.1,0.1-0.3,0.1-0.4,0.1L11,31.2
		C10.9,31.1,10.9,30.9,11,30.8z M9.9,32l0.2-0.2c0.1-0.1,0.3-0.1,0.4-0.1l0.4,0.4c0.1,0.1,0.1,0.3,0,0.4l-0.2,0.2
		c-0.1,0.1-0.3,0.1-0.4,0.1l-0.4-0.4C9.8,32.3,9.8,32.1,9.9,32z M8.8,33.2L9,32.9c0.1-0.1,0.3-0.1,0.4-0.1l0.4,0.4
		c0.1,0.1,0.1,0.3,0,0.4l-0.2,0.2C9.5,34,9.3,34,9.2,33.9l-0.4-0.4C8.7,33.5,8.7,33.3,8.8,33.2z M7.7,34.3L8,34.1
		C8.1,34,8.2,34,8.3,34.1l0.4,0.4c0.1,0.1,0.1,0.3,0,0.4L8.5,35c-0.1,0.1-0.3,0.1-0.4,0.1l-0.4-0.4C7.6,34.6,7.6,34.5,7.7,34.3z
		 M6.7,35.5l0.2-0.2c0.1-0.1,0.3-0.1,0.4-0.1l0.4,0.4c0.1,0.1,0.1,0.3,0,0.4l-0.2,0.2c-0.1,0.1-0.3,0.1-0.4,0.1l-0.4-0.4
		C6.6,35.8,6.6,35.7,6.7,35.5z M5.6,36.7l0.2-0.2c0.1-0.1,0.3-0.1,0.4-0.1l0.4,0.4c0.1,0.1,0.1,0.3,0,0.4l-0.2,0.2
		c-0.1,0.1-0.3,0.1-0.4,0.1l-0.4-0.4C5.5,37,5.5,36.8,5.6,36.7z M4.5,37.9l0.2-0.2c0.1-0.1,0.3-0.1,0.4-0.1L5.5,38
		c0.1,0.1,0.1,0.3,0,0.4l-0.2,0.2c-0.1,0.1-0.3,0.1-0.4,0.1l-0.4-0.4C4.4,38.2,4.4,38,4.5,37.9z M3.8,39.8l-0.4-0.4
		c-0.1-0.1-0.1-0.3,0-0.4l0.2-0.2c0.1-0.1,0.3-0.1,0.4-0.1l0.4,0.4c0.1,0.1,0.1,0.3,0,0.4l-0.2,0.2C4.1,39.9,3.9,39.9,3.8,39.8z
		 M18.8,31.4l0.2-0.2c0.1-0.1,0.3-0.1,0.4-0.1l0.4,0.4c0.1,0.1,0.1,0.3,0,0.4l-0.2,0.2c-0.1,0.1-0.3,0.1-0.4,0.1l-0.4-0.4
		C18.7,31.7,18.7,31.5,18.8,31.4z M17.7,32.6l0.2-0.2c0.1-0.1,0.3-0.1,0.4-0.1l0.4,0.4c0.1,0.1,0.1,0.3,0,0.4l-0.2,0.2
		c-0.1,0.1-0.3,0.1-0.4,0.1L17.7,33C17.6,32.9,17.6,32.7,17.7,32.6z M16.7,33.8l0.2-0.2c0.1-0.1,0.3-0.1,0.4-0.1l0.4,0.4
		c0.1,0.1,0.1,0.3,0,0.4l-0.2,0.2c-0.1,0.1-0.3,0.1-0.4,0.1l-0.4-0.4C16.5,34.1,16.6,33.9,16.7,33.8z M15.6,35l0.2-0.2
		c0.1-0.1,0.3-0.1,0.4-0.1l0.4,0.4c0.1,0.1,0.1,0.3,0,0.4l-0.2,0.2c-0.1,0.1-0.3,0.1-0.4,0.1l-0.4-0.4C15.5,35.3,15.5,35.1,15.6,35z
		 M14.5,36.1l0.2-0.2c0.1-0.1,0.3-0.1,0.4-0.1l0.4,0.4c0.1,0.1,0.1,0.3,0,0.4l-0.2,0.2c-0.1,0.1-0.3,0.1-0.4,0.1l-0.4-0.4
		C14.4,36.4,14.4,36.3,14.5,36.1z M13.4,37.3l0.2-0.2C13.8,37,13.9,37,14,37l0.4,0.4c0.1,0.1,0.1,0.3,0,0.4L14.2,38
		c-0.1,0.1-0.3,0.1-0.4,0.1l-0.4-0.4C13.3,37.6,13.3,37.5,13.4,37.3z M12.4,38.5l0.2-0.2c0.1-0.1,0.3-0.1,0.4-0.1l0.4,0.4
		c0.1,0.1,0.1,0.3,0,0.4l-0.2,0.2c-0.1,0.1-0.3,0.1-0.4,0.1l-0.4-0.4C12.2,38.8,12.3,38.6,12.4,38.5z M11.3,39.7l0.2-0.2
		c0.1-0.1,0.3-0.1,0.4-0.1l0.4,0.4c0.1,0.1,0.1,0.3,0,0.4L12,40.4c-0.1,0.1-0.3,0.1-0.4,0.1l-0.4-0.4C11.2,40,11.2,39.8,11.3,39.7z
		 M10.2,40.9l0.2-0.2c0.1-0.1,0.3-0.1,0.4-0.1l0.4,0.4c0.1,0.1,0.1,0.3,0,0.4L11,41.6c-0.1,0.1-0.3,0.1-0.4,0.1l-0.4-0.4
		C10.1,41.2,10.1,41,10.2,40.9z M9.1,42.1l0.2-0.2c0.1-0.1,0.3-0.1,0.4-0.1l0.4,0.4c0.1,0.1,0.1,0.3,0,0.4l-0.2,0.2
		c-0.1,0.1-0.3,0.1-0.4,0.1l-0.4-0.4C9,42.4,9,42.2,9.1,42.1z M8.4,44L8,43.7c-0.1-0.1-0.1-0.3,0-0.4L8.3,43
		c0.1-0.1,0.3-0.1,0.4-0.1l0.4,0.4c0.1,0.1,0.1,0.3,0,0.4L8.8,44C8.7,44.1,8.5,44.1,8.4,44z"/>
	
		<linearGradient id="SVGID_4_" gradientUnits="userSpaceOnUse" x1="71.2426" y1="615.4761" x2="62.4728" y2="582.6245" gradientTransform="matrix(0.637 0.7709 -0.7709 0.637 444.5999 -395.3843)">
		<stop  offset="0" style="stop-color:#F69024"/>
		<stop  offset="0.2381" style="stop-color:#F47829"/>
		<stop  offset="0.7368" style="stop-color:#EF3C36"/>
		<stop  offset="1" style="stop-color:#EC1A3D"/>
	</linearGradient>
	<path class="st4" d="M11.6,47.1L11.6,47.1c0.2-0.2,0.3-0.2,0.4-0.1l0.4,0.4c0.1,0.1,0.1,0.3,0,0.4l-0.1,0.1l3.8,3.6l0.1-0.1
		c0.1-0.1,0.3-0.1,0.4-0.1l0.4,0.4c0.1,0.1,0.1,0.3,0,0.4L16.9,52l0.3,0.2l23.1-24.8L40,27.2c0,0,0,0.1-0.1,0.1l-0.2,0.2
		c-0.1,0.1-0.3,0.1-0.4,0l-0.4-0.4c-0.1-0.1-0.1-0.3,0-0.4l0.2-0.2c0,0,0.1-0.1,0.1-0.1l-3.9-3.6c0,0,0,0.1-0.1,0.1l-0.2,0.2
		c-0.1,0.1-0.3,0.1-0.4,0.1L34.4,23c-0.1-0.1-0.1-0.3,0-0.4l0.2-0.2c0,0,0.1-0.1,0.1-0.1L34.5,22L11.4,46.8L11.6,47.1z M33.3,24.2
		c-0.1-0.1-0.1-0.3,0-0.4l0.2-0.2c0.1-0.1,0.3-0.1,0.4-0.1l0.4,0.4c0.1,0.1,0.1,0.3,0,0.4l-0.2,0.2c-0.1,0.1-0.3,0.1-0.4,0.1
		L33.3,24.2z M37.9,28.4c-0.1-0.1-0.1-0.3,0-0.4l0.2-0.2c0.1-0.1,0.3-0.1,0.4-0.1l0.4,0.4c0.1,0.1,0.1,0.3,0,0.4l-0.2,0.2
		c-0.1,0.1-0.3,0.1-0.4,0L37.9,28.4z M32.2,25.3c-0.1-0.1-0.1-0.3,0-0.4l0.2-0.2c0.1-0.1,0.3-0.1,0.4,0l0.4,0.4
		c0.1,0.1,0.1,0.3,0,0.4L33,25.6c-0.1,0.1-0.3,0.1-0.4,0.1L32.2,25.3z M36.8,29.6c-0.1-0.1-0.1-0.3,0-0.4L37,29
		c0.1-0.1,0.3-0.1,0.4-0.1l0.4,0.4c0.1,0.1,0.1,0.3,0,0.4l-0.2,0.2c-0.1,0.1-0.3,0.1-0.4,0.1L36.8,29.6z M31.1,26.5
		c-0.1-0.1-0.1-0.3,0-0.4l0.2-0.2c0.1-0.1,0.3-0.1,0.4-0.1l0.4,0.4c0.1,0.1,0.1,0.3,0,0.4l-0.2,0.2c-0.1,0.1-0.3,0.1-0.4,0.1
		L31.1,26.5z M35.7,30.7c-0.1-0.1-0.1-0.3,0-0.4l0.2-0.2c0.1-0.1,0.3-0.1,0.4-0.1l0.4,0.4c0.1,0.1,0.1,0.3,0,0.4l-0.2,0.2
		c-0.1,0.1-0.3,0.1-0.4,0.1L35.7,30.7z M30,27.7c-0.1-0.1-0.1-0.3,0-0.4l0.2-0.2c0.1-0.1,0.3-0.1,0.4-0.1l0.4,0.4
		c0.1,0.1,0.1,0.3,0,0.4L30.8,28c-0.1,0.1-0.3,0.1-0.4,0.1L30,27.7z M34.6,31.9c-0.1-0.1-0.1-0.3,0-0.4l0.2-0.2
		c0.1-0.1,0.3-0.1,0.4-0.1l0.4,0.4c0.1,0.1,0.1,0.3,0,0.4l-0.2,0.2c-0.1,0.1-0.3,0.1-0.4,0.1L34.6,31.9z M28.9,28.8
		c-0.1-0.1-0.1-0.3,0-0.4l0.2-0.2c0.1-0.1,0.3-0.1,0.4-0.1l0.4,0.4c0.1,0.1,0.1,0.3,0,0.4l-0.2,0.2c-0.1,0.1-0.3,0.1-0.4,0.1
		L28.9,28.8z M33.5,33.1c-0.1-0.1-0.1-0.3,0-0.4l0.2-0.2c0.1-0.1,0.3-0.1,0.4-0.1l0.4,0.4c0.1,0.1,0.1,0.3,0,0.4l-0.2,0.2
		c-0.1,0.1-0.3,0.1-0.4,0.1L33.5,33.1z M27.8,30c-0.1-0.1-0.1-0.3,0-0.4l0.2-0.2c0.1-0.1,0.3-0.1,0.4-0.1l0.4,0.4
		c0.1,0.1,0.1,0.3,0,0.4l-0.2,0.2c-0.1,0.1-0.3,0.1-0.4,0.1L27.8,30z M32.4,34.3c-0.1-0.1-0.1-0.3,0-0.4l0.2-0.2
		c0.1-0.1,0.3-0.1,0.4-0.1l0.4,0.4c0.1,0.1,0.1,0.3,0,0.4l-0.2,0.2c-0.1,0.1-0.3,0.1-0.4,0.1L32.4,34.3z M26.7,31.2
		c-0.1-0.1-0.1-0.3,0-0.4l0.2-0.2c0.1-0.1,0.3-0.1,0.4-0.1l0.4,0.4c0.1,0.1,0.1,0.3,0,0.4l-0.2,0.2c-0.1,0.1-0.3,0.1-0.4,0.1
		L26.7,31.2z M31.3,35.4c-0.1-0.1-0.1-0.3,0-0.4l0.2-0.2c0.1-0.1,0.3-0.1,0.4-0.1l0.4,0.4c0.1,0.1,0.1,0.3,0,0.4l-0.2,0.2
		c-0.1,0.1-0.3,0.1-0.4,0.1L31.3,35.4z M25.6,32.4c-0.1-0.1-0.1-0.3,0-0.4l0.2-0.2c0.1-0.1,0.3-0.1,0.4-0.1l0.4,0.4
		c0.1,0.1,0.1,0.3,0,0.4l-0.2,0.2c-0.1,0.1-0.3,0.1-0.4,0.1L25.6,32.4z M30.2,36.6c-0.1-0.1-0.1-0.3,0-0.4l0.2-0.2
		c0.1-0.1,0.3-0.1,0.4-0.1l0.4,0.4c0.1,0.1,0.1,0.3,0,0.4L31,36.9c-0.1,0.1-0.3,0.1-0.4,0.1L30.2,36.6z M24.6,33.5
		c-0.1-0.1-0.1-0.3,0-0.4l0.2-0.2c0.1-0.1,0.3-0.1,0.4-0.1l0.4,0.4c0.1,0.1,0.1,0.3,0,0.4l-0.2,0.2C25.2,34,25,34,24.9,33.9
		L24.6,33.5z M29.1,37.8c-0.1-0.1-0.1-0.3,0-0.4l0.2-0.2c0.1-0.1,0.3-0.1,0.4,0l0.4,0.4c0.1,0.1,0.1,0.3,0,0.4l-0.2,0.2
		c-0.1,0.1-0.3,0.1-0.4,0.1L29.1,37.8z M23.5,34.7c-0.1-0.1-0.1-0.3,0-0.4l0.2-0.2c0.1-0.1,0.3-0.1,0.4-0.1l0.4,0.4
		c0.1,0.1,0.1,0.3,0,0.4L24.2,35c-0.1,0.1-0.3,0.1-0.4,0.1L23.5,34.7z M28,39c-0.1-0.1-0.1-0.3,0-0.4l0.2-0.2
		c0.1-0.1,0.3-0.1,0.4-0.1l0.4,0.4c0.1,0.1,0.1,0.3,0,0.4l-0.2,0.2c-0.1,0.1-0.3,0.1-0.4,0.1L28,39z M22.4,35.9
		c-0.1-0.1-0.1-0.3,0-0.4l0.2-0.2c0.1-0.1,0.3-0.1,0.4-0.1l0.4,0.4c0.1,0.1,0.1,0.3,0,0.4l-0.2,0.2c-0.1,0.1-0.3,0.1-0.4,0.1
		L22.4,35.9z M26.9,40.1c-0.1-0.1-0.1-0.3,0-0.4l0.2-0.2c0.1-0.1,0.3-0.1,0.4-0.1l0.4,0.4c0.1,0.1,0.1,0.3,0,0.4l-0.2,0.2
		c-0.1,0.1-0.3,0.1-0.4,0.1L26.9,40.1z M21.3,37c-0.1-0.1-0.1-0.3,0-0.4l0.2-0.2c0.1-0.1,0.3-0.1,0.4-0.1l0.4,0.4
		c0.1,0.1,0.1,0.3,0,0.4L22,37.4c-0.1,0.1-0.3,0.1-0.4,0.1L21.3,37z M25.8,41.3c-0.1-0.1-0.1-0.3,0-0.4l0.2-0.2
		c0.1-0.1,0.3-0.1,0.4-0.1l0.4,0.4c0.1,0.1,0.1,0.3,0,0.4l-0.2,0.2c-0.1,0.1-0.3,0.1-0.4,0.1L25.8,41.3z M20.2,38.2
		c-0.1-0.1-0.1-0.3,0-0.4l0.2-0.2c0.1-0.1,0.3-0.1,0.4-0.1l0.4,0.4c0.1,0.1,0.1,0.3,0,0.4L21,38.5c-0.1,0.1-0.3,0.1-0.4,0.1
		L20.2,38.2z M24.7,42.5c-0.1-0.1-0.1-0.3,0-0.4l0.2-0.2c0.1-0.1,0.3-0.1,0.4,0l0.4,0.4c0.1,0.1,0.1,0.3,0,0.4l-0.2,0.2
		c-0.1,0.1-0.3,0.1-0.4,0.1L24.7,42.5z M19.1,39.4c-0.1-0.1-0.1-0.3,0-0.4l0.2-0.2c0.1-0.1,0.3-0.1,0.4-0.1l0.4,0.4
		c0.1,0.1,0.1,0.3,0,0.4l-0.2,0.2c-0.1,0.1-0.3,0.1-0.4,0.1L19.1,39.4z M23.7,43.6c-0.1-0.1-0.1-0.3,0-0.4l0.2-0.2
		c0.1-0.1,0.3-0.1,0.4-0.1l0.4,0.4c0.1,0.1,0.1,0.3,0,0.4L24.4,44c-0.1,0.1-0.3,0.1-0.4,0.1L23.7,43.6z M18,40.6
		c-0.1-0.1-0.1-0.3,0-0.4l0.2-0.2c0.1-0.1,0.3-0.1,0.4-0.1l0.4,0.4c0.1,0.1,0.1,0.3,0,0.4l-0.2,0.2c-0.1,0.1-0.3,0.1-0.4,0.1
		L18,40.6z M22.6,44.8c-0.1-0.1-0.1-0.3,0-0.4l0.2-0.2c0.1-0.1,0.3-0.1,0.4-0.1l0.4,0.4c0.1,0.1,0.1,0.3,0,0.4l-0.2,0.2
		c-0.1,0.1-0.3,0.1-0.4,0.1L22.6,44.8z M16.9,41.7c-0.1-0.1-0.1-0.3,0-0.4l0.2-0.2c0.1-0.1,0.3-0.1,0.4-0.1l0.4,0.4
		c0.1,0.1,0.1,0.3,0,0.4L17.7,42c-0.1,0.1-0.3,0.1-0.4,0.1L16.9,41.7z M21.5,46c-0.1-0.1-0.1-0.3,0-0.4l0.2-0.2
		c0.1-0.1,0.3-0.1,0.4-0.1l0.4,0.4c0.1,0.1,0.1,0.3,0,0.4l-0.2,0.2c-0.1,0.1-0.3,0.1-0.4,0.1L21.5,46z M15.8,42.9
		c-0.1-0.1-0.1-0.3,0-0.4l0.2-0.2c0.1-0.1,0.3-0.1,0.4-0.1l0.4,0.4c0.1,0.1,0.1,0.3,0,0.4l-0.2,0.2c-0.1,0.1-0.3,0.1-0.4,0.1
		L15.8,42.9z M20.4,47.2c-0.1-0.1-0.1-0.3,0-0.4l0.2-0.2c0.1-0.1,0.3-0.1,0.4-0.1l0.4,0.4c0.1,0.1,0.1,0.3,0,0.4l-0.2,0.2
		c-0.1,0.1-0.3,0.1-0.4,0.1L20.4,47.2z M14.7,44.1c-0.1-0.1-0.1-0.3,0-0.4l0.2-0.2c0.1-0.1,0.3-0.1,0.4-0.1l0.4,0.4
		c0.1,0.1,0.1,0.3,0,0.4l-0.2,0.2c-0.1,0.1-0.3,0.1-0.4,0.1L14.7,44.1z M19.3,48.3c-0.1-0.1-0.1-0.3,0-0.4l0.2-0.2
		c0.1-0.1,0.3-0.1,0.4-0.1l0.4,0.4c0.1,0.1,0.1,0.3,0,0.4L20,48.6c-0.1,0.1-0.3,0.1-0.4,0.1L19.3,48.3z M13.6,45.3
		c-0.1-0.1-0.1-0.3,0-0.4l0.2-0.2c0.1-0.1,0.3-0.1,0.4-0.1l0.4,0.4c0.1,0.1,0.1,0.3,0,0.4l-0.2,0.2c-0.1,0.1-0.3,0.1-0.4,0.1
		L13.6,45.3z M18.2,49.5c-0.1-0.1-0.1-0.3,0-0.4l0.2-0.2c0.1-0.1,0.3-0.1,0.4-0.1l0.4,0.4c0.1,0.1,0.1,0.3,0,0.4L19,49.8
		c-0.1,0.1-0.3,0.1-0.4,0.1L18.2,49.5z M12.5,46.4c-0.1-0.1-0.1-0.3,0-0.4l0.2-0.2c0.1-0.1,0.3-0.1,0.4-0.1l0.4,0.4
		c0.1,0.1,0.1,0.3,0,0.4l-0.2,0.2c-0.1,0.1-0.3,0.1-0.4,0.1L12.5,46.4z M17.1,50.7c-0.1-0.1-0.1-0.3,0-0.4l0.2-0.2
		c0.1-0.1,0.3-0.1,0.4-0.1l0.4,0.4c0.1,0.1,0.1,0.3,0,0.4L17.9,51c-0.1,0.1-0.3,0.1-0.4,0.1L17.1,50.7z"/>
	<linearGradient id="SVGID_5_" gradientUnits="userSpaceOnUse" x1="18.23" y1="20.5396" x2="46.8224" y2="20.5396">
		<stop  offset="0" style="stop-color:#FF007D"/>
		<stop  offset="4.568207e-02" style="stop-color:#FC0276"/>
		<stop  offset="0.3153" style="stop-color:#EE0F54"/>
		<stop  offset="0.5715" style="stop-color:#E4183C"/>
		<stop  offset="0.8064" style="stop-color:#DE1E2D"/>
		<stop  offset="1" style="stop-color:#DC2028"/>
	</linearGradient>
	<path class="st5" d="M18.5,30.7L18.5,30.7c0.2-0.2,0.3-0.2,0.4-0.1l0.4,0.4c0.1,0.1,0.1,0.3,0,0.4l-0.1,0.1l3.9,3.5l0.1-0.1
		c0.1-0.1,0.3-0.1,0.4-0.1l0.4,0.4c0.1,0.1,0.1,0.3,0,0.4l-0.1,0.1l0.3,0.2l22.7-25.2l-0.3-0.3c0,0,0,0.1-0.1,0.1l-0.2,0.2
		c-0.1,0.1-0.3,0.1-0.4,0.1l-0.4-0.4c-0.1-0.1-0.1-0.3,0-0.4l0.2-0.2c0,0,0.1-0.1,0.1-0.1l-3.9-3.5c0,0,0,0.1-0.1,0.1l-0.2,0.2
		c-0.1,0.1-0.3,0.1-0.4,0.1l-0.4-0.4c-0.1-0.1-0.1-0.3,0-0.4l0.2-0.2c0,0,0.1-0.1,0.1-0.1l-0.3-0.3L18.2,30.5L18.5,30.7z M39.8,7.4
		c-0.1-0.1-0.1-0.3,0-0.4L40,6.8c0.1-0.1,0.3-0.1,0.4-0.1l0.4,0.4c0.1,0.1,0.1,0.3,0,0.4l-0.2,0.2c-0.1,0.1-0.3,0.1-0.4,0.1
		L39.8,7.4z M44.4,11.6c-0.1-0.1-0.1-0.3,0-0.4l0.2-0.2c0.1-0.1,0.3-0.1,0.4-0.1l0.4,0.4c0.1,0.1,0.1,0.3,0,0.4l-0.2,0.2
		C45.1,12,44.9,12,44.8,12L44.4,11.6z M38.7,8.6c-0.1-0.1-0.1-0.3,0-0.4L38.9,8C39,7.9,39.2,7.9,39.3,8l0.4,0.4
		c0.1,0.1,0.1,0.3,0,0.4l-0.2,0.2C39.4,9,39.2,9.1,39.1,9L38.7,8.6z M43.3,12.8c-0.1-0.1-0.1-0.3,0-0.4l0.2-0.2
		c0.1-0.1,0.3-0.1,0.4-0.1l0.4,0.4c0.1,0.1,0.1,0.3,0,0.4l-0.2,0.2c-0.1,0.1-0.3,0.1-0.4,0.1L43.3,12.8z M37.6,9.8
		c-0.1-0.1-0.1-0.3,0-0.4l0.2-0.2c0.1-0.1,0.3-0.1,0.4-0.1l0.4,0.4c0.1,0.1,0.1,0.3,0,0.4l-0.2,0.2c-0.1,0.1-0.3,0.1-0.4,0.1
		L37.6,9.8z M42.3,14c-0.1-0.1-0.1-0.3,0-0.4l0.2-0.2c0.1-0.1,0.3-0.1,0.4-0.1l0.4,0.4c0.1,0.1,0.1,0.3,0,0.4L43,14.3
		c-0.1,0.1-0.3,0.1-0.4,0.1L42.3,14z M36.6,11c-0.1-0.1-0.1-0.3,0-0.4l0.2-0.2c0.1-0.1,0.3-0.1,0.4-0.1l0.4,0.4
		c0.1,0.1,0.1,0.3,0,0.4l-0.2,0.2c-0.1,0.1-0.3,0.2-0.4,0.1L36.6,11z M41.2,15.2c-0.1-0.1-0.1-0.3,0-0.4l0.2-0.2
		c0.1-0.1,0.3-0.1,0.4-0.1l0.4,0.4c0.1,0.1,0.1,0.3,0,0.4L42,15.5c-0.1,0.1-0.3,0.1-0.4,0.1L41.2,15.2z M35.5,12.2
		c-0.1-0.1-0.1-0.3,0-0.4l0.2-0.2c0.1-0.1,0.3-0.1,0.4-0.1l0.4,0.4c0.1,0.1,0.1,0.3,0,0.4l-0.2,0.2c-0.1,0.1-0.3,0.1-0.4,0.1
		L35.5,12.2z M40.1,16.4c-0.1-0.1-0.1-0.3,0-0.4l0.2-0.2c0.1-0.1,0.3-0.1,0.4-0.1l0.4,0.4c0.1,0.1,0.1,0.3,0,0.4l-0.2,0.2
		c-0.1,0.1-0.3,0.1-0.4,0.1L40.1,16.4z M34.4,13.4c-0.1-0.1-0.1-0.3,0-0.4l0.2-0.2c0.1-0.1,0.3-0.1,0.4-0.1l0.4,0.4
		c0.1,0.1,0.1,0.3,0,0.4l-0.2,0.2c-0.1,0.1-0.3,0.1-0.4,0.1L34.4,13.4z M39,17.6c-0.1-0.1-0.1-0.3,0-0.4l0.2-0.2
		c0.1-0.1,0.3-0.1,0.4-0.1l0.4,0.4c0.1,0.1,0.1,0.3,0,0.4l-0.2,0.2c-0.1,0.1-0.3,0.1-0.4,0.1L39,17.6z M33.3,14.6
		c-0.1-0.1-0.1-0.3,0-0.4l0.2-0.2c0.1-0.1,0.3-0.1,0.4-0.1l0.4,0.4c0.1,0.1,0.1,0.3,0,0.4l-0.2,0.2C34,15,33.8,15,33.7,14.9
		L33.3,14.6z M38,18.7c-0.1-0.1-0.1-0.3,0-0.4l0.2-0.2c0.1-0.1,0.3-0.1,0.4-0.1l0.4,0.4c0.1,0.1,0.1,0.3,0,0.4L38.7,19
		c-0.1,0.1-0.3,0.1-0.4,0.1L38,18.7z M32.3,15.8c-0.1-0.1-0.1-0.3,0-0.4l0.2-0.2c0.1-0.1,0.3-0.1,0.4-0.1l0.4,0.4
		c0.1,0.1,0.1,0.3,0,0.4L33,16.1c-0.1,0.1-0.3,0.1-0.4,0.1L32.3,15.8z M36.9,19.9c-0.1-0.1-0.1-0.3,0-0.4l0.2-0.2
		c0.1-0.1,0.3-0.1,0.4-0.1l0.4,0.4c0.1,0.1,0.1,0.3,0,0.4l-0.2,0.2c-0.1,0.1-0.3,0.1-0.4,0.1L36.9,19.9z M31.2,17
		c-0.1-0.1-0.1-0.3,0-0.4l0.2-0.2c0.1-0.1,0.3-0.1,0.4-0.1l0.4,0.4c0.1,0.1,0.1,0.3,0,0.4L32,17.3c-0.1,0.1-0.3,0.1-0.4,0.1L31.2,17
		z M35.8,21.1c-0.1-0.1-0.1-0.3,0-0.4l0.2-0.2c0.1-0.1,0.3-0.1,0.4-0.1l0.4,0.4c0.1,0.1,0.1,0.3,0,0.4l-0.2,0.2
		c-0.1,0.1-0.3,0.1-0.4,0.1L35.8,21.1z M30.1,18.2c-0.1-0.1-0.1-0.3,0-0.4l0.2-0.2c0.1-0.1,0.3-0.1,0.4-0.1l0.4,0.4
		c0.1,0.1,0.1,0.3,0,0.4l-0.2,0.2c-0.1,0.1-0.3,0.1-0.4,0.1L30.1,18.2z M34.8,22.3c-0.1-0.1-0.1-0.3,0-0.4l0.2-0.2
		c0.1-0.1,0.3-0.1,0.4-0.1l0.4,0.4c0.1,0.1,0.1,0.3,0,0.4l-0.2,0.2c-0.1,0.1-0.3,0.1-0.4,0.1L34.8,22.3z M29.1,19.3
		c-0.1-0.1-0.1-0.3,0-0.4l0.2-0.2c0.1-0.1,0.3-0.1,0.4-0.1l0.4,0.4c0.1,0.1,0.1,0.3,0,0.4l-0.2,0.2c-0.1,0.1-0.3,0.1-0.4,0.1
		L29.1,19.3z M33.7,23.5c-0.1-0.1-0.1-0.3,0-0.4l0.2-0.2c0.1-0.1,0.3-0.1,0.4-0.1l0.4,0.4c0.1,0.1,0.1,0.3,0,0.4l-0.2,0.2
		c-0.1,0.1-0.3,0.1-0.4,0.1L33.7,23.5z M28,20.5c-0.1-0.1-0.1-0.3,0-0.4l0.2-0.2c0.1-0.1,0.3-0.1,0.4-0.1l0.4,0.4
		c0.1,0.1,0.1,0.3,0,0.4l-0.2,0.2c-0.1,0.1-0.3,0.1-0.4,0.1L28,20.5z M32.6,24.7c-0.1-0.1-0.1-0.3,0-0.4l0.2-0.2
		c0.1-0.1,0.3-0.1,0.4-0.1l0.4,0.4c0.1,0.1,0.1,0.3,0,0.4L33.4,25c-0.1,0.1-0.3,0.1-0.4,0.1L32.6,24.7z M26.9,21.7
		c-0.1-0.1-0.1-0.3,0-0.4l0.2-0.2c0.1-0.1,0.3-0.1,0.4-0.1l0.4,0.4c0.1,0.1,0.1,0.3,0,0.4L27.7,22c-0.1,0.1-0.3,0.1-0.4,0.1
		L26.9,21.7z M31.5,25.9c-0.1-0.1-0.1-0.3,0-0.4l0.2-0.2c0.1-0.1,0.3-0.1,0.4-0.1l0.4,0.4c0.1,0.1,0.1,0.3,0,0.4l-0.2,0.2
		c-0.1,0.1-0.3,0.1-0.4,0.1L31.5,25.9z M25.8,22.9c-0.1-0.1-0.1-0.3,0-0.4l0.2-0.2c0.1-0.1,0.3-0.1,0.4-0.1l0.4,0.4
		c0.1,0.1,0.1,0.3,0,0.4l-0.2,0.2c-0.1,0.1-0.3,0.1-0.4,0.1L25.8,22.9z M30.5,27.1c-0.1-0.1-0.1-0.3,0-0.4l0.2-0.2
		c0.1-0.1,0.3-0.1,0.4-0.1l0.4,0.4c0.1,0.1,0.1,0.3,0,0.4l-0.2,0.2c-0.1,0.1-0.3,0.1-0.4,0.1L30.5,27.1z M24.8,24.1
		c-0.1-0.1-0.1-0.3,0-0.4l0.2-0.2c0.1-0.1,0.3-0.2,0.4-0.1l0.4,0.4c0.1,0.1,0.1,0.3,0,0.4l-0.2,0.2c-0.1,0.1-0.3,0.1-0.4,0.1
		L24.8,24.1z M29.4,28.3c-0.1-0.1-0.1-0.3,0-0.4l0.2-0.2c0.1-0.1,0.3-0.1,0.4-0.1l0.4,0.4c0.1,0.1,0.1,0.3,0,0.4l-0.2,0.2
		c-0.1,0.1-0.3,0.1-0.4,0.1L29.4,28.3z M23.7,25.3c-0.1-0.1-0.1-0.3,0-0.4l0.2-0.2c0.1-0.1,0.3-0.1,0.4-0.1l0.4,0.4
		c0.1,0.1,0.1,0.3,0,0.4l-0.2,0.2c-0.1,0.1-0.3,0.1-0.4,0.1L23.7,25.3z M28.3,29.5c-0.1-0.1-0.1-0.3,0-0.4l0.2-0.2
		c0.1-0.1,0.3-0.2,0.4-0.1l0.4,0.4c0.1,0.1,0.1,0.3,0,0.4l-0.2,0.2c-0.1,0.1-0.3,0.1-0.4,0.1L28.3,29.5z M22.6,26.5
		c-0.1-0.1-0.1-0.3,0-0.4l0.2-0.2c0.1-0.1,0.3-0.1,0.4-0.1l0.4,0.4c0.1,0.1,0.1,0.3,0,0.4l-0.2,0.2c-0.1,0.1-0.3,0.1-0.4,0.1
		L22.6,26.5z M27.3,30.7c-0.1-0.1-0.1-0.3,0-0.4l0.2-0.2c0.1-0.1,0.3-0.1,0.4-0.1l0.4,0.4c0.1,0.1,0.1,0.3,0,0.4L28,31
		c-0.1,0.1-0.3,0.1-0.4,0.1L27.3,30.7z M21.6,27.7c-0.1-0.1-0.1-0.3,0-0.4l0.2-0.2c0.1-0.1,0.3-0.1,0.4-0.1l0.4,0.4
		c0.1,0.1,0.1,0.3,0,0.4L22.3,28c-0.1,0.1-0.3,0.1-0.4,0.1L21.6,27.7z M26.2,31.9c-0.1-0.1-0.1-0.3,0-0.4l0.2-0.2
		c0.1-0.1,0.3-0.1,0.4-0.1l0.4,0.4c0.1,0.1,0.1,0.3,0,0.4L27,32.1c-0.1,0.1-0.3,0.1-0.4,0.1L26.2,31.9z M20.5,28.9
		c-0.1-0.1-0.1-0.3,0-0.4l0.2-0.2c0.1-0.1,0.3-0.1,0.4-0.1l0.4,0.4c0.1,0.1,0.1,0.3,0,0.4l-0.2,0.2c-0.1,0.1-0.3,0.1-0.4,0.1
		L20.5,28.9z M25.1,33c-0.1-0.1-0.1-0.3,0-0.4l0.2-0.2c0.1-0.1,0.3-0.1,0.4-0.1l0.4,0.4c0.1,0.1,0.1,0.3,0,0.4l-0.2,0.2
		c-0.1,0.1-0.3,0.1-0.4,0.1L25.1,33z M19.4,30.1c-0.1-0.1-0.1-0.3,0-0.4l0.2-0.2c0.1-0.1,0.3-0.1,0.4-0.1l0.4,0.4
		c0.1,0.1,0.1,0.3,0,0.4l-0.2,0.2c-0.1,0.1-0.3,0.1-0.4,0.1L19.4,30.1z M24,34.2c-0.1-0.1-0.1-0.3,0-0.4l0.2-0.2
		c0.1-0.1,0.3-0.1,0.4-0.1l0.4,0.4c0.1,0.1,0.1,0.3,0,0.4l-0.2,0.2c-0.1,0.1-0.3,0.1-0.4,0.1L24,34.2z"/>
	<linearGradient id="SVGID_6_" gradientUnits="userSpaceOnUse" x1="18.5478" y1="52.3214" x2="34.5518" y2="19.0376">
		<stop  offset="0" style="stop-color:#D195C2"/>
		<stop  offset="0.3974" style="stop-color:#797DAA"/>
		<stop  offset="0.8113" style="stop-color:#226592"/>
		<stop  offset="1" style="stop-color:#005C89"/>
	</linearGradient>
	<path class="st6" d="M47.1,40.3L47,28.1l-11.6,3l0,0.2l-0.7,0c-0.1-0.3-0.3-0.7-0.4-1c2-1.4,3.3-3.8,3.3-6.4
		c-0.1-4.2-3.5-7.6-7.7-7.6l-0.1,0c-2.4,0-4.5,1.2-5.9,2.9c-1.4-1.7-3.6-2.8-5.9-2.8l-0.1,0c-4.3,0.1-7.7,3.6-7.6,7.8
		c0,3.6,2.6,6.7,6.1,7.4c0,0.2-0.1,0.5-0.1,0.8l0.1,6.2c0,1.9,1.6,3.5,3.6,3.5c0,0,0,0,0,0c0,1.7,1.4,3.2,3.1,3.4c0,0,0,0,0,0
		c0,0.1,0,0.1,0,0.2l-0.9,0c-2.3,0-3.1,1.3-3.1,2.3l0,1.5c0,1,0.8,2.3,3.1,2.3l4.1-0.1v0.3l0.2-0.3l4.1-0.1c2.3,0,3.1-1.3,3.1-2.3
		l0-1.5c0-0.9-0.7-2-2.5-2.2c0-0.1,0-0.1,0-0.2c0-0.1,0-0.1,0-0.2l0.7,0l0-3.2c1.9-0.2,3.3-1.7,3.3-3.6l0-0.7l0.7,0L47.1,40.3z
		 M22,50.1L22,50.1L22,50.1L22,50.1z"/>
	<g>
		<path class="st7" d="M33.1,38.5c0,1-0.8,1.7-1.7,1.8l-11.6,0.1c-1,0-1.7-0.8-1.8-1.7L18,32.5c0-1,0.8-1.7,1.7-1.8l11.6-0.2
			c1,0,1.7,0.8,1.8,1.7L33.1,38.5z"/>
		<path class="st7" d="M31.7,49.5c0,0.2-0.6,0.4-1.2,0.4l-8.3,0.1c-0.7,0-1.2-0.2-1.3-0.4l0-1.5c0-0.2,0.6-0.4,1.2-0.4l8.3-0.1
			c0.7,0,1.2,0.2,1.3,0.4L31.7,49.5z"/>
		
			<rect x="33.3" y="33.1" transform="matrix(0.9999 -1.236610e-02 1.236610e-02 0.9999 -0.4229 0.4378)" class="st7" width="3.8" height="2.7"/>
		<polygon class="st7" points="37.3,32.5 37.4,36.2 45.3,38 45.2,30.5 		"/>
		
			<rect x="22.6" y="40.8" transform="matrix(0.9999 -1.306261e-02 1.306261e-02 0.9999 -0.5385 0.3457)" class="st7" width="7.2" height="1.2"/>
		
			<rect x="22.7" y="42.3" transform="matrix(0.9999 -1.269109e-02 1.269109e-02 0.9999 -0.5427 0.3369)" class="st7" width="7.2" height="1.2"/>
		<path class="st7" d="M24.8,42.2c0,0.9-0.7,1.6-1.5,1.6c-0.9,0-1.6-0.7-1.6-1.5c0-0.9,0.7-1.6,1.5-1.6
			C24.1,40.7,24.8,41.3,24.8,42.2z"/>
		<path class="st7" d="M29.2,45.6c0,1.2-1,2.2-2.2,2.2c-1.2,0-2.2-0.9-2.2-2.2c0-1.2,1-2.2,2.2-2.2C28.2,43.4,29.2,44.4,29.2,45.6z
			 M27,44.3c-0.7,0-1.3,0.6-1.3,1.3c0,0.7,0.6,1.3,1.3,1.3c0.7,0,1.3-0.6,1.3-1.3C28.3,44.9,27.7,44.3,27,44.3z"/>
		<path class="st7" d="M35.7,24c0,3.2-2.6,5.9-5.8,6c-3.2,0-5.9-2.6-5.9-5.8c0-3.2,2.6-5.9,5.8-6C33,18.1,35.7,20.7,35.7,24z
			 M29.8,23.3c-0.4,0-0.7,0.3-0.7,0.8c0,0.4,0.3,0.7,0.8,0.7c0.4,0,0.7-0.3,0.7-0.8C30.6,23.6,30.2,23.3,29.8,23.3z"/>
		<path class="st7" d="M23.8,24.1c0,3.2-2.6,5.9-5.8,6c-3.2,0-5.9-2.6-5.9-5.8c0-3.2,2.6-5.9,5.8-6C21,18.3,23.7,20.9,23.8,24.1z
			 M17.9,23.5c-0.4,0-0.7,0.3-0.7,0.8c0,0.4,0.3,0.7,0.8,0.7c0.4,0,0.7-0.3,0.7-0.8C18.6,23.8,18.3,23.4,17.9,23.5z"/>
	</g>
</g>
<g>
	<path class="st8" d="M82.2,19.8c-1.5,0.4-3.4,1-5.9,1.9l-6.2,2.2c-0.2,0.5-0.4,1.2-0.5,2l-0.4,2.3l0.6,0.9c0.9-0.7,1.8-1.1,2.7-1.1
		h4.5c0,1.6,0.2,3.7,0.7,6.3c-1.2,0.5-3.1,1.2-5.5,2.1c-2.5,0.9-4.3,1.6-5.5,2.1c0.8,4.1,1.5,7.7,2,10.7c-0.6,0.1-1.5,0.6-2.8,1.4
		c-1.8,1.1-2.8,1.8-3.1,1.9c-0.7-2.7-1.1-6.4-1.4-11.1c-0.1-2.5-0.3-6.2-0.5-11.1l-0.8-11.9v-2.3c2.2-0.3,6.2-1.2,12-2.6
		c5-1.2,7.6-1.7,7.9-1.7h2.4c-0.4,0.6-0.7,1.4-0.7,2.4c0,0.6,0.1,1.5,0.3,2.7C82.1,18.2,82.2,19.2,82.2,19.8z"/>
	<path class="st8" d="M91,20.2c0.1,1.7,0.2,3.6,0.2,5.8c0,3-0.2,7.8-0.6,14.5S90,52,90,54.9c-0.4,0-1.5-0.1-3.1-0.3
		c-1.6-0.2-2.9-0.3-3.8-0.3l-0.7,0.6l1.7-34.7c0.7,0.3,1.7,0.4,3,0.4C88.2,20.6,89.6,20.5,91,20.2z M91.3,10c0,1.6-0.5,3-1.4,4
		c-0.8,0.9-1.5,1.3-2.3,1.3c-1,0-1.8-0.6-2.5-1.7c-0.6-1-0.8-2-0.8-3.1c0-1.2,0.3-2.4,0.8-3.4c0.7-1.3,1.6-1.9,2.7-1.9
		c1.1,0,2,0.5,2.7,1.6C91.1,7.7,91.3,8.8,91.3,10z"/>
	<path class="st8" d="M115.1,49.7l-17.2,3.2h-4.1l2.3-37.8c1.2-0.3,3.8-0.8,7.9-1.6c0.5,4.7,0.7,8.3,0.7,10.9v18.1
		c1.6,0.1,3.3,0.2,5.1,0.2c2.9,0.1,4.7,0,5.3-0.2V49.7z"/>
	<path class="st8" d="M151.3,50.7c-0.7,0.4-2.1,0.6-4.1,0.6c-0.2,0-1.3,0.3-3.5,1c-0.4-2.1-1-5.4-1.6-9.9c-0.6-4.3-1.2-7.6-1.7-9.9
		c-1.8,5.1-3.3,11.5-4.2,19.2c-0.2,0.1-1,0.4-2.4,1c-1.1,0.5-1.9,0.7-2.2,0.7c-0.4,0-0.9-0.3-1.5-0.8c-0.8-2.4-2.1-5.7-3.8-10
		L122.1,32c-0.4,1.1-0.7,3-0.8,5.6c0,1.6,0,3.9-0.1,7c0,0.8-0.2,2.1-0.4,3.8c-0.2,1.7-0.3,3-0.3,3.9h-1.5c-0.8,0-1.7-0.2-2.8-0.5
		c-1.1-0.4-2-0.7-2.7-1.1l4.1-34.9c0.4-0.4,1-0.9,1.9-1.5c1.1-0.7,1.8-1.2,2.2-1.5l9,20.9c1.8-5.2,4.4-13,8-23.5
		c0.4-0.1,0.9-0.2,1.5-0.2c1.1,0,4.1,0.8,9.1,2.4c0,4.4,0.2,11.8,0.8,22.1c0.1,1.6,0.3,4.2,0.7,7.6c0.3,3.1,0.5,5,0.5,5.7V50.7z"/>
	<path class="st8" d="M160.2,20.2c0.1,1.7,0.2,3.6,0.2,5.8c0,3-0.2,7.8-0.6,14.5c-0.4,6.7-0.6,11.5-0.6,14.4c-0.4,0-1.5-0.1-3.1-0.3
		c-1.6-0.2-2.9-0.3-3.8-0.3l-0.7,0.6l1.7-34.7c0.7,0.3,1.7,0.4,3,0.4C157.4,20.6,158.7,20.5,160.2,20.2z M160.5,10
		c0,1.6-0.5,3-1.4,4c-0.8,0.9-1.5,1.3-2.3,1.3c-1,0-1.8-0.6-2.5-1.7c-0.6-1-0.8-2-0.8-3.1c0-1.2,0.3-2.4,0.8-3.4
		c0.7-1.3,1.6-1.9,2.7-1.9c1.1,0,2,0.5,2.7,1.6C160.2,7.7,160.5,8.8,160.5,10z"/>
	<path d="M186.7,43.2c0,1.5-0.6,3.5-1.9,5.9c-1.3,2.5-2.6,4-3.9,4.4c-2.1,0.7-4.9,1.2-8.5,1.7c-2.9,0.4-4.8,0.6-5.7,0.6h-2.4V21.8
		c0,0.6,0.2-3.8,0.7-13.1c0.9,0.2,1.7,0.2,2.6,0.2c1.2,0,2.8-0.1,4.6-0.2c0,2.7,0.1,4.7,0.3,5.8c0.6-0.8,2.2-1.3,4.6-1.5
		c0.8-0.1,2.5-0.1,5.3-0.1c1,0,1.9,0.9,2.7,2.7c0.8,1.6,1.1,2.9,1.1,4c0,5-2.3,9.3-7,12.8C184.2,35,186.7,38.5,186.7,43.2z
		 M176,43.7c-0.8-1.2-1.4-1.8-1.9-1.8h-4.4c-0.3,0.3-0.4,0.8-0.4,1.4c0,0.8,0.2,1.7,0.5,2.7c0.4,1.3,0.9,1.9,1.5,1.9
		c0.3,0,1.1-0.4,2.2-1.3C174.7,45.5,175.6,44.6,176,43.7z M178.3,21.1c0,0-0.2-0.2-0.6-0.6c-0.4-0.4-0.7-0.6-1-0.6
		c-1.2,0-2.5,0.6-4,1.7v5.7c2.1-1.2,3.3-1.8,3.5-2C177.4,24.3,178.2,22.9,178.3,21.1z"/>
	<path d="M208.6,32l-12.1,3.2v3.5c0.3,0.6,0.7,0.9,1,0.9c0.5,0,1.8-0.4,3.8-1.1c2-0.7,3.3-1.1,3.8-1.1h2.4v6.8l-17.6,7
		c-0.4-2.4-1.1-8.9-1.9-19.5c-0.8-9.8-1.2-15.3-1.2-16.2v-3.8h19.5c-0.1,1.8-0.2,3.9-0.2,6.2c-2.5,0.3-6.9,1.2-13,2.6v3l0.7,1
		c0.3,0.3,0.6,0.4,1,0.4c0.2,0,1.9-0.3,4.9-0.9c3.5-0.7,6.4-1.3,8.9-1.7c0,2.5,0,4.5,0,6.1C208.6,30.2,208.6,31.3,208.6,32z"/>
	<path d="M239.3,45.1c-0.8,0.5-2.5,1.9-5.3,4.1c-2.2,1.7-3.4,2.5-3.7,2.5c-0.3,0-1-1.3-2.2-4l-2.7-6.2c-1.2,0.2-2.9,0.4-5.2,0.7
		c-2,0.3-3.5,0.9-4.4,1.6c-0.4,0.3-0.9,1.4-1.6,3.3c-0.6,1.6-1,2.4-1.4,2.4c-0.3,0-1-0.3-2.2-0.9c-1.3-0.7-2.3-1.1-2.9-1.4
		c2.9-7.8,7.1-19.3,12.6-34.4c1.5-0.5,2.4-0.8,2.5-0.8c0.5,0,2,2.1,4.5,6.3c2.2,3.7,3.7,6.2,4.4,7.7
		C233.7,30.3,236.2,36.6,239.3,45.1z M225.2,31.2c-0.7-2.3-1.7-4.4-2.9-6.3c-0.4,1.5-1,3.8-1.8,6.8
		C222.7,31.3,224.3,31.1,225.2,31.2z"/>
	<path d="M265.5,20.3c-2.3,0.9-3.9,1.6-5,2.2c-2.2,1.3-3.7,2.6-4.4,4.1l2.6,20.5c-3.9,1.2-7.1,2.5-9.6,3.8l-1-21.6
		c-0.3-0.4-0.7-0.6-1.1-0.6c-0.5,0-1.2,0.3-2.2,0.9c-1,0.6-1.6,0.9-1.9,0.9c-0.3,0-0.8,0.2-1.6,0.5s-1.4,0.5-1.7,0.5h-2.1
		c0.2-0.7,0.2-2,0.2-3.8s-0.1-4.3-0.2-7.3l24.2-8.7h2.8L265.5,20.3z"/>
</g>
<g>
	<path class="st9" d="M275.2,1.6c1.1,0,2.2,0.3,3.2,0.8c1,0.6,1.9,1.4,2.4,2.4c0.6,1,0.9,2.1,0.9,3.3c0,1.1-0.3,2.2-0.9,3.3
		c-0.6,1-1.4,1.8-2.4,2.4c-1,0.6-2.1,0.9-3.3,0.9c-1.1,0-2.2-0.3-3.3-0.9c-1-0.6-1.8-1.4-2.4-2.4c-0.6-1-0.9-2.1-0.9-3.3
		c0-1.1,0.3-2.2,0.9-3.3c0.6-1.1,1.4-1.9,2.5-2.4C273,1.9,274.1,1.6,275.2,1.6z M275.2,2.7c-0.9,0-1.8,0.2-2.7,0.7
		c-0.9,0.5-1.6,1.1-2,2c-0.5,0.9-0.7,1.8-0.7,2.7c0,0.9,0.2,1.8,0.7,2.7c0.5,0.9,1.2,1.5,2,2c0.9,0.5,1.8,0.7,2.7,0.7
		c0.9,0,1.8-0.2,2.7-0.7c0.9-0.5,1.5-1.2,2-2c0.5-0.9,0.7-1.8,0.7-2.7c0-0.9-0.2-1.9-0.7-2.7c-0.5-0.9-1.2-1.6-2-2
		C277,2.9,276.1,2.7,275.2,2.7z M272.3,11.8v-7h2.4c0.8,0,1.4,0.1,1.8,0.2c0.4,0.1,0.7,0.4,0.9,0.7c0.2,0.3,0.3,0.7,0.3,1
		c0,0.5-0.2,1-0.6,1.3c-0.4,0.4-0.9,0.6-1.5,0.6c0.2,0.1,0.4,0.2,0.6,0.4c0.3,0.3,0.6,0.7,1,1.4l0.9,1.4h-1.4l-0.6-1.1
		c-0.5-0.9-0.9-1.4-1.2-1.6c-0.2-0.2-0.5-0.2-0.9-0.2h-0.7v3H272.3z M273.4,7.8h1.4c0.7,0,1.1-0.1,1.3-0.3s0.4-0.5,0.4-0.8
		c0-0.2-0.1-0.4-0.2-0.6c-0.1-0.2-0.3-0.3-0.5-0.4c-0.2-0.1-0.6-0.1-1.1-0.1h-1.3V7.8z"/>
</g>
</svg>
