<?xml version="1.0" encoding="utf-8"?>
<!-- Generator: Adobe Illustrator 19.2.1, SVG Export Plug-In . SVG Version: 6.00 Build 0)  -->
<svg version="1.2" baseProfile="tiny" id="Layer_1" xmlns="http://www.w3.org/2000/svg" xmlns:xlink="http://www.w3.org/1999/xlink"
	 x="0px" y="0px" viewBox="0 0 327.7 59.3" xml:space="preserve">
<g>
	<g>
		<rect x="216.4" y="26.7" fill="#FFFFFF" width="7.5" height="7.4"/>
	</g>
	<g>
		<polygon fill="#FFFFFF" points="314.2,11.7 261.6,11.7 261.6,19.1 284.1,19.1 284.1,49.2 291.6,49.2 291.6,19.1 314.2,19.1 		"/>
	</g>
	<g>
		<path fill="#FFFFFF" d="M186.3,11.7h-45.1v37.5h52.7V26.7h-7.5V11.7z M148.7,19.1h30.1v7.6h-30.1V19.1z M186.3,34.1v7.6h-37.6
			v-7.6H186.3z"/>
	</g>
	<g>
		<rect x="66" y="11.7" fill="#FFFFFF" width="7.5" height="37.5"/>
	</g>
	<g>
		<rect x="231.5" y="26.7" fill="#FFFFFF" width="7.5" height="7.4"/>
	</g>
	<g>
		<path fill="#FFFFFF" d="M254,11.7h-22.5V4.1H224v7.7h-22.6v37.5H254V11.7z M246.5,41.7h-37.6V19.1h37.6V41.7z"/>
	</g>
	<g>
		<polygon fill="#FFFFFF" points="81,11.7 81,19.1 119.1,19.1 81,41.7 81,49.2 133.8,49.2 133.8,41.7 95.5,41.7 133.8,19.1 
			133.8,11.7 		"/>
	</g>
	<g>
		<polygon fill="#FFFFFF" points="58.5,26.7 58.5,49.2 5.8,49.2 5.8,11.7 58.5,11.7 58.5,19.1 13.3,19.1 13.3,41.7 50.9,41.7 
			50.9,34.1 35.9,34.1 35.9,26.7 		"/>
	</g>
</g>
<g>
	<path fill="#FFFFFF" d="M321.4,1.8c0.9,0,1.8,0.2,2.7,0.7s1.6,1.2,2.1,2c0.5,0.9,0.7,1.8,0.7,2.8c0,0.9-0.2,1.9-0.7,2.7
		c-0.5,0.9-1.2,1.6-2,2c-0.9,0.5-1.8,0.7-2.7,0.7c-1,0-1.9-0.2-2.7-0.7c-0.9-0.5-1.6-1.2-2-2s-0.7-1.8-0.7-2.7c0-1,0.2-1.9,0.7-2.8
		s1.2-1.6,2.1-2S320.5,1.8,321.4,1.8z M321.4,2.8c-0.8,0-1.5,0.2-2.3,0.6s-1.3,1-1.7,1.7c-0.4,0.7-0.6,1.5-0.6,2.3
		c0,0.8,0.2,1.6,0.6,2.3c0.4,0.7,1,1.3,1.7,1.7c0.7,0.4,1.5,0.6,2.3,0.6c0.8,0,1.6-0.2,2.3-0.6c0.7-0.4,1.3-1,1.7-1.7
		c0.4-0.7,0.6-1.5,0.6-2.3c0-0.8-0.2-1.6-0.6-2.3c-0.4-0.7-1-1.3-1.7-1.7S322.2,2.8,321.4,2.8z M319,10.4V4.5h2
		c0.7,0,1.2,0.1,1.5,0.2c0.3,0.1,0.6,0.3,0.7,0.6c0.2,0.3,0.3,0.6,0.3,0.9c0,0.4-0.2,0.8-0.5,1.1s-0.7,0.5-1.2,0.5
		c0.2,0.1,0.4,0.2,0.5,0.3c0.2,0.2,0.5,0.6,0.9,1.2l0.7,1.2h-1.2l-0.5-0.9c-0.4-0.7-0.7-1.2-1-1.4c-0.2-0.1-0.4-0.2-0.8-0.2H320v2.5
		H319z M320,7.1h1.2c0.6,0,0.9-0.1,1.1-0.2c0.2-0.2,0.3-0.4,0.3-0.7c0-0.2,0-0.3-0.1-0.5c-0.1-0.1-0.2-0.2-0.4-0.3s-0.5-0.1-1-0.1
		H320V7.1z"/>
</g>
</svg>
