<?xml version="1.0" encoding="utf-8"?>
<!-- Generator: Adobe Illustrator 19.2.1, SVG Export Plug-In . SVG Version: 6.00 Build 0)  -->
<svg version="1.1" id="Layer_1" xmlns="http://www.w3.org/2000/svg" xmlns:xlink="http://www.w3.org/1999/xlink" x="0px" y="0px"
	 viewBox="0 0 335 77" style="enable-background:new 0 0 335 77;" xml:space="preserve">
<style type="text/css">
	.st0{fill:#8DC63F;}
	.st1{fill:#58595B;}
	.st2{fill:#333333;}
</style>
<rect x="216.4" y="30.4" class="st0" width="7.5" height="7.4"/>
<polygon class="st1" points="314.2,15.4 261.6,15.4 261.6,22.8 284.1,22.8 284.1,52.8 291.6,52.8 291.6,22.8 314.2,22.8 "/>
<path class="st1" d="M186.3,15.4h-45.1v37.5h52.7V30.4h-7.5v-15H186.3z M148.7,22.8h30.1v7.6h-30.1V22.8z M186.3,45.3h-37.6v-7.6
	h37.6L186.3,45.3L186.3,45.3z"/>
<rect x="66" y="15.4" class="st1" width="7.5" height="37.5"/>
<rect x="231.5" y="30.4" class="st0" width="7.5" height="7.4"/>
<path class="st1" d="M254,15.4h-22.5V7.7H224v7.7h-22.6v37.5H254V15.4z M246.5,45.3h-37.6V22.8h37.6V45.3z"/>
<polygon class="st1" points="81,15.4 81,22.8 119.1,22.8 81,45.4 81,52.8 133.8,52.8 133.8,45.4 95.5,45.4 133.8,22.8 133.8,15.4 
	"/>
<polygon class="st1" points="58.5,30.4 58.5,52.8 5.8,52.8 5.8,15.4 58.5,15.4 58.5,22.8 13.3,22.8 13.3,45.4 50.9,45.4 50.9,37.7 
	35.9,37.7 35.9,30.4 "/>
<path class="st2" d="M12.6,62.4c0.3,0,0.3,0.4,0,0.4H9.5v7.1C9.5,70,9.4,70,9.3,70c-0.1,0-0.2-0.1-0.2-0.2v-7.1H6
	c-0.3,0-0.3-0.4,0-0.4L12.6,62.4L12.6,62.4z"/>
<path class="st2" d="M22.5,69.6h5.3c0.3,0,0.3,0.4,0,0.4h-5.4c-0.2,0-0.3-0.1-0.3-0.3v-7c0-0.2,0.1-0.3,0.3-0.3h5.4
	c0.2,0,0.2,0.4,0,0.4h-5.3V66h5.1c0.3,0,0.3,0.4,0,0.4h-5.1V69.6z"/>
<path class="st2" d="M43.2,69.7c-2.7,1.4-5.8-0.6-5.7-3.6c0-2,1.3-3.5,3.2-3.8c1.4-0.2,2.5,0,3.6,1.2c0.2,0.2-0.1,0.4-0.3,0.2
	c-1-1.1-1.9-1.2-3.2-1c-1.7,0.3-2.9,1.5-2.9,3.4c-0.1,2.7,2.7,4.5,5.1,3.3c0.4-0.2,0.8-0.5,1.1-0.9c0.2-0.2,0.5,0,0.3,0.2
	C44.1,69.1,43.7,69.4,43.2,69.7"/>
<path class="st2" d="M54.9,66.2h5.2v-3.6c0-0.3,0.4-0.3,0.4,0v7.2c0,0.3-0.4,0.3-0.4,0v-3.3h-5.2v3.3c0,0.3-0.4,0.3-0.4,0v-7.2
	c0-0.3,0.4-0.3,0.4,0V66.2z"/>
<path class="st2" d="M76.5,62.5c0-0.3,0.4-0.3,0.4,0v7.2c0,0.3-0.3,0.3-0.4,0.1L71.3,63v6.7c0,0.3-0.4,0.3-0.4,0v-7.2
	c0-0.3,0.3-0.3,0.4-0.1l5.2,6.8V62.5z"/>
<path class="st2" d="M86.9,66.1c0.1-1.9,1.2-3.5,3.1-3.8c0.4-0.1,0.9-0.1,1.3,0c1.9,0.3,3.2,1.9,3.2,3.8c0.1,2.3-1.7,4.1-3.8,4.1
	C88.6,70.1,86.8,68.4,86.9,66.1 M87.3,66.1c-0.1,2.1,1.5,3.7,3.4,3.7s3.5-1.6,3.4-3.7c0-1.7-1.2-3.2-2.9-3.4c-0.4-0.1-0.8-0.1-1.2,0
	C88.3,62.9,87.3,64.4,87.3,66.1"/>
<path class="st2" d="M104.7,70c-0.2,0-0.2-0.1-0.2-0.2v-7.3c0-0.3,0.4-0.3,0.4,0v7.1h5c0.3,0,0.3,0.4,0,0.4
	C109.9,70,104.7,70,104.7,70z"/>
<path class="st2" d="M118.6,66.1c0.1-1.9,1.2-3.5,3.1-3.8c0.4-0.1,0.9-0.1,1.3,0c1.9,0.3,3.2,1.9,3.2,3.8c0.1,2.3-1.7,4.1-3.8,4.1
	C120.3,70.1,118.5,68.4,118.6,66.1 M119,66.1c-0.1,2.1,1.5,3.7,3.4,3.7s3.5-1.6,3.4-3.7c0-1.7-1.2-3.2-2.9-3.4
	c-0.4-0.1-0.8-0.1-1.2,0C120,62.9,119,64.4,119,66.1"/>
<path class="st2" d="M139.4,70.1c-2.1,0-3.8-1.7-3.8-4c0.1-1.8,1.3-3.5,3.2-3.8c1.2-0.2,2.6,0.2,3.4,1.1c0.2,0.2-0.1,0.5-0.3,0.3
	c-0.7-0.8-2-1.1-3.1-0.9c-1.7,0.3-2.8,1.8-2.9,3.5c0,2,1.5,3.5,3.4,3.6c1,0,2.1-0.4,2.7-1.3v-2h-2.6c-0.2,0-0.2-0.4,0-0.4h2.7
	c0.2,0,0.2,0.1,0.2,0.2v2.1c0,0.1,0,0.2-0.1,0.3C141.7,69.6,140.5,70.1,139.4,70.1"/>
<path class="st2" d="M155.1,66.9l-3.2-4.3c-0.2-0.2,0.1-0.5,0.3-0.2l3.1,4.2l3.1-4.2c0.2-0.2,0.5,0,0.3,0.2l-3.2,4.3v2.9
	c0,0.2-0.1,0.2-0.2,0.2c-0.1,0-0.2-0.1-0.2-0.2L155.1,66.9L155.1,66.9z"/>
<path class="st2" d="M186.8,62.5c0.1-0.2,0.4-0.1,0.4,0.1v7.3c0,0.3-0.4,0.3-0.4,0v-6.6l-3.1,4.9c-0.1,0.2-0.3,0.2-0.4,0l-3.1-4.8
	V70c0,0.3-0.4,0.3-0.4,0v-7.3c0-0.2,0.3-0.3,0.4-0.1l3.3,5.2L186.8,62.5z"/>
<path class="st2" d="M198.1,67.9L197,70c-0.1,0.2-0.5,0-0.3-0.2l3.8-7.5c0-0.1,0.1-0.1,0.2-0.1c0.1,0,0.1,0,0.2,0.1l3.8,7.5
	c0.1,0.2-0.2,0.4-0.3,0.2l-1.1-2.1H198.1z M200.6,62.7l-2.4,4.7h4.8L200.6,62.7z"/>
<path class="st2" d="M214.2,70c-0.2,0-0.3-0.1-0.3-0.3v-7c0-0.2,0.1-0.3,0.3-0.3h2.8c4.7,0,4.7,7.6,0,7.6H214.2z M214.3,69.6h2.7
	c4.2,0,4.2-6.9,0-6.9h-2.7V69.6z"/>
<path class="st2" d="M230.8,69.6h5.3c0.3,0,0.3,0.4,0,0.4h-5.4c-0.2,0-0.3-0.1-0.3-0.3v-7c0-0.2,0.1-0.3,0.3-0.3h5.4
	c0.2,0,0.2,0.4,0,0.4h-5.3V66h5.1c0.3,0,0.3,0.4,0,0.4h-5.1V69.6z"/>
<path class="st2" d="M258.1,69.6h5.3c0.3,0,0.3,0.4,0,0.4H258c-0.2,0-0.3-0.1-0.3-0.3v-7c0-0.2,0.1-0.3,0.3-0.3h5.4
	c0.2,0,0.2,0.4,0,0.4h-5.3V66h5.1c0.3,0,0.3,0.4,0,0.4h-5.1V69.6z"/>
<path class="st2" d="M274,67.9l-1,2.1c-0.1,0.2-0.5,0-0.3-0.2l3.8-7.5c0-0.1,0.1-0.1,0.2-0.1s0.1,0,0.2,0.1l3.8,7.5
	c0.1,0.2-0.2,0.4-0.3,0.2l-1.1-2.1H274z M276.6,62.7l-2.4,4.7h4.8L276.6,62.7z"/>
<path class="st2" d="M289.8,68.3c0.3,1,1.6,1.4,2.5,1.5c0.2,0,0.4,0,0.6,0c1.2,0,3-0.4,3-1.9c0-2.8-6.3-0.3-6.3-3.5
	c0-1.2,1.2-1.8,2.2-2c0.3-0.1,0.7-0.1,1-0.1c1.2,0,2.8,0.3,3.3,1.5c0.1,0.3-0.3,0.4-0.3,0.1c-0.4-1.1-1.9-1.3-2.9-1.3
	c-0.1,0-0.2,0-0.3,0c-0.9,0.1-2.1,0.4-2.4,1.3c-0.1,0.1-0.1,0.3-0.1,0.4c0,2.7,6.3,0.3,6.3,3.5c0,1.8-2,2.2-3.4,2.2
	c-1.2,0-3.1-0.3-3.5-1.7C289.3,68.2,289.7,68,289.8,68.3"/>
<path class="st2" d="M308.4,66.9l-3.2-4.3c-0.2-0.2,0.1-0.5,0.3-0.2l3.1,4.2l3.1-4.2c0.2-0.2,0.5,0,0.3,0.2l-3.2,4.3v2.9
	c0,0.2-0.1,0.2-0.2,0.2s-0.2-0.1-0.2-0.2L308.4,66.9L308.4,66.9z"/>
<g>
	<path d="M325.2,4.9c1.3,0,2.5,0.3,3.7,1s2.1,1.6,2.8,2.8c0.7,1.2,1,2.5,1,3.8s-0.3,2.5-1,3.7s-1.6,2.1-2.8,2.8
		c-1.2,0.7-2.4,1-3.7,1s-2.5-0.3-3.7-1s-2.1-1.6-2.8-2.8c-0.7-1.2-1-2.4-1-3.7s0.3-2.6,1-3.8s1.6-2.1,2.8-2.8S323.9,4.9,325.2,4.9z
		 M325.2,6.2c-1.1,0-2.1,0.3-3.1,0.8s-1.8,1.3-2.3,2.3c-0.6,1-0.8,2-0.8,3.1s0.3,2.1,0.8,3.1c0.6,1,1.3,1.8,2.3,2.3
		c1,0.6,2,0.8,3.1,0.8s2.1-0.3,3.1-0.8c1-0.6,1.8-1.3,2.3-2.3s0.8-2,0.8-3.1s-0.3-2.1-0.8-3.1c-0.6-1-1.3-1.8-2.3-2.3
		C327.3,6.4,326.2,6.2,325.2,6.2z M321.9,16.6V8.5h2.8c0.9,0,1.6,0.1,2.1,0.2c0.4,0.1,0.8,0.4,1,0.8c0.3,0.4,0.4,0.8,0.4,1.2
		c0,0.6-0.2,1.1-0.6,1.5s-1,0.7-1.7,0.7c0.3,0.1,0.5,0.3,0.7,0.4c0.3,0.3,0.7,0.9,1.2,1.6l1,1.6h-1.6l-0.7-1.3c-0.6-1-1-1.6-1.4-1.9
		c-0.2-0.2-0.6-0.3-1-0.3h-0.8v3.4h-1.4V16.6z M323.2,12h1.6c0.8,0,1.3-0.1,1.5-0.3c0.3-0.2,0.4-0.5,0.4-0.9c0-0.2-0.1-0.5-0.2-0.6
		s-0.3-0.3-0.6-0.4s-0.7-0.1-1.3-0.1h-1.5V12H323.2z"/>
</g>
</svg>
