<?xml version="1.0" encoding="utf-8"?>
<!-- Generator: Adobe Illustrator 23.0.3, SVG Export Plug-In . SVG Version: 6.00 Build 0)  -->
<svg version="1.1" xmlns="http://www.w3.org/2000/svg" xmlns:xlink="http://www.w3.org/1999/xlink" x="0px" y="0px"
	 viewBox="0 0 139 35.5" style="enable-background:new 0 0 139 35.5;" xml:space="preserve">
<style type="text/css">
	.st0{fill:#2A2A86;}
	.st1{fill:#F47321;}
</style>
<g id="Background_xA0_Image_1_">
</g>
<g id="www.goodreturns.in">
</g>
<g id="A_oneindia.in_Product">
</g>
<g id="good">
</g>
<g id="_x60_">
</g>
<g id="eturns">
	<g>
		<g>
			<path class="st0" d="M8.09,17.7c0,0.98-0.05,1.7-0.14,2.15c-0.09,0.45-0.25,0.84-0.48,1.16c-0.29,0.43-0.72,0.76-1.3,0.98
				c-0.57,0.22-1.27,0.34-2.08,0.34c-1.11,0-1.95-0.22-2.54-0.65c-0.58-0.43-0.88-1.06-0.9-1.88h2.55c0.02,0.22,0.11,0.39,0.28,0.51
				c0.16,0.12,0.39,0.18,0.68,0.18c0.49,0,0.83-0.15,1.03-0.45c0.2-0.3,0.29-0.85,0.29-1.64v-0.77c-0.22,0.42-0.5,0.73-0.85,0.93
				c-0.35,0.21-0.77,0.31-1.26,0.31c-1.1,0-1.87-0.42-2.3-1.25c-0.44-0.83-0.66-2.39-0.66-4.68c0-2.17,0.22-3.68,0.66-4.54
				c0.44-0.85,1.2-1.28,2.27-1.28c0.55,0,1.01,0.12,1.39,0.37c0.38,0.24,0.67,0.61,0.89,1.1V7.44h2.45V17.7z M4.23,9.27
				c-0.46,0-0.77,0.22-0.93,0.67c-0.17,0.45-0.25,1.53-0.25,3.26c0,1.51,0.08,2.47,0.25,2.89c0.17,0.41,0.48,0.62,0.93,0.62
				c0.51,0,0.87-0.24,1.06-0.73c0.19-0.49,0.28-1.71,0.28-3.69c0-1.23-0.1-2.05-0.28-2.44C5.1,9.47,4.75,9.27,4.23,9.27z"/>
			<path class="st0" d="M10,13.02c0-2.25,0.29-3.79,0.87-4.63c0.58-0.84,1.6-1.25,3.05-1.25c1.47,0,2.49,0.42,3.07,1.25
				c0.58,0.84,0.87,2.38,0.87,4.63c0,2.25-0.29,3.79-0.87,4.62c-0.58,0.83-1.6,1.25-3.07,1.25c-1.46,0-2.48-0.42-3.05-1.25
				C10.29,16.81,10,15.27,10,13.02z M12.64,12.9v0.26c0,1.73,0.09,2.79,0.26,3.17c0.17,0.39,0.51,0.58,1,0.58
				c0.51,0,0.86-0.18,1.04-0.55c0.18-0.36,0.27-1.31,0.27-2.83v-0.45v-0.64c0-1.46-0.09-2.38-0.27-2.75
				c-0.18-0.38-0.52-0.56-1.02-0.56c-0.49,0-0.82,0.17-1.01,0.52c-0.18,0.34-0.27,1.17-0.27,2.48V12.9z"/>
			<path class="st0" d="M19.43,13.02c0-2.25,0.29-3.79,0.87-4.63c0.58-0.84,1.6-1.25,3.05-1.25c1.47,0,2.49,0.42,3.07,1.25
				s0.87,2.38,0.87,4.63c0,2.25-0.29,3.79-0.87,4.62c-0.58,0.83-1.6,1.25-3.07,1.25c-1.46,0-2.48-0.42-3.05-1.25
				C19.72,16.81,19.43,15.27,19.43,13.02z M22.07,12.9v0.26c0,1.73,0.09,2.79,0.26,3.17c0.17,0.39,0.51,0.58,1,0.58
				c0.51,0,0.86-0.18,1.04-0.55c0.18-0.36,0.27-1.31,0.27-2.83v-0.45v-0.64c0-1.46-0.09-2.38-0.27-2.75
				c-0.18-0.38-0.52-0.56-1.02-0.56c-0.49,0-0.82,0.17-1.01,0.52c-0.18,0.34-0.27,1.17-0.27,2.48V12.9z"/>
			<path class="st0" d="M34.1,17.42c-0.21,0.48-0.51,0.85-0.89,1.09c-0.38,0.25-0.84,0.37-1.39,0.37c-1.07,0-1.83-0.43-2.27-1.28
				c-0.44-0.85-0.66-2.37-0.66-4.54c0-2.25,0.21-3.8,0.65-4.65s1.18-1.28,2.24-1.28c0.53,0,0.97,0.1,1.33,0.31
				c0.36,0.21,0.65,0.52,0.86,0.93V3.75h2.59v14.84H34.1V17.42z M31.51,12.85c0,1.72,0.08,2.8,0.25,3.25
				c0.17,0.44,0.48,0.66,0.93,0.66c0.51,0,0.87-0.2,1.06-0.59c0.19-0.4,0.28-1.21,0.28-2.43c0-1.97-0.1-3.2-0.28-3.69
				c-0.19-0.49-0.54-0.73-1.06-0.73c-0.45,0-0.76,0.21-0.93,0.63C31.59,10.36,31.51,11.33,31.51,12.85z"/>
		</g>
		<g>
			<path class="st1" d="M41.19,2.87h19.49v0.04c-1.15,1.77-1.8,2.71-1.94,2.84h-5.21c0.72,0.84,1.2,1.86,1.46,3.06h5.55
				c0.07,0.01,0.1,0.04,0.1,0.08c-1.24,1.86-1.88,2.8-1.9,2.8h-3.61c-0.08,0.96-0.54,2.11-1.38,3.46c-1.11,1.36-2.17,2.25-3.18,2.65
				c-1.89,0.9-3.7,1.36-5.43,1.36v0.04c0,0.13,0.43,0.7,1.28,1.68l9.62,11.61v0.55c0,0.05-0.03,0.08-0.1,0.08H51.7
				c-7.62-8.87-11.42-13.33-11.42-13.37v-2.69l0.04-0.1c0.68,0.1,1.47,0.14,2.37,0.14c4.27,0,6.92-1.38,7.96-4.15
				c0.16-0.4,0.24-0.82,0.24-1.26H39.3c-0.05,0-0.08-0.03-0.08-0.08c1.28-1.86,1.94-2.8,1.96-2.8h9.2V8.76
				c-0.53-1.07-1.55-1.9-3.06-2.49c-1.08-0.35-2.05-0.53-2.92-0.53h-5.15v-0.1C40.51,3.8,41.15,2.87,41.19,2.87z"/>
		</g>
		<g>
			<path class="st0" d="M69.26,20.37h4.15c-0.39,1.45-1.15,2.57-2.29,3.36c-1.14,0.79-2.55,1.19-4.23,1.19
				c-2.05,0-3.66-0.62-4.85-1.86c-1.19-1.24-1.78-2.93-1.78-5.08c0-2.18,0.6-3.91,1.8-5.19s2.81-1.91,4.84-1.91
				c2.1,0,3.74,0.65,4.94,1.94s1.8,3.08,1.8,5.36c0,0.21,0,0.37-0.01,0.48c0,0.11-0.01,0.2-0.02,0.29h-8.92
				c0,0.93,0.2,1.64,0.6,2.13c0.4,0.49,0.99,0.73,1.77,0.73c0.57,0,1.05-0.12,1.42-0.36S69.11,20.85,69.26,20.37z M64.56,16.53
				l4.91-0.01c-0.02-0.85-0.24-1.51-0.67-1.99c-0.43-0.48-1.03-0.72-1.78-0.72c-0.71,0-1.28,0.23-1.7,0.7
				C64.9,14.98,64.64,15.65,64.56,16.53z"/>
			<path class="st0" d="M74.5,13.94v-2.61h1.77V7.6h4.32v3.74h2.21v2.61h-2.21v5.72c0,0.87,0.11,1.45,0.34,1.74
				c0.23,0.28,0.65,0.42,1.27,0.42c0.14,0,0.24,0,0.32-0.01c0.08,0,0.15-0.01,0.22-0.02v2.75c-0.45,0.09-0.9,0.16-1.33,0.21
				c-0.43,0.05-0.85,0.07-1.26,0.07c-1.5,0-2.52-0.37-3.07-1.1c-0.55-0.73-0.83-2.29-0.83-4.68v-5.11H74.5z"/>
			<path class="st0" d="M97.31,11.33v13.19h-4.22V22.7c-0.52,0.74-1.1,1.28-1.75,1.63c-0.65,0.35-1.4,0.52-2.25,0.52
				c-1.46,0-2.55-0.37-3.29-1.12c-0.74-0.75-1.1-1.86-1.1-3.33v-9.06h4.32v7.38c0,1.08,0.14,1.83,0.41,2.24
				c0.27,0.41,0.74,0.61,1.41,0.61c0.75,0,1.3-0.25,1.64-0.75s0.52-1.31,0.52-2.43v-7.05H97.31z"/>
			<path class="st0" d="M100.32,24.52V11.33h4.15v2.31c0.46-0.91,1.04-1.57,1.72-1.98s1.56-0.63,2.62-0.65v4.27
				c-0.19-0.02-0.37-0.04-0.55-0.05c-0.18-0.01-0.35-0.02-0.52-0.02c-0.66,0-1.21,0.1-1.64,0.3c-0.43,0.2-0.78,0.5-1.04,0.92
				c-0.16,0.28-0.28,0.67-0.35,1.18s-0.1,1.34-0.1,2.49v4.43H100.32z"/>
			<path class="st0" d="M110.81,24.52V11.33h4.22v1.81c0.45-0.72,1.01-1.26,1.66-1.61c0.66-0.35,1.44-0.53,2.34-0.53
				c1.55,0,2.66,0.39,3.36,1.16c0.69,0.77,1.04,2.03,1.04,3.78v8.58h-4.32v-6.64c0-1.55-0.13-2.54-0.39-2.97s-0.74-0.64-1.43-0.64
				c-0.76,0-1.31,0.25-1.66,0.76s-0.52,1.31-0.52,2.42v7.06H110.81z"/>
			<path class="st0" d="M125.72,20.5h4.32c0.05,0.58,0.26,1.02,0.65,1.31s0.94,0.44,1.67,0.44c0.61,0,1.08-0.12,1.43-0.35
				c0.35-0.23,0.52-0.55,0.52-0.95c0-0.51-0.68-0.94-2.04-1.29c-0.73-0.19-1.31-0.35-1.76-0.5c-1.65-0.54-2.78-1.11-3.39-1.69
				c-0.61-0.59-0.91-1.36-0.91-2.31c0-1.33,0.51-2.38,1.53-3.15c1.02-0.76,2.42-1.15,4.21-1.15c1.91,0,3.38,0.33,4.42,0.98
				c1.04,0.65,1.62,1.62,1.75,2.92h-4.15c-0.09-0.44-0.29-0.77-0.61-0.99c-0.32-0.21-0.75-0.32-1.31-0.32c-0.52,0-0.92,0.1-1.2,0.3
				c-0.28,0.2-0.42,0.48-0.42,0.84c0,0.52,0.7,0.97,2.11,1.35c0.34,0.09,0.6,0.16,0.79,0.22c1.31,0.38,2.22,0.67,2.73,0.86
				c0.51,0.19,0.88,0.37,1.1,0.54c0.48,0.35,0.83,0.75,1.06,1.21c0.23,0.46,0.34,1,0.34,1.61c0,1.43-0.56,2.55-1.67,3.36
				c-1.12,0.81-2.67,1.21-4.67,1.21c-1.96,0-3.5-0.39-4.64-1.16C126.46,23.01,125.84,21.91,125.72,20.5z"/>
		</g>
	</g>
</g>
</svg>
