<?xml version="1.0" encoding="utf-8"?>
<!-- Generator: Adobe Illustrator 24.1.1, SVG Export Plug-In . SVG Version: 6.00 Build 0)  -->
<svg version="1.1" xmlns="http://www.w3.org/2000/svg" xmlns:xlink="http://www.w3.org/1999/xlink" x="0px" y="0px"
	 viewBox="0 0 139 35.5" style="enable-background:new 0 0 139 35.5;" xml:space="preserve">
<style type="text/css">
	.st0{fill:#FFFFFF;}
	.st1{fill:#F47321;}
</style>
<g id="Background_xA0_Image_1_">
</g>
<g id="www.goodreturns.in">
</g>
<g id="A_oneindia.in_Product">
</g>
<g id="good">
	<g>
		<path class="st0" d="M17.6,17.5c0,0.9,0,1.5-0.1,1.9c-0.1,0.4-0.2,0.7-0.4,1c-0.3,0.4-0.6,0.7-1.1,0.9c-0.5,0.2-1.1,0.3-1.8,0.3
			c-1,0-1.7-0.2-2.2-0.6c-0.5-0.4-0.8-0.9-0.8-1.6h2.2c0,0.2,0.1,0.3,0.2,0.4c0.1,0.1,0.3,0.2,0.6,0.2c0.4,0,0.7-0.1,0.9-0.4
			c0.2-0.3,0.3-0.7,0.3-1.4v-0.7c-0.2,0.4-0.4,0.6-0.7,0.8c-0.3,0.2-0.7,0.3-1.1,0.3c-1,0-1.6-0.4-2-1.1c-0.4-0.7-0.6-2.1-0.6-4
			c0-1.9,0.2-3.2,0.6-3.9c0.4-0.7,1-1.1,2-1.1c0.5,0,0.9,0.1,1.2,0.3c0.3,0.2,0.6,0.5,0.8,1v-1h2.1V17.5z M14.3,10.2
			c-0.4,0-0.7,0.2-0.8,0.6c-0.1,0.4-0.2,1.3-0.2,2.8c0,1.3,0.1,2.1,0.2,2.5c0.1,0.4,0.4,0.5,0.8,0.5c0.4,0,0.7-0.2,0.9-0.6
			c0.2-0.4,0.2-1.5,0.2-3.2c0-1.1-0.1-1.8-0.2-2.1C15,10.3,14.7,10.2,14.3,10.2z"/>
		<path class="st0" d="M19.3,13.4c0-1.9,0.3-3.3,0.8-4c0.5-0.7,1.4-1.1,2.6-1.1c1.3,0,2.2,0.4,2.7,1.1c0.5,0.7,0.8,2.1,0.8,4
			c0,1.9-0.3,3.3-0.8,4c-0.5,0.7-1.4,1.1-2.7,1.1c-1.3,0-2.1-0.4-2.6-1.1C19.5,16.7,19.3,15.3,19.3,13.4z M21.6,13.3v0.2
			c0,1.5,0.1,2.4,0.2,2.7c0.2,0.3,0.4,0.5,0.9,0.5c0.4,0,0.7-0.2,0.9-0.5c0.2-0.3,0.2-1.1,0.2-2.4v-0.4v-0.6c0-1.3-0.1-2.1-0.2-2.4
			c-0.2-0.3-0.5-0.5-0.9-0.5c-0.4,0-0.7,0.1-0.9,0.4c-0.2,0.3-0.2,1-0.2,2.1V13.3z"/>
		<path class="st0" d="M27.4,13.4c0-1.9,0.3-3.3,0.8-4c0.5-0.7,1.4-1.1,2.6-1.1c1.3,0,2.2,0.4,2.7,1.1c0.5,0.7,0.8,2.1,0.8,4
			c0,1.9-0.3,3.3-0.8,4c-0.5,0.7-1.4,1.1-2.7,1.1c-1.3,0-2.1-0.4-2.6-1.1C27.7,16.7,27.4,15.3,27.4,13.4z M29.7,13.3v0.2
			c0,1.5,0.1,2.4,0.2,2.7c0.2,0.3,0.4,0.5,0.9,0.5c0.4,0,0.7-0.2,0.9-0.5c0.2-0.3,0.2-1.1,0.2-2.4v-0.4v-0.6c0-1.3-0.1-2.1-0.2-2.4
			c-0.2-0.3-0.5-0.5-0.9-0.5c-0.4,0-0.7,0.1-0.9,0.4c-0.2,0.3-0.2,1-0.2,2.1V13.3z"/>
		<path class="st0" d="M40.1,17.2c-0.2,0.4-0.4,0.7-0.8,0.9c-0.3,0.2-0.7,0.3-1.2,0.3c-0.9,0-1.6-0.4-2-1.1c-0.4-0.7-0.6-2-0.6-3.9
			c0-1.9,0.2-3.3,0.6-4c0.4-0.7,1-1.1,1.9-1.1c0.5,0,0.8,0.1,1.2,0.3C39.6,8.8,39.8,9,40,9.4v-4h2.2v12.8h-2.1V17.2z M37.9,13.3
			c0,1.5,0.1,2.4,0.2,2.8c0.1,0.4,0.4,0.6,0.8,0.6c0.4,0,0.7-0.2,0.9-0.5c0.2-0.3,0.2-1,0.2-2.1c0-1.7-0.1-2.8-0.2-3.2
			c-0.2-0.4-0.5-0.6-0.9-0.6c-0.4,0-0.7,0.2-0.8,0.5C38,11.1,37.9,11.9,37.9,13.3z"/>
	</g>
</g>
<g id="_x60_">
	<g>
		<path class="st1" d="M46.3,4.6h16.9v0c-1,1.5-1.6,2.3-1.7,2.5H57c0.6,0.7,1,1.6,1.3,2.6H63c0.1,0,0.1,0,0.1,0.1
			c-1.1,1.6-1.6,2.4-1.6,2.4h-3.1c-0.1,0.8-0.5,1.8-1.2,3c-1,1.2-1.9,1.9-2.8,2.3c-1.6,0.8-3.2,1.2-4.7,1.2v0c0,0.1,0.4,0.6,1.1,1.5
			l8.3,10v0.5c0,0,0,0.1-0.1,0.1h-3.7c-6.6-7.7-9.9-11.5-9.9-11.6v-2.3l0-0.1c0.6,0.1,1.3,0.1,2.1,0.1c3.7,0,6-1.2,6.9-3.6
			c0.1-0.4,0.2-0.7,0.2-1.1h-10c0,0-0.1,0-0.1-0.1c1.1-1.6,1.7-2.4,1.7-2.4h8v0c-0.5-0.9-1.3-1.6-2.6-2.2c-0.9-0.3-1.8-0.5-2.5-0.5
			h-4.5V7C45.7,5.4,46.2,4.6,46.3,4.6z"/>
	</g>
</g>
<g id="eturns">
	<g>
		<path class="st0" d="M70.6,19.8h3.6c-0.3,1.3-1,2.2-2,2.9c-1,0.7-2.2,1-3.7,1c-1.8,0-3.2-0.5-4.2-1.6s-1.5-2.5-1.5-4.4
			c0-1.9,0.5-3.4,1.6-4.5c1-1.1,2.4-1.7,4.2-1.7c1.8,0,3.2,0.6,4.3,1.7c1,1.1,1.6,2.7,1.6,4.6c0,0.2,0,0.3,0,0.4s0,0.2,0,0.2h-7.7
			c0,0.8,0.2,1.4,0.5,1.8c0.3,0.4,0.9,0.6,1.5,0.6c0.5,0,0.9-0.1,1.2-0.3C70.2,20.5,70.4,20.2,70.6,19.8z M66.5,16.4l4.3,0
			c0-0.7-0.2-1.3-0.6-1.7s-0.9-0.6-1.5-0.6c-0.6,0-1.1,0.2-1.5,0.6C66.8,15.1,66.6,15.7,66.5,16.4z"/>
		<path class="st0" d="M75.1,14.2v-2.3h1.5V8.7h3.7v3.2h1.9v2.3h-1.9v4.9c0,0.8,0.1,1.3,0.3,1.5c0.2,0.2,0.6,0.4,1.1,0.4
			c0.1,0,0.2,0,0.3,0c0.1,0,0.1,0,0.2,0v2.4c-0.4,0.1-0.8,0.1-1.1,0.2c-0.4,0-0.7,0.1-1.1,0.1c-1.3,0-2.2-0.3-2.7-1s-0.7-2-0.7-4
			v-4.4H75.1z"/>
		<path class="st0" d="M94.8,11.9v11.4h-3.7v-1.6c-0.4,0.6-1,1.1-1.5,1.4c-0.6,0.3-1.2,0.5-1.9,0.5c-1.3,0-2.2-0.3-2.8-1
			s-1-1.6-1-2.9v-7.8h3.7v6.4c0,0.9,0.1,1.6,0.4,1.9c0.2,0.4,0.6,0.5,1.2,0.5c0.7,0,1.1-0.2,1.4-0.6s0.4-1.1,0.4-2.1v-6.1H94.8z"/>
		<path class="st0" d="M97.5,23.4V11.9h3.6v2c0.4-0.8,0.9-1.4,1.5-1.7s1.4-0.5,2.3-0.6v3.7c-0.2,0-0.3,0-0.5,0s-0.3,0-0.4,0
			c-0.6,0-1,0.1-1.4,0.3c-0.4,0.2-0.7,0.4-0.9,0.8c-0.1,0.2-0.2,0.6-0.3,1s-0.1,1.2-0.1,2.2v3.8H97.5z"/>
		<path class="st0" d="M106.5,23.4V11.9h3.7v1.6c0.4-0.6,0.9-1.1,1.4-1.4c0.6-0.3,1.2-0.5,2-0.5c1.3,0,2.3,0.3,2.9,1
			c0.6,0.7,0.9,1.8,0.9,3.3v7.4h-3.7v-5.7c0-1.3-0.1-2.2-0.3-2.6s-0.6-0.6-1.2-0.6c-0.7,0-1.1,0.2-1.4,0.7c-0.3,0.4-0.5,1.1-0.5,2.1
			v6.1H106.5z"/>
		<path class="st0" d="M119.4,19.9h3.7c0,0.5,0.2,0.9,0.6,1.1c0.3,0.3,0.8,0.4,1.4,0.4c0.5,0,0.9-0.1,1.2-0.3
			c0.3-0.2,0.5-0.5,0.5-0.8c0-0.4-0.6-0.8-1.8-1.1c-0.6-0.2-1.1-0.3-1.5-0.4c-1.4-0.5-2.4-1-2.9-1.5c-0.5-0.5-0.8-1.2-0.8-2
			c0-1.2,0.4-2.1,1.3-2.7c0.9-0.7,2.1-1,3.6-1c1.7,0,2.9,0.3,3.8,0.8c0.9,0.6,1.4,1.4,1.5,2.5h-3.6c-0.1-0.4-0.3-0.7-0.5-0.9
			s-0.7-0.3-1.1-0.3c-0.4,0-0.8,0.1-1,0.3c-0.2,0.2-0.4,0.4-0.4,0.7c0,0.4,0.6,0.8,1.8,1.2c0.3,0.1,0.5,0.1,0.7,0.2
			c1.1,0.3,1.9,0.6,2.4,0.7s0.8,0.3,1,0.5c0.4,0.3,0.7,0.7,0.9,1.1c0.2,0.4,0.3,0.9,0.3,1.4c0,1.2-0.5,2.2-1.4,2.9
			c-1,0.7-2.3,1.1-4,1.1c-1.7,0-3-0.3-4-1C120.1,22,119.5,21.1,119.4,19.9z"/>
	</g>
</g>
</svg>
