<?xml version="1.0" encoding="utf-8"?>
<!-- Generator: Adobe Illustrator 24.1.1, SVG Export Plug-In . SVG Version: 6.00 Build 0)  -->
<svg version="1.1" id="Layer_1" xmlns="http://www.w3.org/2000/svg" xmlns:xlink="http://www.w3.org/1999/xlink" x="0px" y="0px"
	 viewBox="0 0 901.2 245.3" style="enable-background:new 0 0 901.2 245.3;" xml:space="preserve">
<style type="text/css">
	.st0{fill-rule:evenodd;clip-rule:evenodd;fill:#FFFFFF;}
</style>
<g>
	<path class="st0" d="M134.2,25.9c-69.3,0-111.3,48-111.3,106c0,58,42.7,105.2,111.3,105.2c64.9,0,108.8-47.2,108.8-105.2
		C243,73.8,197.5,25.9,134.2,25.9L134.2,25.9z M133,193.5L133,193.5c-33.5,0-60.9-28.2-60.9-61.7c0-33.9,27.4-62.1,60.9-62.1
		c33.9,0,60.1,28.2,60.1,62.1C193,165.3,166.8,193.5,133,193.5L133,193.5z"/>
	<path class="st0" d="M260.7,29.9h46.8v34.7c0,0,12.1-38.3,64.5-38.3c52,0,71.7,33.9,71.7,76.6s0,130.6,0,130.6h-48.4
		c0,0,0-85.4,0-108.8c0-23.4-6.5-54.4-38.7-54.4c-32.7,0-46.3,23.4-46.3,51.6c0,27.8,0,110.8,0,110.8h-49.6V29.9L260.7,29.9z"/>
	<path class="st0" d="M567.5,198.4c-51.6-0.4-56-50-56-50h155.2c0-33.9,0-46.8-7.7-65.7c-8-18.9-28.2-57.6-87.1-57.6
		c-58.8,0-110.4,39.1-110.4,105.6c0,66.1,51.6,107.6,110.8,107.6c59.7,0,85.9-40.3,85.9-40.3l-35.9-27.4
		C622.3,170.6,603.3,198.4,567.5,198.4L567.5,198.4z M564.7,62.5L564.7,62.5c54,0,52,48.8,52,48.8H512.3
		C512.3,111.3,516.7,62.9,564.7,62.5L564.7,62.5z"/>
	<polygon class="st0" points="756.6,232.6 742.4,232.6 742.4,128.8 756.6,128.8 756.6,232.6 	"/>
	<path class="st0" d="M836.9,141.4c29.8,0,26.6,31.5,26.6,43.3c0,5.7,0,49.8,0,49.8h14.4c0,0,0-50.7,0-64.4
		c0-13.7-1.1-22.6-11.4-32.9c-4-3.8-14.1-8.9-26.8-8.9c-5.5,0-15.4,1.3-24.1,7.4c-8.7,6.1-11,10.3-12,12v-17.1h-14.4v103.9h14.2
		c0,0,0-35.7,0-47.3c0-12.9,0.2-21.3,6.1-30.8C815.4,146.9,824.1,141.4,836.9,141.4L836.9,141.4z"/>
	<path class="st0" d="M760.6,97.9c0,6.3-4.9,11.2-11.2,11.2c-6.1,0-11.2-4.9-11.2-11.2c0-6.1,5.1-11.2,11.2-11.2
		C755.7,86.7,760.6,91.8,760.6,97.9L760.6,97.9z"/>
	<path class="st0" d="M701.9,216.6c0,6.3-4.9,11.2-11.2,11.2c-6.1,0-11.2-4.9-11.2-11.2c0-6.1,5.1-11.2,11.2-11.2
		C697,205.4,701.9,210.5,701.9,216.6L701.9,216.6z"/>
</g>
</svg>
