<?xml version="1.0" encoding="utf-8"?>
<!-- Generator: Adobe Illustrator 19.2.1, SVG Export Plug-In . SVG Version: 6.00 Build 0)  -->
<svg version="1.1" id="Layer_1" xmlns="http://www.w3.org/2000/svg" xmlns:xlink="http://www.w3.org/1999/xlink" x="0px" y="0px"
	 viewBox="0 0 340 130.7" style="enable-background:new 0 0 340 130.7;" xml:space="preserve">
<style type="text/css">
	.st0{fill-rule:evenodd;clip-rule:evenodd;fill:#F37321;}
	.st1{fill-rule:evenodd;clip-rule:evenodd;fill:#449D46;}
	.st2{fill-rule:evenodd;clip-rule:evenodd;fill:#354395;}
	.st3{fill-rule:evenodd;clip-rule:evenodd;fill:#FFFFFF;}
	.st4{fill:#F37321;}
</style>
<path class="st0" d="M142.3,20.7c2.8-1.7,6.3-3.2,11-4.9c3.6-1.2,5.1-0.7,8.8-1.6c1.8-0.5,12.1-3.1,15.6-4c3.6-1,8.1-1.6,13.7-2
	c5.5-0.4,13.3-1,17.1-1.1c3.8-0.2,12.1-0.3,16.8,0.2c4.7,0.5,4.3,0.3,5.4,1.1c1,0.8,1.5,0.6,1.6,0.3c0.2-0.2-1-0.8-1-0.8
	s1.7,0.3,3.3,0.6c1.7,0.4,3,0.4,3.5,0.6c0.5,0.1,0.4,0.6,0.9,0.6c0.5,0,2.3-0.1,3.7,0.4c1.4,0.5,2.3,0.3,2.9,0.6
	c0.6,0.2,0.6,0.6,1.1,0.6c0.5,0,0.4-0.3,1.3,0c0.8,0.3,2.6,0.6,4.5,1.3c2,0.6,2.9,0.8,4,1.3c1.1,0.4,1.7,1.4,2.2,1.5
	c0,0-1.3,0-2.6-0.1c-1.3-0.2-4.9-0.3-5.5-0.4c-1-0.1-2.1-1.1-3.7-1.4c-1.5-0.2-1.9,0.6-2.9,0.6c-1,0-0.3-1-1.8-0.9
	c-1.4,0.1-1.9,0.2-2.3,0.2c-0.2,0,0.1,0.6-0.1,0.7c-0.2,0-3.7-0.1-4.6-0.2c-0.9-0.2-2.6-0.9-4.5-1c-1.9-0.1-3.8,0.2-5.8,0.7
	c-2,0.6-5.4,0.1-9.9,0.3c-4.4,0.3-12.2,1.3-17.4,2.3c-5.2,1-7.1,0.5-11.2,1.4c-4.2,1-5.2,1.1-7.2,1.4c-2,0.3-6.8,2.2-9.3,3.3
	c-2.5,1.1-5.1,1.3-6.5,1.3c-1.4,0-2.3-0.5-4.1-0.5c-1.8,0-6.7,1.1-6.7,2.8c0,0-0.9,0-1.9,0.3c-1,0.2-3.2,0.9-4.5,1.5
	c-1.2,0.6-2.8,0-3.2-0.1c-0.3-0.1-1.1-0.2-1.5,0.1c0,0,0.1-0.5-0.2-0.8c-0.3-0.2-1.1-1.4-1.1-2.2C140.2,24.2,140.4,21.9,142.3,20.7
	L142.3,20.7z"/>
<path class="st1" d="M270.7,28.9c1.1,0.6,2.2,1.4,2.2,1.5c0,0,0.4,0.2-2.3-0.4c-1.2-0.2-5-0.5-5.6-0.6c-1.8-0.3-2.7-1.3-3.7-1.5
	c-1.5-0.2-2.3,0.5-2.8,0.5c-1.2-0.1-0.2-0.9-1.5-0.9c-1.4,0.1-2.2,0.2-2.4,0.1c-0.3,0-0.2,0.7-0.4,0.7c-0.2,0.1-3.5-0.2-4.5-0.4
	c-1.5-0.2-2.8-1-4.9-1.1c-1.9-0.2-3.2,0.2-5.7,0.6c-2.2,0.3-5.6-0.2-10.1-0.1c-4.5,0.1-12.4,0.7-17.8,1.4c-5.4,0.7-7.2,0.2-11.5,0.9
	c-4.3,0.6-5.3,0.8-7.4,1c-2.1,0.2-7,1.8-9.6,2.7c-2.6,0.9-5.3,1-6.7,0.9c-1.4,0-2.3-0.5-4.1-0.6c-1.9,0-7.3,0.7-7.2,2.4
	c0,0-0.9,0-1.9,0.2c-1,0.2-3,0.6-4.2,1.1c-1.3,0.6-2.8,0-3.2-0.2c-0.3-0.1-1.2-0.2-1.5,0.1c0,0,0.1-0.5-0.2-0.7
	c-0.3-0.2-1.1-1.3-1.1-2c0-0.7,0.3-2.6,2.4-3.7c2.8-1.5,6.5-2.8,11.3-4.1c3.7-1,5.3-0.4,8.9-1.1c1.9-0.3,12.5-2.4,16.1-3.2
	c3.7-0.7,8.4-1,14-1.2c5.7-0.2,13.6-0.6,17.5-0.6s12.8,0.2,17.6,0.7c4.8,0.6,4.3,0.5,5.4,1.2c1.1,0.7,1.9,0.6,2.1,0.3
	c0.2-0.2-0.9-0.7-0.9-0.7s0.9,0.3,2.5,0.7c1.7,0.4,3.6,0.6,4.1,0.8c0.5,0.2,0.4,0.6,0.9,0.7c0.5,0,1.7-0.1,3.1,0.3
	c1.4,0.5,2.4,0.5,3,0.7c0.6,0.2,0.6,0.6,1.1,0.6c0.5,0,0.4-0.2,1.3,0.1c0.8,0.3,2.1,0.6,4.1,1.2c0.5,0.2,1.7,0.7,2,0.8
	C269.4,28.5,270.3,28.6,270.7,28.9L270.7,28.9z"/>
<path class="st0" d="M262.2,15c0.1,0.2,0,0.5,0.2,0.5c0.2,0,0.4,0,0.6,0.1c0.2,0.1,0.2,0,0.3,0.2c0.1,0.2,0.2,0.2,0.5,0.2
	c0.2-0.1,0.3-0.3,0.2-0.4c-0.2-0.1-0.2-0.2-0.5-0.2c-0.2,0-0.2,0.1-0.4,0c-0.2-0.2-0.2-0.2-0.2-0.3c-0.2-0.2-0.2-0.2-0.5-0.2
	C262.1,14.9,262.2,15,262.2,15L262.2,15z"/>
<path class="st0" d="M266.3,16.7c0.2,0.2-0.2,0.2,0.1,0.4c0.2,0.1,0.2,0,0.3,0.2c0.1,0.2,0.2,0.2,0.3,0.2c0.2,0,0.2,0.2,0.3-0.1
	c0-0.2,0-0.5-0.2-0.5c-0.2-0.1-0.2,0.1-0.2-0.1c-0.1-0.1,0-0.2-0.2-0.2C266.4,16.6,266.2,16.5,266.3,16.7L266.3,16.7z"/>
<path class="st0" d="M254.9,16.7c0,0.2-0.1,0.3,0.1,0.5c0.2,0.1,0.5,0.1,0.8,0.1c0.3,0.1,0.5,0.2,1,0.2c0.4,0.2,0.7,0.2,1.1,0.3
	c0.4,0.1,0.5,0.2,1,0.2c0.5,0.1,0.5,0.2,0.7,0.2c0.3,0.1,0.6,0.2,1,0.3c0.4,0.1,0.5,0,0.9,0.1c0.5,0.2,0.5,0.1,0.8,0.2
	c0.2,0.2,0.6,0.2,0.9,0.2c0.2,0,0.5,0,0.5,0s-0.2-0.2-0.2-0.4c-0.1-0.2-0.4-0.7-1-0.6c-0.7,0-1.1-0.1-1.5-0.2c-0.4,0-0.7,0-1.1-0.1
	c-0.2-0.1-0.6-0.2-0.7-0.4c-0.2-0.1-0.3-0.3-0.6-0.5c-0.2-0.2-0.2-0.4-0.5-0.5c-0.3-0.1-1-0.2-1.4-0.2c-0.4,0-1.1-0.1-1.4,0
	C255,16.4,255,16.4,254.9,16.7L254.9,16.7L254.9,16.7z"/>
<path class="st0" d="M264.2,19.3c0.4-0.1,0.2-0.2,0.7-0.2c0.6,0,1.2,0.1,1.4,0.2c0.1,0,0.6-0.1,1.2,0.3c0.5,0.3,0.6,0.2,0.9,0.5
	c0.2,0.2,0.6,0.2,0.4,0.3c-0.2,0-0.7-0.1-1.1-0.2c-0.3-0.2-0.9-0.3-1.3-0.4c-0.5-0.1-0.7-0.1-1.1-0.2c-0.4-0.1-0.7-0.1-0.9-0.2
	C264.2,19.5,263.8,19.3,264.2,19.3L264.2,19.3z"/>
<path class="st0" d="M274.1,21.2c-0.1,0.1,0.3,0.6,0.9,0.7c0.6,0.2,0.6,0.5,1.1,0.7c0.4,0.3,0.6,0.6,1,0.8c0.3,0.2,0.4,0.2,0.8,0.5
	c0.4,0.2,0.8,0.5,1,0.3c0.1-0.2,0-0.3-0.3-0.6c-0.2-0.2-1.3-1-1.8-1.3c-0.5-0.3-1.1-0.7-1.5-0.9C275,21.3,274.2,21,274.1,21.2
	L274.1,21.2z"/>
<path class="st2" d="M25.1,48.4c-14,0-22.4,9.6-22.4,21.3c0,11.8,8.6,21.3,22.4,21.3c13.1,0,21.9-9.5,21.9-21.3
	C47,58,37.8,48.4,25.1,48.4L25.1,48.4L25.1,48.4z M24.8,82.1c-6.7,0-12.3-5.6-12.3-12.4c0-6.7,5.5-12.5,12.3-12.5
	c6.8,0,12.1,5.8,12.1,12.5C36.9,76.5,31.6,82.1,24.8,82.1L24.8,82.1z"/>
<path class="st2" d="M50.5,49.2h9.4v7c0,0,2.4-7.7,13-7.7c10.5,0,14.4,6.7,14.4,15.4c0,8.6,0,26.3,0,26.3h-9.7c0,0,0-17.2,0-21.9
	c0-4.8-1.3-11-7.8-11c-6.6,0-9.3,4.7-9.3,10.3s0,22.3,0,22.3h-10V49.2L50.5,49.2z"/>
<path class="st2" d="M112.3,83C101.9,83,101,73,101,73h31.2c0-6.8,0-9.4-1.5-13.2c-1.6-3.8-5.7-11.7-17.5-11.7
	c-11.8,0-22.2,8-22.2,21.3c0,13.4,10.4,21.7,22.3,21.7c12,0,17.3-8.2,17.3-8.2l-7.2-5.5C123.3,77.4,119.5,83.1,112.3,83L112.3,83
	L112.3,83z M111.7,55.8c10.9,0,10.5,9.7,10.5,9.7h-21C101.2,65.5,102.1,55.8,111.7,55.8L111.7,55.8z"/>
<polygon class="st2" points="142.5,89.9 137.1,89.9 137.1,50.1 142.5,50.1 142.5,89.9 "/>
<path class="st2" d="M168.5,54.2c11.4,0,10.2,12,10.2,16.6c0,2.3,0,19.1,0,19.1h5.5c0,0,0-19.5,0-24.7c0-5.3-0.4-8.6-4.4-12.6
	c-1.5-1.5-5.4-3.4-10.3-3.4c-2.1,0-5.9,0.5-9.2,2.8c-3.3,2.3-4.2,4-4.6,4.5v-6.5h-5.5v39.8h5.4c0,0,0-13.7,0-18.1
	c0-4.9,0.1-8.2,2.4-11.8C160.2,56.3,163.6,54.2,168.5,54.2L168.5,54.2z"/>
<path class="st2" d="M225.2,32.6V57c-1.3-2-6.6-8-16.2-8c-9.6,0-20.7,7.2-20.7,20.7c0,13.5,9.9,21.3,21,21.3c11.2,0,16-7.7,16-7.7
	v6.7h5.4V32.6H225.2L225.2,32.6L225.2,32.6z M209.9,86.1c-9.3,0-15.6-7.1-15.6-15.8c0-9.5,6.3-16.3,15.6-16.3
	c8.7,0,15.7,7.6,15.7,16.3C225.6,79,218.6,86.1,209.9,86.1L209.9,86.1z"/>
<polygon class="st2" points="243.7,89.9 238.4,89.9 238.4,50.3 243.7,50.3 243.7,89.9 "/>
<path class="st2" d="M245.1,38.2c0,2.4-1.9,4.3-4.3,4.3c-2.4,0-4.4-1.9-4.4-4.3c0-2.4,1.9-4.3,4.4-4.3
	C243.2,33.9,245.1,35.8,245.1,38.2L245.1,38.2z"/>
<path class="st2" d="M144.1,38.2c0,2.4-1.9,4.3-4.3,4.3c-2.4,0-4.3-1.9-4.3-4.3c0-2.4,1.9-4.3,4.3-4.3
	C142.2,33.9,144.1,35.8,144.1,38.2L144.1,38.2z"/>
<path class="st2" d="M282,79.7c0-6.5,0-14,0-16.7c0-2.6-0.2-8.9-7.2-12.3c-6.9-3.4-19.5-0.8-23.9,4.1l3.3,4.1c0,0,2.9-2.8,6.7-4
	c3.7-1.2,12.3-1.5,14.6,3.8c0,0,1.3,2.5,1.3,7.1c0,0-7,0-10.2,0.2c-3,0.2-17.6,0.9-17.6,14c0,2.8,1.6,10.9,14.4,10.9
	c10,0,13.5-7.3,13.5-7.3s0.4,6.4,1,6.4l4.9-0.2C282.7,89.9,282,86.2,282,79.7L282,79.7L282,79.7z M264.7,86
	c-12.4,0-13.2-13.3-0.4-15.1c0,0,8.8-1.3,12.4-0.6C276.7,70.4,278.4,86,264.7,86L264.7,86z"/>
<path class="st1" d="M269.2,31.6c0,0.2,0.2,0.2,0.8,0.3c0.6,0.1,1.9,0.4,2.4,0.6c0.4,0.2,1.1,0.6,1.9,0.9c0.7,0.2,0.3,0-0.5-0.5
	c-0.8-0.5-1-0.4-1.2-0.9c-0.2-0.5-0.3-0.7-1.1-0.7c-0.7,0-1.5-0.1-1.8-0.1C269.6,31.2,269.2,31.3,269.2,31.6L269.2,31.6z"/>
<polygon class="st0" points="310.1,19.8 312.4,26.3 317.6,21.8 317.5,28.7 323.9,26.2 321.4,32.6 328.3,32.5 323.8,37.7 330.3,39.9 
	324.3,43.3 329.6,47.6 322.9,48.7 326.4,54.6 319.7,53.3 321,60.1 315,56.6 314,63.3 309.7,58 306.4,64 304.1,57.5 298.9,62 
	299,55.2 292.6,57.6 295,51.2 288.1,51.3 292.6,46.1 286.2,43.9 292.1,40.5 286.8,36.2 293.5,35.2 290,29.2 296.8,30.5 295.5,23.8 
	301.3,27.3 302.5,20.5 306.8,25.8 310.1,19.8 "/>
<polygon class="st3" points="311.7,31.5 311.7,52.8 307.6,52.8 307.6,36 303.2,40.1 300.8,37.4 307.3,31.5 311.7,31.5 "/>
<g>
	<path class="st4" d="M6.9,104.6V122H4.7v-17.4H6.9z"/>
	<path class="st4" d="M11.1,112.9c0-1.3,0-2.4-0.1-3.4h2l0.1,2.1h0.1c0.6-1.2,2.1-2.4,4.1-2.4c1.7,0,4.4,1,4.4,5.3v7.5h-2.3v-7.2
		c0-2-0.7-3.7-2.9-3.7c-1.5,0-2.7,1.1-3,2.3c-0.1,0.3-0.2,0.7-0.2,1.1v7.5h-2.3V112.9z"/>
	<path class="st4" d="M36.2,103.7v15.1c0,1.1,0,2.4,0.1,3.2h-2l-0.1-2.2h-0.1c-0.7,1.4-2.2,2.5-4.3,2.5c-3,0-5.3-2.6-5.3-6.4
		c0-4.2,2.6-6.7,5.6-6.7c1.9,0,3.2,0.9,3.8,1.9h0.1v-7.5H36.2z M33.9,114.6c0-0.3,0-0.7-0.1-1c-0.3-1.4-1.6-2.6-3.3-2.6
		c-2.4,0-3.7,2.1-3.7,4.8c0,2.5,1.2,4.6,3.7,4.6c1.5,0,2.9-1,3.3-2.7c0.1-0.3,0.1-0.6,0.1-1V114.6z"/>
	<path class="st4" d="M42.5,106c0,0.8-0.5,1.4-1.4,1.4c-0.8,0-1.4-0.6-1.4-1.4c0-0.8,0.6-1.4,1.4-1.4C42,104.6,42.5,105.2,42.5,106z
		 M40,122v-12.5h2.3V122H40z"/>
	<path class="st4" d="M52.9,122l-0.2-1.6h-0.1c-0.7,1-2,1.9-3.8,1.9c-2.5,0-3.8-1.8-3.8-3.6c0-3,2.7-4.7,7.5-4.7v-0.3
		c0-1-0.3-2.9-2.8-2.9c-1.2,0-2.4,0.4-3.3,0.9l-0.5-1.5c1-0.7,2.5-1.1,4.1-1.1c3.8,0,4.8,2.6,4.8,5.1v4.7c0,1.1,0.1,2.1,0.2,3H52.9z
		 M52.6,115.6c-2.5-0.1-5.3,0.4-5.3,2.8c0,1.5,1,2.2,2.1,2.2c1.6,0,2.7-1,3-2.1c0.1-0.2,0.1-0.5,0.1-0.7V115.6z"/>
	<path class="st4" d="M59.9,104.3l-0.4,6.2H58l-0.4-6.2H59.9z"/>
	<path class="st4" d="M62.7,119.7c0.7,0.4,1.9,0.9,3,0.9c1.7,0,2.4-0.8,2.4-1.9c0-1.1-0.6-1.7-2.3-2.3c-2.2-0.8-3.3-2-3.3-3.5
		c0-2,1.6-3.7,4.3-3.7c1.3,0,2.4,0.4,3.1,0.8l-0.6,1.7c-0.5-0.3-1.4-0.7-2.6-0.7c-1.3,0-2.1,0.8-2.1,1.7c0,1,0.7,1.5,2.4,2.1
		c2.2,0.8,3.3,1.9,3.3,3.8c0,2.2-1.7,3.7-4.7,3.7c-1.4,0-2.6-0.3-3.5-0.9L62.7,119.7z"/>
	<path class="st4" d="M79.3,122l0.7-5.1h-2.1v-1.5h2.4l0.5-3.7h-2.2v-1.5h2.5l0.7-4.9h1.5l-0.6,4.9h2.7l0.7-4.9h1.5l-0.6,4.9h2.1
		v1.5h-2.4l-0.5,3.7h2.2v1.5h-2.5l-0.7,5.1h-1.5l0.7-5.1h-2.7l-0.7,5.1H79.3z M84.4,115.4l0.5-3.7h-2.7l-0.5,3.7H84.4z"/>
	<path class="st4" d="M95.8,107.3L95.8,107.3l-3,1.6l-0.4-1.7l3.7-2H98V122h-2.2V107.3z"/>
	<path class="st4" d="M110.4,104.6h2.2v15.5h7.4v1.9h-9.7V104.6z"/>
	<path class="st4" d="M129.4,122l-0.2-1.6h-0.1c-0.7,1-2,1.9-3.8,1.9c-2.5,0-3.8-1.8-3.8-3.6c0-3,2.7-4.7,7.5-4.7v-0.3
		c0-1-0.3-2.9-2.8-2.9c-1.2,0-2.4,0.4-3.3,0.9l-0.5-1.5c1-0.7,2.5-1.1,4.1-1.1c3.8,0,4.8,2.6,4.8,5.1v4.7c0,1.1,0.1,2.1,0.2,3H129.4
		z M129.1,115.6c-2.5-0.1-5.3,0.4-5.3,2.8c0,1.5,1,2.2,2.1,2.2c1.6,0,2.7-1,3-2.1c0.1-0.2,0.1-0.5,0.1-0.7V115.6z"/>
	<path class="st4" d="M135,112.9c0-1.3,0-2.4-0.1-3.4h2l0.1,2.1h0.1c0.6-1.2,2.1-2.4,4.1-2.4c1.7,0,4.4,1,4.4,5.3v7.5h-2.3v-7.2
		c0-2-0.7-3.7-2.9-3.7c-1.5,0-2.7,1.1-3,2.3c-0.1,0.3-0.2,0.7-0.2,1.1v7.5H135V112.9z"/>
	<path class="st4" d="M160.1,109.5c-0.1,0.9-0.1,1.9-0.1,3.4v7.3c0,2.9-0.6,4.6-1.8,5.7c-1.2,1.1-3,1.5-4.5,1.5
		c-1.5,0-3.2-0.4-4.2-1l0.6-1.7c0.8,0.5,2.1,1,3.7,1c2.3,0,4-1.2,4-4.4v-1.4h-0.1c-0.7,1.2-2,2.1-4,2.1c-3.1,0-5.3-2.6-5.3-6.1
		c0-4.2,2.8-6.6,5.6-6.6c2.2,0,3.4,1.1,3.9,2.2h0.1l0.1-1.9H160.1z M157.7,114.4c0-0.4,0-0.7-0.1-1c-0.4-1.3-1.5-2.4-3.2-2.4
		c-2.2,0-3.7,1.8-3.7,4.7c0,2.5,1.2,4.5,3.7,4.5c1.4,0,2.7-0.9,3.2-2.3c0.1-0.4,0.2-0.8,0.2-1.2V114.4z"/>
	<path class="st4" d="M174.2,118.6c0,1.3,0,2.4,0.1,3.4h-2l-0.1-2h-0.1c-0.6,1-1.9,2.3-4.1,2.3c-2,0-4.3-1.1-4.3-5.5v-7.3h2.3v6.9
		c0,2.4,0.7,4,2.8,4c1.5,0,2.6-1.1,3-2.1c0.1-0.3,0.2-0.7,0.2-1.2v-7.7h2.3V118.6z"/>
	<path class="st4" d="M184.9,122l-0.2-1.6h-0.1c-0.7,1-2,1.9-3.8,1.9c-2.5,0-3.8-1.8-3.8-3.6c0-3,2.7-4.7,7.5-4.7v-0.3
		c0-1-0.3-2.9-2.8-2.9c-1.2,0-2.4,0.4-3.3,0.9l-0.5-1.5c1-0.7,2.5-1.1,4.1-1.1c3.8,0,4.8,2.6,4.8,5.1v4.7c0,1.1,0.1,2.1,0.2,3H184.9
		z M184.6,115.6c-2.5-0.1-5.3,0.4-5.3,2.8c0,1.5,1,2.2,2.1,2.2c1.6,0,2.7-1,3-2.1c0.1-0.2,0.1-0.5,0.1-0.7V115.6z"/>
	<path class="st4" d="M201.2,109.5c-0.1,0.9-0.1,1.9-0.1,3.4v7.3c0,2.9-0.6,4.6-1.8,5.7c-1.2,1.1-3,1.5-4.5,1.5
		c-1.5,0-3.2-0.4-4.2-1l0.6-1.7c0.8,0.5,2.1,1,3.7,1c2.3,0,4-1.2,4-4.4v-1.4h-0.1c-0.7,1.2-2,2.1-4,2.1c-3.1,0-5.3-2.6-5.3-6.1
		c0-4.2,2.8-6.6,5.6-6.6c2.2,0,3.4,1.1,3.9,2.2h0.1l0.1-1.9H201.2z M198.9,114.4c0-0.4,0-0.7-0.1-1c-0.4-1.3-1.5-2.4-3.2-2.4
		c-2.2,0-3.7,1.8-3.7,4.7c0,2.5,1.2,4.5,3.7,4.5c1.4,0,2.7-0.9,3.2-2.3c0.1-0.4,0.2-0.8,0.2-1.2V114.4z"/>
	<path class="st4" d="M206.2,116.2c0.1,3.1,2,4.3,4.3,4.3c1.6,0,2.6-0.3,3.5-0.6l0.4,1.6c-0.8,0.4-2.2,0.8-4.2,0.8
		c-3.8,0-6.1-2.5-6.1-6.3s2.2-6.7,5.9-6.7c4.1,0,5.2,3.6,5.2,5.9c0,0.5-0.1,0.8-0.1,1.1H206.2z M212.8,114.5c0-1.4-0.6-3.7-3.2-3.7
		c-2.3,0-3.3,2.1-3.5,3.7H212.8z"/>
	<path class="st4" d="M223.4,104.8c1.1-0.2,2.5-0.3,4.3-0.3c2.2,0,3.8,0.5,4.9,1.4c1,0.8,1.5,2.1,1.5,3.6c0,1.6-0.5,2.8-1.3,3.7
		c-1.2,1.3-3.1,1.9-5.3,1.9c-0.7,0-1.3,0-1.8-0.2v7h-2.2V104.8z M225.6,113.2c0.5,0.1,1.1,0.2,1.9,0.2c2.7,0,4.4-1.3,4.4-3.7
		c0-2.3-1.6-3.4-4.1-3.4c-1,0-1.7,0.1-2.1,0.2V113.2z"/>
	<path class="st4" d="M247.7,115.6c0,4.6-3.2,6.6-6.2,6.6c-3.4,0-6-2.5-6-6.4c0-4.2,2.7-6.6,6.2-6.6
		C245.3,109.2,247.7,111.8,247.7,115.6z M237.8,115.8c0,2.7,1.6,4.8,3.8,4.8c2.2,0,3.8-2,3.8-4.9c0-2.1-1.1-4.8-3.7-4.8
		S237.8,113.4,237.8,115.8z"/>
	<path class="st4" d="M250.6,113.4c0-1.5,0-2.7-0.1-3.9h2l0.1,2.5h0.1c0.6-1.7,1.9-2.7,3.5-2.7c0.3,0,0.4,0,0.6,0.1v2.1
		c-0.2-0.1-0.5-0.1-0.8-0.1c-1.6,0-2.7,1.2-3,2.9c-0.1,0.3-0.1,0.7-0.1,1.1v6.7h-2.2V113.4z"/>
	<path class="st4" d="M262.4,105.9v3.6h3.3v1.7h-3.3v6.7c0,1.6,0.4,2.4,1.7,2.4c0.6,0,1-0.1,1.3-0.2l0.1,1.7c-0.4,0.2-1.1,0.3-2,0.3
		c-1.1,0-1.9-0.3-2.5-1c-0.6-0.7-0.9-1.8-0.9-3.3v-6.8h-1.9v-1.7h1.9v-3L262.4,105.9z"/>
	<path class="st4" d="M275.1,122l-0.2-1.6h-0.1c-0.7,1-2,1.9-3.8,1.9c-2.5,0-3.8-1.8-3.8-3.6c0-3,2.7-4.7,7.5-4.7v-0.3
		c0-1-0.3-2.9-2.8-2.9c-1.2,0-2.4,0.4-3.3,0.9l-0.5-1.5c1-0.7,2.5-1.1,4.1-1.1c3.8,0,4.8,2.6,4.8,5.1v4.7c0,1.1,0.1,2.1,0.2,3H275.1
		z M274.8,115.6c-2.5-0.1-5.3,0.4-5.3,2.8c0,1.5,1,2.2,2.1,2.2c1.6,0,2.7-1,3-2.1c0.1-0.2,0.1-0.5,0.1-0.7V115.6z"/>
	<path class="st4" d="M280.7,103.7h2.3V122h-2.3V103.7z"/>
</g>
<g>
	<path d="M328,3.1c1.6,0,3.2,0.4,4.7,1.2s2.7,2,3.6,3.6c0.9,1.5,1.3,3.2,1.3,4.8c0,1.7-0.4,3.3-1.3,4.8c-0.8,1.5-2,2.7-3.6,3.6
		s-3.1,1.3-4.8,1.3c-1.7,0-3.3-0.4-4.8-1.3s-2.7-2-3.6-3.6c-0.9-1.5-1.3-3.1-1.3-4.8c0-1.7,0.4-3.3,1.3-4.8c0.9-1.5,2.1-2.7,3.6-3.6
		S326.4,3.1,328,3.1z M328,4.7c-1.4,0-2.7,0.3-4,1c-1.3,0.7-2.3,1.7-3,3s-1.1,2.6-1.1,4c0,1.4,0.4,2.7,1.1,4c0.7,1.3,1.7,2.3,3,3
		c1.3,0.7,2.6,1.1,4,1.1c1.4,0,2.7-0.4,4-1.1c1.3-0.7,2.3-1.7,3-3s1.1-2.6,1.1-4c0-1.4-0.4-2.7-1.1-4s-1.7-2.3-3-3
		C330.7,5.1,329.4,4.7,328,4.7z M323.8,18.1V7.7h3.6c1.2,0,2.1,0.1,2.6,0.3c0.5,0.2,1,0.5,1.3,1c0.3,0.5,0.5,1,0.5,1.5
		c0,0.8-0.3,1.4-0.8,2c-0.5,0.6-1.3,0.9-2.2,0.9c0.4,0.2,0.7,0.3,0.9,0.5c0.4,0.4,0.9,1.1,1.5,2.1l1.3,2h-2l-0.9-1.6
		c-0.7-1.3-1.3-2.1-1.8-2.4c-0.3-0.2-0.8-0.4-1.3-0.4h-1v4.4H323.8z M325.5,12.3h2c1,0,1.6-0.1,2-0.4s0.5-0.7,0.5-1.1
		c0-0.3-0.1-0.6-0.3-0.8c-0.2-0.2-0.4-0.4-0.7-0.5c-0.3-0.1-0.9-0.2-1.7-0.2h-1.9V12.3z"/>
</g>
</svg>
